<svg width="7" height="13" viewBox="0 0 7 13" fill="none" xmlns="http://www.w3.org/2000/svg">
<path d="M4.36102 0.778809V2.67676H3.38348V0.778809H4.36102ZM4.24042 11.1445V12.8457H3.26923V11.1445H4.24042ZM5.19891 9.09424C5.19891 8.8488 5.14813 8.63509 5.04657 8.45312C4.94924 8.26693 4.78843 8.09977 4.56415 7.95166C4.33986 7.79932 4.03941 7.65755 3.66278 7.52637C3.12111 7.33594 2.64716 7.12223 2.24091 6.88525C1.83889 6.64404 1.52574 6.34782 1.30145 5.99658C1.0814 5.64111 0.971375 5.19889 0.971375 4.66992C0.971375 4.14941 1.08986 3.69873 1.32684 3.31787C1.56805 2.93701 1.90236 2.6429 2.32977 2.43555C2.75718 2.22819 3.25653 2.12451 3.82782 2.12451C4.26792 2.12451 4.66359 2.1901 5.01483 2.32129C5.3703 2.45247 5.67287 2.64502 5.92255 2.89893C6.17222 3.15283 6.36265 3.46598 6.49384 3.83838C6.62925 4.20654 6.69696 4.62972 6.69696 5.10791H5.17352C5.17352 4.83708 5.14178 4.59587 5.07831 4.38428C5.01906 4.16846 4.9302 3.98649 4.81171 3.83838C4.69322 3.68604 4.54934 3.56966 4.38007 3.48926C4.21503 3.40885 4.02671 3.36865 3.81512 3.36865C3.51467 3.36865 3.26711 3.42578 3.07245 3.54004C2.87779 3.65007 2.73391 3.80241 2.64081 3.99707C2.55194 4.19173 2.50751 4.4139 2.50751 4.66357C2.50751 4.90479 2.55406 5.11637 2.64716 5.29834C2.74025 5.48031 2.89895 5.64535 3.12323 5.79346C3.35175 5.93734 3.6649 6.08333 4.06268 6.23145C4.60858 6.42611 5.08042 6.64404 5.47821 6.88525C5.88023 7.12223 6.18915 7.41634 6.40497 7.76758C6.62502 8.11458 6.73505 8.55257 6.73505 9.08154C6.73505 9.62744 6.60809 10.0908 6.35419 10.4717C6.10451 10.8525 5.75328 11.1424 5.30048 11.3413C4.85191 11.536 4.32928 11.6333 3.7326 11.6333C3.35598 11.6333 2.98147 11.5846 2.60907 11.4873C2.24091 11.3857 1.9066 11.2207 1.60614 10.9922C1.30568 10.7637 1.06659 10.4611 0.888855 10.0845C0.711121 9.70361 0.622253 9.23812 0.622253 8.68799H2.15839C2.15839 9.01807 2.20282 9.29313 2.29169 9.51318C2.38055 9.73324 2.50116 9.90674 2.6535 10.0337C2.80585 10.1606 2.97512 10.2516 3.16132 10.3066C3.35175 10.3617 3.54218 10.3892 3.7326 10.3892C4.04999 10.3892 4.31659 10.3363 4.53241 10.2305C4.75246 10.1204 4.9175 9.9681 5.02753 9.77344C5.14178 9.57454 5.19891 9.34814 5.19891 9.09424Z" fill="#27AA81"/>
</svg>
