<svg width="33" height="32" viewBox="0 0 33 32" fill="none" xmlns="http://www.w3.org/2000/svg">
<path d="M25.9375 15.5C26.7875 15.5 27.4375 16.15 27.4375 17V28C27.4375 28.85 26.7875 29.5 25.9375 29.5H7.9375C7.1375 29.5 6.4375 28.85 6.4375 28V17C6.4375 16.15 7.0875 15.5 7.9375 15.5H25.9375Z" stroke="#94A2B2" stroke-miterlimit="10" stroke-linecap="round" stroke-linejoin="round"/>
<path d="M9.4375 18V27" stroke="#94A2B2" stroke-miterlimit="10" stroke-linecap="round" stroke-linejoin="round"/>
<path d="M12.4375 18V27" stroke="#94A2B2" stroke-miterlimit="10" stroke-linecap="round" stroke-linejoin="round"/>
<path d="M15.4375 18V27" stroke="#94A2B2" stroke-miterlimit="10" stroke-linecap="round" stroke-linejoin="round"/>
<path d="M18.4375 18V27" stroke="#94A2B2" stroke-miterlimit="10" stroke-linecap="round" stroke-linejoin="round"/>
<path d="M21.4375 18V27" stroke="#94A2B2" stroke-miterlimit="10" stroke-linecap="round" stroke-linejoin="round"/>
<path d="M24.4375 18V27" stroke="#94A2B2" stroke-miterlimit="10" stroke-linecap="round" stroke-linejoin="round"/>
<path d="M16.9398 2.5V5.45C17.9398 5.45 19.0398 6.4 19.0398 7.55C19.0398 8.7 18.0898 9.65 16.9398 9.65C15.7898 9.65 14.8398 8.7 14.8398 7.5" stroke="#94A2B2" stroke-miterlimit="10" stroke-linecap="round" stroke-linejoin="round"/>
<path d="M8.58984 13.9992L14.1898 10.1992" stroke="#94A2B2" stroke-miterlimit="10" stroke-linecap="round" stroke-linejoin="round"/>
<path d="M19.5898 10.1992L25.1898 13.9992" stroke="#94A2B2" stroke-miterlimit="10" stroke-linecap="round" stroke-linejoin="round"/>
</svg>
