<svg width="18" height="19" viewBox="0 0 18 19" fill="none" xmlns="http://www.w3.org/2000/svg">
<path d="M0.920673 14.6938L1.49644 14.3359C2.42522 16.2071 4.21631 16.9286 6.15169 17.0944C7.64433 17.2222 8.44509 18.0079 8.78911 18.4635C8.89444 18.603 9.10219 18.603 9.20752 18.4635C9.55153 18.0079 10.3523 17.2222 11.845 17.0944C13.7803 16.9286 15.5714 16.2071 16.5002 14.3359L17.076 14.6938C17.1949 14.7677 17.3479 14.6771 17.3402 14.5373L17.2266 12.4606C17.22 12.3406 17.0962 12.2637 16.9857 12.3109L15.0733 13.1285C14.9445 13.1835 14.931 13.3607 15.05 13.4346L15.6893 13.8319C15.319 14.39 14.1542 15.617 12.2527 15.4961C12.2527 15.4961 12.2525 15.496 12.2522 15.496C10.6901 15.3604 9.99966 14.606 9.91627 12.965L9.6668 7.82783L10.7307 7.83097C10.8312 7.83097 10.9126 7.74955 10.9126 7.64909L10.9198 7.02102C10.9198 6.92056 10.8383 6.83914 10.7378 6.83914H9.63375L9.46214 4.81658C10.4637 4.6033 11.2151 3.71394 11.2151 2.6487C11.2151 1.42442 10.2226 0.431938 8.99831 0.431938C7.77399 0.431938 6.7815 1.42442 6.7815 2.6487C6.7815 3.71394 7.53291 4.6033 8.53453 4.81658L8.36288 6.83914H7.25878C7.15833 6.83914 7.07691 6.92056 7.07691 7.02102L7.08408 7.64909C7.08408 7.74955 7.1655 7.83097 7.26595 7.83097L8.32992 7.82783L8.08045 12.965C7.99702 14.606 7.30664 15.3604 5.74449 15.496C5.7442 15.496 5.74402 15.4961 5.74402 15.4961C3.84244 15.617 2.67769 14.39 2.30742 13.8319L2.9467 13.4346C3.06567 13.3607 3.05217 13.1835 2.92336 13.1285L1.01105 12.3109C0.900563 12.2637 0.77672 12.3406 0.770157 12.4606L0.656532 14.5373C0.648798 14.6771 0.801751 14.7677 0.920673 14.6938ZM7.93505 2.6487C7.93505 2.0615 8.41106 1.58544 8.99831 1.58544C9.58556 1.58544 10.0616 2.06145 10.0616 2.6487C10.0616 3.23595 9.58556 3.71202 8.99831 3.71202C8.41106 3.71202 7.93505 3.23595 7.93505 2.6487Z" fill="#495A6E"/>
</svg>
