<svg width="20" height="20" viewBox="0 0 20 20" fill="none" xmlns="http://www.w3.org/2000/svg">
<path d="M7.57471 15.4238C7.57471 16.8223 8.71558 18 10.1509 18C11.5862 18 12.727 16.8223 12.727 15.4238H11.991H8.31076H7.57471Z" fill="#CFD6DF"/>
<path d="M15.7184 15.4017H15.8184V15.3017V9.6181C15.8184 6.58494 13.2034 4.12852 10.0001 4.12852C6.79634 4.12852 4.18174 6.58532 4.18174 9.65077V15.3017V15.4017H4.28174H15.7184ZM14.9599 9.65143V14.5484H5.07487V9.6181C5.07487 7.06569 7.27711 4.9818 10.0001 4.9818C12.722 4.9818 14.9257 7.06491 14.9599 9.65143Z" fill="#94A2B2" stroke="#94A2B2" stroke-width="0.2"/>
<path d="M11.8389 4.77436H11.9389V4.67436V3.83862C11.9389 2.78051 11.0584 1.9 10.0002 1.9C8.94213 1.9 8.06162 2.78051 8.06162 3.83862V4.67436V4.77436H8.16162H8.99736H9.09736V4.67436V3.83862C9.09736 3.35062 9.51225 2.93574 10.0002 2.93574C10.4883 2.93574 10.9031 3.35062 10.9031 3.83862V4.67436V4.77436H11.0031H11.8389Z" fill="#94A2B2" stroke="#94A2B2" stroke-width="0.2"/>
<path d="M9.20959 6.87666C7.70211 6.99906 6.52419 8.55757 6.85628 9.9528" stroke="#94A2B2" stroke-linecap="round"/>
</svg>
