<svg width="24" height="24" viewBox="0 0 24 24" fill="none" xmlns="http://www.w3.org/2000/svg">
<path d="M10 8.5C9.60217 8.5 9.22064 8.65804 8.93934 8.93934C8.65804 9.22064 8.5 9.60218 8.5 10C8.5 10.3978 8.65804 10.7794 8.93934 11.0607C9.22064 11.342 9.60218 11.5 10 11.5C10.3978 11.5 10.7794 11.342 11.0607 11.0607C11.342 10.7794 11.5 10.3978 11.5 10C11.5 9.60217 11.342 9.22064 11.0607 8.93934C10.7794 8.65804 10.3978 8.5 10 8.5ZM10 8.5C10.3978 8.5 10.7794 8.34196 11.0607 8.06066C11.342 7.77936 11.5 7.39783 11.5 7C11.5 6.60217 11.342 6.22064 11.0607 5.93934C10.7794 5.65804 10.3978 5.5 10 5.5C9.60218 5.5 9.22064 5.65804 8.93934 5.93934C8.65804 6.22064 8.5 6.60218 8.5 7C8.5 7.39782 8.65804 7.77936 8.93934 8.06066C9.22064 8.34196 9.60218 8.5 10 8.5ZM14 8.5C13.6022 8.5 13.2206 8.65804 12.9393 8.93934C12.658 9.22064 12.5 9.60217 12.5 10C12.5 10.3978 12.658 10.7794 12.9393 11.0607C13.2206 11.342 13.6022 11.5 14 11.5C14.3978 11.5 14.7794 11.342 15.0607 11.0607C15.342 10.7794 15.5 10.3978 15.5 10C15.5 9.60217 15.342 9.22064 15.0607 8.93934C14.7794 8.65804 14.3978 8.5 14 8.5ZM14 8.5C14.3978 8.5 14.7794 8.34196 15.0607 8.06066C15.342 7.77936 15.5 7.39783 15.5 7C15.5 6.60217 15.342 6.22064 15.0607 5.93934C14.7794 5.65804 14.3978 5.5 14 5.5C13.6022 5.5 13.2206 5.65804 12.9393 5.93934C12.658 6.22064 12.5 6.60217 12.5 7C12.5 7.39783 12.658 7.77936 12.9393 8.06066C13.2206 8.34196 13.6022 8.5 14 8.5ZM18.5 20V20.5H19C19.1326 20.5 19.2598 20.5527 19.3536 20.6464C19.4473 20.7402 19.5 20.8674 19.5 21C19.5 21.1326 19.4473 21.2598 19.3536 21.3536C19.2598 21.4473 19.1326 21.5 19 21.5H5C4.86739 21.5 4.74021 21.4473 4.64645 21.3536C4.55268 21.2598 4.5 21.1326 4.5 21C4.5 20.8674 4.55268 20.7402 4.64645 20.6464C4.74021 20.5527 4.86739 20.5 5 20.5H5.5V20V4C5.5 3.60218 5.65804 3.22064 5.93934 2.93934C6.22064 2.65804 6.60218 2.5 7 2.5H17C17.3978 2.5 17.7794 2.65804 18.0607 2.93934C18.342 3.22064 18.5 3.60218 18.5 4V20ZM9.5 20V20.5H10H14H14.5V20V14C14.5 13.6022 14.342 13.2206 14.0607 12.9393C13.7794 12.658 13.3978 12.5 13 12.5H11C10.6022 12.5 10.2206 12.658 9.93934 12.9393C9.65804 13.2206 9.5 13.6022 9.5 14V20Z" fill="#495A6E" stroke="#495A6E"/>
</svg>
