<svg width="36" height="32" viewBox="0 0 36 32" fill="none" xmlns="http://www.w3.org/2000/svg">
<rect x="0.5" y="0.5" width="34.2308" height="31" rx="3.5" fill="#F3F5F7"/>
<rect x="0.5" y="0.5" width="34.2308" height="31" rx="3.5" stroke="#E7EAF0"/>
<path d="M12.8047 18.3125C13.0234 18.3125 13.2422 18.5312 13.2422 18.75V20.5C13.2422 20.7461 13.0234 20.9375 12.8047 20.9375H11.0547C10.8086 20.9375 10.6172 20.7461 10.6172 20.5V18.75C10.6172 18.5312 10.8086 18.3125 11.0547 18.3125H12.8047ZM12.8047 9.5625C13.0234 9.5625 13.2422 9.78125 13.2422 10V11.75C13.2422 11.9961 13.0234 12.1875 12.8047 12.1875H11.0547C10.8086 12.1875 10.6172 11.9961 10.6172 11.75V10C10.6172 9.78125 10.8086 9.5625 11.0547 9.5625H12.8047ZM12.8047 13.9375C13.0234 13.9375 13.2422 14.1562 13.2422 14.375V16.125C13.2422 16.3711 13.0234 16.5625 12.8047 16.5625H11.0547C10.8086 16.5625 10.6172 16.3711 10.6172 16.125V14.375C10.6172 14.1562 10.8086 13.9375 11.0547 13.9375H12.8047ZM24.1797 18.75C24.3984 18.75 24.6172 18.9688 24.6172 19.1875V20.0625C24.6172 20.3086 24.3984 20.5 24.1797 20.5H15.4297C15.1836 20.5 14.9922 20.3086 14.9922 20.0625V19.1875C14.9922 18.9688 15.1836 18.75 15.4297 18.75H24.1797ZM24.1797 10C24.3984 10 24.6172 10.2188 24.6172 10.4375V11.3125C24.6172 11.5586 24.3984 11.75 24.1797 11.75H15.4297C15.1836 11.75 14.9922 11.5586 14.9922 11.3125V10.4375C14.9922 10.2188 15.1836 10 15.4297 10H24.1797ZM24.1797 14.375C24.3984 14.375 24.6172 14.5938 24.6172 14.8125V15.6875C24.6172 15.9336 24.3984 16.125 24.1797 16.125H15.4297C15.1836 16.125 14.9922 15.9336 14.9922 15.6875V14.8125C14.9922 14.5938 15.1836 14.375 15.4297 14.375H24.1797Z" fill="#67788E"/>
</svg>
