<svg width="36" height="32" viewBox="0 0 36 32" fill="none" xmlns="http://www.w3.org/2000/svg">
<rect x="0.5" y="0.5" width="34.23" height="31" rx="3.5" fill="white"/>
<rect x="0.5" y="0.5" width="34.23" height="31" rx="3.5" stroke="#E7EAF0"/>
<path d="M14.9228 10.1154C14.9228 9.96305 14.9439 9.81564 14.9833 9.67592C15.1747 8.99734 15.7983 8.5 16.5382 8.5H18.692C19.4318 8.5 20.0555 8.99734 20.2469 9.67592C20.2863 9.81564 20.3074 9.96305 20.3074 10.1154C20.3074 10.4128 20.0663 10.6538 19.7689 10.6538H15.4612C15.1639 10.6538 14.9228 10.4128 14.9228 10.1154Z" fill="#181E25"/>
<path d="M20.2469 9.67592C20.0555 8.99734 19.4318 8.5 18.692 8.5H16.5382C15.7983 8.5 15.1747 8.99734 14.9833 9.67592M20.2469 9.67592C20.2863 9.81564 20.3074 9.96305 20.3074 10.1154V10.1154C20.3074 10.4128 20.0663 10.6538 19.7689 10.6538H15.4612C15.1639 10.6538 14.9228 10.4128 14.9228 10.1154V10.1154C14.9228 9.96305 14.9439 9.81564 14.9833 9.67592M20.2469 9.67592C20.7108 9.71095 21.1722 9.75517 21.6308 9.8084C22.421 9.9001 22.9997 10.5813 22.9997 11.3768V20.8846C22.9997 21.7768 22.2765 22.5 21.3843 22.5H13.8459C12.9537 22.5 12.2305 21.7768 12.2305 20.8846V11.3768C12.2305 10.5813 12.8092 9.9001 13.5994 9.8084C14.058 9.75517 14.5193 9.71095 14.9833 9.67592" stroke="#181E25" stroke-width="0.769231" stroke-linecap="round" stroke-linejoin="round"/>
<path d="M14.2305 18.5371L21.2305 18.5371" stroke="#181E25" stroke-linecap="round"/>
<path d="M14.2305 16.5741L15.2305 16.5741" stroke="#181E25" stroke-linecap="round"/>
<path d="M14.2305 14.5L15.2305 14.5" stroke="#181E25" stroke-linecap="round"/>
<path d="M14.2305 12.4259L15.2305 12.4259" stroke="#181E25" stroke-linecap="round"/>
<path d="M14.2305 20.5L21.2305 20.5" stroke="#181E25" stroke-linecap="round"/>
<mask id="path-9-inside-1_4959_123229" fill="white">
<path d="M20.4708 15.3421L21.5641 16.4351L21.2029 16.7963L20.1099 15.703C19.7032 16.029 19.1974 16.2064 18.6762 16.2056C17.4081 16.2056 16.3789 15.1764 16.3789 13.9084C16.3789 12.6403 17.4081 11.6111 18.6762 11.6111C19.9443 11.6111 20.9734 12.6403 20.9734 13.9084C20.9742 14.4296 20.7969 14.9354 20.4708 15.3421ZM19.9588 15.1527C20.2828 14.8196 20.4637 14.373 20.4629 13.9084C20.4629 12.9213 19.6632 12.1216 18.6762 12.1216C17.6891 12.1216 16.8894 12.9213 16.8894 13.9084C16.8894 14.8954 17.6891 15.6951 18.6762 15.6951C19.1408 15.6958 19.5874 15.5149 19.9205 15.191L19.9588 15.1527Z"/>
</mask>
<path d="M20.4708 15.3421L21.5641 16.4351L21.2029 16.7963L20.1099 15.703C19.7032 16.029 19.1974 16.2064 18.6762 16.2056C17.4081 16.2056 16.3789 15.1764 16.3789 13.9084C16.3789 12.6403 17.4081 11.6111 18.6762 11.6111C19.9443 11.6111 20.9734 12.6403 20.9734 13.9084C20.9742 14.4296 20.7969 14.9354 20.4708 15.3421ZM19.9588 15.1527C20.2828 14.8196 20.4637 14.373 20.4629 13.9084C20.4629 12.9213 19.6632 12.1216 18.6762 12.1216C17.6891 12.1216 16.8894 12.9213 16.8894 13.9084C16.8894 14.8954 17.6891 15.6951 18.6762 15.6951C19.1408 15.6958 19.5874 15.5149 19.9205 15.191L19.9588 15.1527Z" fill="#181E25"/>
<path d="M20.4708 15.3421L18.1301 13.4657L16.4487 15.5631L18.3498 17.4637L20.4708 15.3421ZM21.5641 16.4351L23.6854 18.5564L25.807 16.4348L23.6852 14.3135L21.5641 16.4351ZM21.2029 16.7963L19.0813 18.9173L21.2027 21.0392L23.3242 18.9176L21.2029 16.7963ZM20.1099 15.703L22.2315 13.582L20.3309 11.6809L18.2335 13.3623L20.1099 15.703ZM18.6762 16.2056L18.6804 13.2056H18.6762V16.2056ZM20.9734 13.9084H17.9734L17.9734 13.9126L20.9734 13.9084ZM19.9588 15.1527L22.0801 17.274L22.095 17.2592L22.1096 17.2442L19.9588 15.1527ZM20.4629 13.9084H17.4629L17.4629 13.9131L20.4629 13.9084ZM18.6762 15.6951L18.6809 12.6951H18.6762V15.6951ZM19.9205 15.191L22.012 17.3418L22.027 17.3271L22.0418 17.3123L19.9205 15.191ZM18.3498 17.4637L19.443 18.5567L23.6852 14.3135L22.5919 13.2205L18.3498 17.4637ZM19.4428 14.3138L19.0816 14.6749L23.3242 18.9176L23.6854 18.5564L19.4428 14.3138ZM23.3245 14.6752L22.2315 13.582L17.9884 17.8241L19.0813 18.9173L23.3245 14.6752ZM18.2335 13.3623C18.3603 13.2607 18.518 13.2054 18.6804 13.2056L18.6719 19.2056C19.8768 19.2073 21.0462 18.7974 21.9863 18.0438L18.2335 13.3623ZM18.6762 13.2056C19.0649 13.2056 19.3789 13.5196 19.3789 13.9084H13.3789C13.3789 16.8333 15.7512 19.2056 18.6762 19.2056V13.2056ZM19.3789 13.9084C19.3789 14.2971 19.0649 14.6111 18.6762 14.6111V8.61108C15.7512 8.61108 13.3789 10.9834 13.3789 13.9084H19.3789ZM18.6762 14.6111C18.2874 14.6111 17.9734 14.2971 17.9734 13.9084H23.9734C23.9734 10.9834 21.6011 8.61108 18.6762 8.61108V14.6111ZM17.9734 13.9126C17.9732 13.7501 18.0285 13.5925 18.1301 13.4657L22.8116 17.2185C23.5652 16.2784 23.9752 15.109 23.9734 13.9041L17.9734 13.9126ZM22.1096 17.2442C22.9792 16.3498 23.4649 15.1511 23.4629 13.9036L17.4629 13.9131C17.4624 13.595 17.5863 13.2893 17.808 13.0613L22.1096 17.2442ZM23.4629 13.9084C23.4629 11.2644 21.3201 9.12159 18.6762 9.12159V15.1216C18.0064 15.1216 17.4629 14.5781 17.4629 13.9084H23.4629ZM18.6762 9.12159C16.0323 9.12159 13.8894 11.2644 13.8894 13.9084H19.8894C19.8894 14.5781 19.346 15.1216 18.6762 15.1216V9.12159ZM13.8894 13.9084C13.8894 16.5523 16.0323 18.6951 18.6762 18.6951V12.6951C19.346 12.6951 19.8894 13.2386 19.8894 13.9084H13.8894ZM18.6714 18.6951C19.9189 18.6971 21.1177 18.2114 22.012 17.3418L17.8291 13.0402C18.0571 12.8185 18.3628 12.6946 18.6809 12.6951L18.6714 18.6951ZM22.0418 17.3123L22.0801 17.274L17.8375 13.0314L17.7992 13.0697L22.0418 17.3123Z" fill="#181E25" mask="url(#path-9-inside-1_4959_123229)"/>
</svg>
