<svg width="563" height="182" viewBox="0 0 563 182" fill="none" xmlns="http://www.w3.org/2000/svg">
<g opacity="0.5">
<g clip-path="url(#clip0_134_42376)">
<rect x="0.667969" width="562" height="182" rx="7.45232" fill="#FFF1F1"/>
<path d="M17.7188 -14.4766V114.01" stroke="#FFB3B8" stroke-width="0.93154"/>
<path d="M51.0039 -14.4766V114.01" stroke="#FFB3B8" stroke-width="0.93154"/>
<path d="M84.2852 -14.4766V114.01" stroke="#FFB3B8" stroke-width="0.93154"/>
<path d="M117.57 -14.4766V114.01" stroke="#FFB3B8" stroke-width="0.93154"/>
<path d="M150.852 -14.4766V114.01" stroke="#FFB3B8" stroke-width="0.93154"/>
<path d="M184.137 -14.4766V114.01" stroke="#FFB3B8" stroke-width="0.93154"/>
<path d="M217.418 -14.4766V114.01" stroke="#FFB3B8" stroke-width="0.93154"/>
<path d="M250.699 -14.4766V114.01" stroke="#FFB3B8" stroke-width="0.93154"/>
<path d="M283.984 -14.4766V114.01" stroke="#FFB3B8" stroke-width="0.93154"/>
<path d="M317.266 -14.4766V114.01" stroke="#FFB3B8" stroke-width="0.93154"/>
<path d="M350.547 -14.4766V114.01" stroke="#FFB3B8" stroke-width="0.93154"/>
<path d="M372.219 -0.160156L-48.8446 -0.160165" stroke="#FFB3B8" stroke-width="0.93154"/>
<path d="M372.219 33.125L-48.8446 33.125" stroke="#FFB3B8" stroke-width="0.93154"/>
<path d="M372.219 66.4082L-48.8446 66.4082" stroke="#FFB3B8" stroke-width="0.93154"/>
<path d="M372.219 99.6914L-48.8446 99.6914" stroke="#FFB3B8" stroke-width="0.93154"/>
<path d="M383.828 -14.4766V114.01" stroke="#FFB3B8" stroke-width="0.93154"/>
<path d="M417.109 -14.4766V114.01" stroke="#FFB3B8" stroke-width="0.93154"/>
<path d="M450.394 -14.4766V114.01" stroke="#FFB3B8" stroke-width="0.93154"/>
<path d="M483.675 -14.4766V114.01" stroke="#FFB3B8" stroke-width="0.93154"/>
<path d="M516.96 -14.4766V114.01" stroke="#FFB3B8" stroke-width="0.93154"/>
<path d="M550.242 -14.4766V114.01" stroke="#FFB3B8" stroke-width="0.93154"/>
<path d="M771.609 -0.160156L350.546 -0.160165" stroke="#FFB3B8" stroke-width="0.93154"/>
<path d="M771.609 33.125L350.546 33.125" stroke="#FFB3B8" stroke-width="0.93154"/>
<path d="M771.609 66.4082L350.546 66.4082" stroke="#FFB3B8" stroke-width="0.93154"/>
<path d="M771.609 99.6914L350.546 99.6914" stroke="#FFB3B8" stroke-width="0.93154"/>
<path d="M17.7188 114.012V242.498" stroke="#FFB3B8" stroke-width="0.93154"/>
<path d="M51.0039 114.012V242.498" stroke="#FFB3B8" stroke-width="0.93154"/>
<path d="M84.2852 114.012V242.498" stroke="#FFB3B8" stroke-width="0.93154"/>
<path d="M117.57 114.012V242.498" stroke="#FFB3B8" stroke-width="0.93154"/>
<path d="M150.852 114.012V242.498" stroke="#FFB3B8" stroke-width="0.93154"/>
<path d="M184.137 114.012V242.498" stroke="#FFB3B8" stroke-width="0.93154"/>
<path d="M217.418 114.012V242.498" stroke="#FFB3B8" stroke-width="0.93154"/>
<path d="M250.699 114.012V242.498" stroke="#FFB3B8" stroke-width="0.93154"/>
<path d="M283.984 114.012V242.498" stroke="#FFB3B8" stroke-width="0.93154"/>
<path d="M317.266 114.012V242.498" stroke="#FFB3B8" stroke-width="0.93154"/>
<path d="M350.547 114.012V242.498" stroke="#FFB3B8" stroke-width="0.93154"/>
<path d="M372.219 128.328L-48.8446 128.328" stroke="#FFB3B8" stroke-width="0.93154"/>
<path d="M372.219 161.613L-48.8446 161.613" stroke="#FFB3B8" stroke-width="0.93154"/>
<path d="M383.828 114.012V242.498" stroke="#FFB3B8" stroke-width="0.93154"/>
<path d="M417.109 114.012V242.498" stroke="#FFB3B8" stroke-width="0.93154"/>
<path d="M450.394 114.012V242.498" stroke="#FFB3B8" stroke-width="0.93154"/>
<path d="M483.675 114.012V242.498" stroke="#FFB3B8" stroke-width="0.93154"/>
<path d="M516.96 114.012V242.498" stroke="#FFB3B8" stroke-width="0.93154"/>
<path d="M550.242 114.012V242.498" stroke="#FFB3B8" stroke-width="0.93154"/>
<path d="M771.609 128.328L350.546 128.328" stroke="#FFB3B8" stroke-width="0.93154"/>
<path d="M771.609 161.613L350.546 161.613" stroke="#FFB3B8" stroke-width="0.93154"/>
<rect width="743.369" height="282.257" transform="translate(-89.1016 -50.3027)" fill="url(#paint0_radial_134_42376)"/>
</g>
</g>
<defs>
<radialGradient id="paint0_radial_134_42376" cx="0" cy="0" r="1" gradientUnits="userSpaceOnUse" gradientTransform="translate(371.685 141.128) rotate(90) scale(97.8479 257.698)">
<stop stop-color="white" stop-opacity="0"/>
<stop offset="1" stop-color="white"/>
</radialGradient>
<clipPath id="clip0_134_42376">
<rect x="0.667969" width="562" height="182" rx="7.45232" fill="white"/>
</clipPath>
</defs>
</svg>
