<svg width="90" height="89" viewBox="0 0 90 89" fill="none" xmlns="http://www.w3.org/2000/svg">
<g filter="url(#filter0_d_134_42448)">
<circle cx="45.168" cy="36.2979" r="28.7979" fill="#F8FAFC" stroke="#D32D2F"/>
<path d="M59.8897 45.631C59.8819 45.7393 59.8704 45.8475 59.8588 45.9558C59.8588 45.9597 59.8588 45.9635 59.8588 45.9674V45.9713C59.8588 45.9751 59.8588 45.979 59.8549 45.9829C59.8472 46.0254 59.8433 46.0679 59.8356 46.1105C59.7622 46.5474 59.6541 46.9804 59.5073 47.4019C59.4648 47.5218 59.4223 47.6378 59.376 47.7537C59.3683 47.7692 59.3567 47.7963 59.3451 47.8233C59.3567 47.7653 59.3335 47.7537 59.3297 47.8659C59.3297 47.8659 59.3297 47.8659 59.3297 47.862C59.3297 47.8504 59.3374 47.8388 59.3451 47.8233C59.3412 47.8349 59.3412 47.8504 59.3335 47.862L59.3297 47.8659H59.3258V47.8697C59.3258 47.8697 59.3297 47.8697 59.3297 47.8659C59.2485 48.0553 59.152 48.2409 59.0554 48.4227C58.8739 48.759 58.6692 49.1302 58.4182 49.428C58.4182 49.4318 58.4143 49.4318 58.4143 49.4357C58.4105 49.4396 58.4066 49.4473 58.4027 49.4512C58.3834 49.4705 58.3641 49.4937 58.3525 49.5092C58.3139 49.5555 58.2753 49.6058 58.2328 49.6522C58.1672 49.7295 58.0976 49.8069 58.0281 49.8842C57.8891 50.035 57.7462 50.1819 57.5956 50.3211C57.4411 50.4642 57.2827 50.5995 57.1205 50.7348C57.1051 50.7464 57.0935 50.7542 57.0858 50.7658C57.078 50.7735 57.0664 50.7812 57.051 50.7928C57.0085 50.8238 56.9699 50.8547 56.9274 50.8856C56.827 50.9591 56.7227 51.0287 56.6146 51.0983C56.406 51.2336 56.1936 51.3573 55.9773 51.4733C55.8769 51.5275 55.7765 51.5777 55.6761 51.6241C55.6336 51.6435 55.595 51.6628 55.5525 51.6821C55.5409 51.686 55.5177 51.6976 55.4907 51.7131C55.483 51.7169 55.4752 51.7208 55.4675 51.7247C55.0736 51.9141 54.6217 52.0263 54.2007 52.1229C54.0656 52.1539 53.9304 52.1809 53.7914 52.2041C53.7218 52.2157 53.6523 52.2273 53.5828 52.2389C53.5673 52.2428 53.5364 52.2467 53.5171 52.2544H53.5133C53.3124 52.2853 53.0923 52.2853 52.8915 52.293C52.4821 52.3085 52.0727 52.2892 51.6672 52.2467C51.6517 52.2467 51.6401 52.2428 51.6324 52.2428C51.6015 52.2389 51.5668 52.2312 51.5359 52.2273C51.4432 52.2119 51.3543 52.1964 51.2617 52.1771C51.0801 52.1423 50.9025 52.0997 50.7248 52.0533C50.5317 52.0031 50.3386 51.9412 50.1494 51.8755C50.0644 51.8445 49.9794 51.8136 49.8945 51.7827C49.8597 51.7711 49.8288 51.7556 49.7979 51.744C49.7477 51.6899 49.5971 51.6551 49.5276 51.6241C49.4542 51.5893 49.3808 51.5545 49.3113 51.5159C49.1529 51.4347 48.9946 51.3457 48.8401 51.253C48.6702 51.1524 48.5079 51.0442 48.3457 50.932C48.2878 50.8895 48.2299 50.8508 48.1719 50.8083C48.1526 50.7774 48.0793 50.7348 48.0484 50.7116C47.7664 50.4796 47.4999 50.2322 47.2489 49.9654C47.1214 49.8301 46.9979 49.687 46.8781 49.5439C46.855 49.5169 46.8163 49.4434 46.7816 49.4202C46.7391 49.3622 46.6966 49.3081 46.658 49.2501C46.4417 48.9408 46.2486 48.6198 46.0748 48.2873C46.0323 48.2061 45.9937 48.1249 45.9551 48.0437C45.9242 47.9819 45.8971 47.8427 45.8469 47.8001C45.8354 47.7692 45.8199 47.7344 45.8083 47.7035C45.7774 47.6184 45.7427 47.5334 45.7156 47.4483C45.5882 47.0848 45.4878 46.7137 45.4144 46.3347C45.3951 46.2342 45.3758 46.1337 45.3603 46.0331C45.3564 46.0138 45.3564 45.9906 45.3526 45.9674C45.368 46.0254 45.3912 46.0486 45.341 45.9055C45.3217 45.7354 45.3062 45.5653 45.2985 45.3913C45.2753 44.9312 45.2908 44.4711 45.3449 44.0148V44.0109C45.3487 43.9878 45.3642 43.895 45.368 43.8679C45.3796 43.7944 45.3951 43.721 45.4067 43.6475C45.4298 43.5276 45.4569 43.4078 45.4839 43.2879C45.538 43.0637 45.6036 42.8394 45.677 42.6229C45.7195 42.4953 45.7658 42.3715 45.8122 42.2478C45.816 42.2362 45.8624 42.1241 45.8662 42.1125C45.8778 42.0854 45.8894 42.0584 45.9049 42.0274C46.0014 41.8148 46.1096 41.606 46.2254 41.401C46.3297 41.2155 46.4417 41.0337 46.5614 40.8559C46.6155 40.7747 46.6696 40.6973 46.7275 40.6161C46.7507 40.5852 46.7738 40.5543 46.797 40.5233C46.797 40.5195 46.8009 40.5195 46.8009 40.5195L46.8047 40.5156C47.0519 40.214 47.3068 39.9279 47.5888 39.6572C47.7432 39.5103 47.9055 39.3711 48.0715 39.2358C48.0754 39.2319 48.0831 39.2242 48.0947 39.2165L48.0986 39.2126C48.0986 39.2126 48.1024 39.2126 48.1024 39.2087L48.1063 39.2049L48.1101 39.201C48.1333 39.1817 48.1681 39.1585 48.1719 39.1546C48.2492 39.0966 48.3303 39.0386 48.4075 38.9845C48.7358 38.7602 49.0834 38.5553 49.4426 38.3813C49.5391 38.3349 49.6396 38.2885 49.7361 38.246C49.74 38.2421 49.7438 38.2421 49.7477 38.2421C49.7825 38.2266 49.8211 38.2112 49.8558 38.1996C50.0412 38.1261 50.2266 38.0642 50.4158 38.0062C50.6244 37.9405 50.8368 37.8864 51.0531 37.84C51.2308 37.8013 51.4702 37.7162 51.6479 37.7317C51.6131 37.7356 51.5783 37.7433 51.5397 37.7472C51.5783 37.7433 51.6208 37.7356 51.6595 37.7317C51.7097 37.7278 51.7599 37.7201 51.8101 37.7162C51.9028 37.7085 51.9955 37.7008 52.0881 37.6969C52.2928 37.6853 52.4975 37.6814 52.7022 37.6814C52.9108 37.6853 53.1193 37.693 53.3279 37.7124C53.3665 37.7162 53.4438 37.7356 53.5094 37.7433C53.4901 37.7356 53.4901 37.724 53.548 37.7356C53.5673 37.7394 53.5867 37.7394 53.606 37.7433C53.6407 37.7472 53.6793 37.7549 53.7141 37.7588C54.0771 37.8206 54.4363 37.9057 54.7878 38.014C54.977 38.072 55.1663 38.1377 55.3517 38.2112C55.3864 38.2228 55.4173 38.2382 55.4521 38.2537C55.5332 38.2924 55.6143 38.3272 55.6915 38.3658C56.0237 38.5243 56.3442 38.7061 56.6493 38.911C56.7304 38.9651 56.8115 39.0193 56.8926 39.0773C56.9544 39.1198 57.0317 39.2049 57.1012 39.2319C57.1282 39.2551 57.1553 39.2783 57.1823 39.3015C57.2518 39.3595 57.3175 39.4175 57.387 39.4755C57.6651 39.723 57.9316 39.9898 58.1749 40.272C58.2328 40.3416 58.2907 40.4112 58.3448 40.4769C58.3448 40.4731 58.3448 40.4731 58.3409 40.4692C58.3409 40.4731 58.3448 40.4731 58.3448 40.4769C58.3487 40.4847 58.3564 40.4885 58.3603 40.4963C58.3718 40.5117 58.3796 40.5233 58.3873 40.5349C58.3989 40.5504 58.4143 40.562 58.4221 40.5775C58.5225 40.7128 58.619 40.852 58.7117 40.9951C58.9164 41.3121 59.0979 41.6408 59.2563 41.9849C59.2794 42.0352 59.3026 42.0854 59.3219 42.1318C59.3219 42.1357 59.3258 42.1357 59.3258 42.1396C59.3258 42.1396 59.3258 42.1434 59.3297 42.1434C59.3605 42.2207 59.3914 42.2981 59.4223 42.3793C59.4841 42.5417 59.5382 42.7041 59.5846 42.8703C59.6927 43.2299 59.7738 43.6011 59.8317 43.9723C59.8201 44.0032 59.8472 44.1037 59.851 44.1385C59.8626 44.2313 59.8704 44.328 59.8742 44.4208C59.8858 44.6103 59.8935 44.7997 59.8935 44.993C59.9128 45.1941 59.9051 45.4106 59.8897 45.631ZM54.054 44.7417C54.6294 44.1656 55.2049 43.5895 55.7804 43.0134C56.1202 42.6731 56.0932 42.1434 55.7804 41.7993C55.4675 41.459 54.8843 41.4822 54.5676 41.7993C54.3552 42.012 54.1389 42.2285 53.9265 42.4411C53.4862 42.8819 53.0498 43.3188 52.6095 43.7596L52.3817 43.5315C51.8062 42.9554 51.2308 42.3793 50.6553 41.8032C50.3154 41.4629 49.7863 41.49 49.4426 41.8032C49.1027 42.1164 49.1259 42.7002 49.4426 43.0173C49.655 43.2299 49.8713 43.4426 50.0837 43.6591C50.524 44.0999 50.9604 44.5368 51.4007 44.9776C51.3234 45.0549 51.2462 45.1322 51.1728 45.2057C50.5974 45.7818 50.0219 46.3579 49.4464 46.934C49.1066 47.2743 49.1336 47.804 49.4464 48.1481C49.7593 48.4884 50.3425 48.4652 50.6592 48.1481C50.8716 47.9355 51.0879 47.7189 51.3003 47.5063L52.6173 46.1878C52.6945 46.2651 52.7717 46.3425 52.8451 46.4159L54.5715 48.1443C54.9114 48.4845 55.4405 48.4575 55.7842 48.1443C56.1241 47.8311 56.1009 47.2472 55.7842 46.9302C55.5718 46.7175 55.3555 46.501 55.1431 46.2883L53.8261 44.9698L54.054 44.7417ZM48.1372 50.7619C48.1101 50.7426 48.0986 50.731 48.0947 50.731C48.1024 50.7348 48.1526 50.7735 48.1719 50.789C48.1604 50.7812 48.1488 50.7735 48.1372 50.7619ZM46.8279 49.4512C46.8202 49.4396 46.8086 49.428 46.8009 49.4164C46.8202 49.4396 46.855 49.4898 46.8588 49.4975C46.8588 49.4898 46.8472 49.4782 46.8279 49.4512ZM45.3603 45.9094C45.3603 45.9017 45.3603 45.8978 45.3564 45.8901C45.3603 45.9094 45.3642 45.9287 45.3642 45.9481C45.3642 45.9365 45.3603 45.9249 45.3603 45.9094ZM45.3526 45.8785C45.3526 45.8823 45.3564 45.8862 45.3564 45.8901C45.3564 45.8901 45.3564 45.8901 45.3564 45.8939C45.3564 45.8862 45.3564 45.8823 45.3526 45.8785Z" fill="#D32D2F"/>
<path fill-rule="evenodd" clip-rule="evenodd" d="M54.8601 35.8109C54.8462 35.8083 54.8323 35.8069 54.8184 35.8055C54.8038 35.804 54.7891 35.8025 54.7744 35.7996C54.6862 35.782 54.6862 35.7996 54.7156 35.8114C54.6616 35.805 54.6025 35.7935 54.5503 35.7833C54.5058 35.7747 54.4664 35.767 54.4394 35.7643C54.1221 35.7349 53.8047 35.7231 53.4874 35.7172C53.1759 35.7172 52.8645 35.7231 52.553 35.7408C52.412 35.7467 52.2709 35.7584 52.1299 35.7702C52.0917 35.7731 52.0535 35.7775 52.0153 35.782C51.9771 35.7864 51.9389 35.7908 51.9007 35.7937C51.8713 35.7967 51.8405 35.8011 51.8096 35.8055C51.7788 35.8099 51.7479 35.8143 51.7185 35.8173C51.7501 35.8141 51.78 35.8092 51.8091 35.8045C51.8342 35.8004 51.8586 35.7964 51.8831 35.7937C51.684 35.7764 51.434 35.842 51.208 35.9013C51.1271 35.9225 51.0493 35.9429 50.9781 35.9584C50.649 36.029 50.3258 36.1114 50.0084 36.2114C49.7205 36.2997 49.4384 36.3938 49.1563 36.5056C49.1034 36.5232 49.0447 36.5468 48.9918 36.5703C48.9859 36.5703 48.98 36.5703 48.9742 36.5762C48.8272 36.6409 48.6744 36.7115 48.5275 36.7821C47.981 37.0469 47.4521 37.3587 46.9526 37.6999C46.8351 37.7823 46.7117 37.8705 46.5941 37.9588C46.5918 37.9611 46.5825 37.9678 46.5698 37.9769C46.5498 37.9912 46.5217 38.0114 46.5001 38.0294L46.4942 38.0353L46.4883 38.0411C46.4883 38.047 46.4825 38.047 46.4825 38.047L46.4766 38.0529C46.459 38.0647 46.4472 38.0764 46.4413 38.0823C46.1886 38.2882 45.9418 38.5 45.7068 38.7236C45.2778 39.1354 44.8899 39.5708 44.5138 40.0297L44.5079 40.0356C44.5079 40.0356 44.502 40.0356 44.502 40.0415L44.3963 40.1827C44.3081 40.3062 44.2258 40.4239 44.1436 40.5474C43.9614 40.8181 43.791 41.0946 43.6323 41.377C43.456 41.6888 43.2915 42.0065 43.1446 42.3301C43.121 42.3771 43.1034 42.4183 43.0858 42.4595C43.0828 42.4683 43.0637 42.5154 43.0446 42.5624C43.0255 42.6095 43.0064 42.6566 43.0035 42.6654C42.933 42.8537 42.8625 43.0419 42.7978 43.2361C42.6862 43.5655 42.5863 43.9068 42.504 44.248L42.504 44.2481C42.4628 44.4305 42.4217 44.6128 42.3865 44.7952C42.3777 44.851 42.3674 44.9069 42.3571 44.9628C42.3468 45.0187 42.3365 45.0746 42.3277 45.1305C42.3218 45.1717 42.2983 45.3129 42.2924 45.3482V45.3541C42.2102 46.0483 42.1867 46.7484 42.2219 47.4485C42.2242 47.5004 42.227 47.552 42.2301 47.6035H33.8731C33.0452 47.6035 32.374 46.9323 32.374 46.1044V26.6165C32.374 25.7886 33.0452 25.1174 33.8731 25.1174H39.7401V31.3205C39.7401 31.8969 40.3467 32.2718 40.8623 32.014L43.617 30.6366L46.3718 32.014C46.8873 32.2718 47.4939 31.8969 47.4939 31.3205V25.1174H53.361C54.1889 25.1174 54.8601 25.7886 54.8601 26.6165V35.8109Z" fill="#FABFAB"/>
<path fill-rule="evenodd" clip-rule="evenodd" d="M41.2915 25.1174H45.9438V30.0659L43.9644 29.0762C43.7461 28.967 43.4892 28.967 43.2709 29.0762L41.2915 30.0659V25.1174Z" fill="#FABFAB"/>
</g>
<defs>
<filter id="filter0_d_134_42448" x="0.870117" y="0" width="88.5957" height="88.5957" filterUnits="userSpaceOnUse" color-interpolation-filters="sRGB">
<feFlood flood-opacity="0" result="BackgroundImageFix"/>
<feColorMatrix in="SourceAlpha" type="matrix" values="0 0 0 0 0 0 0 0 0 0 0 0 0 0 0 0 0 0 127 0" result="hardAlpha"/>
<feOffset dy="8"/>
<feGaussianBlur stdDeviation="7.5"/>
<feComposite in2="hardAlpha" operator="out"/>
<feColorMatrix type="matrix" values="0 0 0 0 0.709804 0 0 0 0 0.12549 0 0 0 0 0.184314 0 0 0 0.12 0"/>
<feBlend mode="normal" in2="BackgroundImageFix" result="effect1_dropShadow_134_42448"/>
<feBlend mode="normal" in="SourceGraphic" in2="effect1_dropShadow_134_42448" result="shape"/>
</filter>
</defs>
</svg>
