<svg width="22" height="23" viewBox="0 0 22 23" fill="none" xmlns="http://www.w3.org/2000/svg">
<g clip-path="url(#clip0_1217_5194)">
<path d="M15.2918 13.9857L16.9327 12.3448C17.3288 11.9487 17.1657 11.272 16.6318 11.1004L15.6523 10.7856V7.50195C15.6523 7.08774 15.3166 6.75195 14.9023 6.75195H13.4023V5.81445C13.4023 5.50379 13.1505 5.25195 12.8398 5.25195H9.46484C9.15418 5.25195 8.90234 5.50379 8.90234 5.81445V6.75195H7.40234C6.98813 6.75195 6.65234 7.08774 6.65234 7.50195V10.7856L5.67284 11.1004C5.13957 11.2718 4.97548 11.9482 5.372 12.3448L7.01291 13.9857C6.60144 15.0087 5.65829 15.752 4.21484 15.752C3.90418 15.752 3.65234 16.0038 3.65234 16.3145V16.6895C3.65234 17.0001 3.90418 17.252 4.21484 17.252C5.64507 17.252 6.73435 16.7689 7.57245 15.8599C7.9104 16.6761 8.71534 17.252 9.65234 17.252H12.6523C13.5894 17.252 14.3943 16.6761 14.7322 15.8599C15.5702 16.7688 16.6594 17.252 18.0898 17.252C18.4005 17.252 18.6523 17.0001 18.6523 16.6895V16.3145C18.6523 16.0038 18.4005 15.752 18.0898 15.752C16.6644 15.752 15.71 15.0254 15.2918 13.9857ZM8.15234 8.25195H14.1523V10.3035L11.3818 9.41295C11.2326 9.36498 11.0721 9.36498 10.9228 9.41295L8.15234 10.3035V8.25195Z" fill="white"/>
</g>
<defs>
<clipPath id="clip0_1217_5194">
<rect width="15" height="12" fill="white" transform="translate(3.65234 5.25195)"/>
</clipPath>
</defs>
</svg>
