<svg width="21" height="20" viewBox="0 0 21 20" fill="none" xmlns="http://www.w3.org/2000/svg">
<mask id="path-1-inside-1_3850_102937" fill="white">
<path d="M8.00689 2.74414C7.70638 2.74414 7.46277 2.98776 7.46277 3.28827V4.92064H5.83039C5.52988 4.92064 5.28627 5.16426 5.28627 5.46477V8.92141L4.22666 9.30941C4.08366 9.36172 3.96914 9.47163 3.91094 9.61238C3.85274 9.75305 3.85617 9.91172 3.9204 10.0499L5.614 13.6904C5.73408 13.6508 5.86153 13.6287 5.99297 13.6268C6.5565 13.6184 7.05755 13.9825 7.22431 14.5199C7.22525 14.5226 7.22755 14.5295 7.23127 14.5396C7.24005 14.5638 7.25614 14.6054 7.28009 14.6587C7.32953 14.7685 7.40401 14.9086 7.50357 15.0414C7.70349 15.3079 7.91277 15.4404 8.18827 15.4404C8.46362 15.4404 8.67255 15.3081 8.87214 15.0417C8.97159 14.909 9.04595 14.769 9.09529 14.6592C9.11923 14.606 9.13526 14.5643 9.14404 14.5403C9.14774 14.53 9.15006 14.5233 9.15093 14.5205C9.31526 13.99 9.8057 13.6274 10.3619 13.6266C10.9182 13.6258 11.4096 13.9872 11.5754 14.5172C11.5763 14.5199 11.5787 14.5268 11.5825 14.5372C11.5914 14.5614 11.6076 14.6032 11.6318 14.6566C11.6815 14.7668 11.7565 14.9072 11.8565 15.0404C12.0579 15.3084 12.2678 15.4404 12.5413 15.4404C12.8146 15.4404 13.0241 15.3086 13.2251 15.0408C13.3251 14.9077 13.3999 14.7673 13.4497 14.6572C13.4737 14.6038 13.4899 14.562 13.4988 14.5379C13.5026 14.5276 13.5049 14.5207 13.5058 14.5179C13.6736 13.9803 14.176 13.617 14.74 13.6269C14.8903 13.6295 15.0353 13.6584 15.17 13.7098L16.9604 10.0599C17.0286 9.92079 17.0343 9.75907 16.976 9.61542C16.9176 9.47185 16.8007 9.3599 16.6547 9.30781L15.4433 8.87563V5.46477C15.4433 5.16426 15.1996 4.92064 14.8991 4.92064H13.2668V3.28827C13.2668 2.98776 13.0231 2.74414 12.7226 2.74414H8.00689ZM12.1785 4.92064H8.55102V3.83239H12.1785V4.92064ZM14.355 6.00889V8.48731L11.1651 8.57695C10.6463 8.39187 10.0791 8.39421 9.56193 8.58359L6.37452 8.5229V6.00889H14.355Z"/>
</mask>
<path d="M8.00689 2.74414C7.70638 2.74414 7.46277 2.98776 7.46277 3.28827V4.92064H5.83039C5.52988 4.92064 5.28627 5.16426 5.28627 5.46477V8.92141L4.22666 9.30941C4.08366 9.36172 3.96914 9.47163 3.91094 9.61238C3.85274 9.75305 3.85617 9.91172 3.9204 10.0499L5.614 13.6904C5.73408 13.6508 5.86153 13.6287 5.99297 13.6268C6.5565 13.6184 7.05755 13.9825 7.22431 14.5199C7.22525 14.5226 7.22755 14.5295 7.23127 14.5396C7.24005 14.5638 7.25614 14.6054 7.28009 14.6587C7.32953 14.7685 7.40401 14.9086 7.50357 15.0414C7.70349 15.3079 7.91277 15.4404 8.18827 15.4404C8.46362 15.4404 8.67255 15.3081 8.87214 15.0417C8.97159 14.909 9.04595 14.769 9.09529 14.6592C9.11923 14.606 9.13526 14.5643 9.14404 14.5403C9.14774 14.53 9.15006 14.5233 9.15093 14.5205C9.31526 13.99 9.8057 13.6274 10.3619 13.6266C10.9182 13.6258 11.4096 13.9872 11.5754 14.5172C11.5763 14.5199 11.5787 14.5268 11.5825 14.5372C11.5914 14.5614 11.6076 14.6032 11.6318 14.6566C11.6815 14.7668 11.7565 14.9072 11.8565 15.0404C12.0579 15.3084 12.2678 15.4404 12.5413 15.4404C12.8146 15.4404 13.0241 15.3086 13.2251 15.0408C13.3251 14.9077 13.3999 14.7673 13.4497 14.6572C13.4737 14.6038 13.4899 14.562 13.4988 14.5379C13.5026 14.5276 13.5049 14.5207 13.5058 14.5179C13.6736 13.9803 14.176 13.617 14.74 13.6269C14.8903 13.6295 15.0353 13.6584 15.17 13.7098L16.9604 10.0599C17.0286 9.92079 17.0343 9.75907 16.976 9.61542C16.9176 9.47185 16.8007 9.3599 16.6547 9.30781L15.4433 8.87563V5.46477C15.4433 5.16426 15.1996 4.92064 14.8991 4.92064H13.2668V3.28827C13.2668 2.98776 13.0231 2.74414 12.7226 2.74414H8.00689ZM12.1785 4.92064H8.55102V3.83239H12.1785V4.92064ZM14.355 6.00889V8.48731L11.1651 8.57695C10.6463 8.39187 10.0791 8.39421 9.56193 8.58359L6.37452 8.5229V6.00889H14.355Z" fill="#E7EAF0" stroke="#94A2B2" stroke-width="2" mask="url(#path-1-inside-1_3850_102937)"/>
<mask id="path-2-inside-2_3850_102937" fill="white">
<path d="M15.2446 14.7623L15.2428 14.756C15.1797 14.5221 14.9693 14.3579 14.7269 14.3536C14.4839 14.3493 14.2676 14.5068 14.1969 14.7391L14.1966 14.74L14.1944 14.7467C14.1916 14.755 14.1867 14.7692 14.1797 14.7886C14.1656 14.8273 14.1427 14.8857 14.1105 14.9571C14.0453 15.1014 13.945 15.2912 13.8049 15.4778C13.5241 15.8517 13.1235 16.1673 12.5409 16.1673C11.9582 16.1673 11.5572 15.8516 11.2762 15.4776C11.1359 15.291 11.0355 15.1012 10.9703 14.9569C10.938 14.8855 10.9152 14.8271 10.901 14.7883C10.8938 14.769 10.889 14.7547 10.8862 14.7464L10.884 14.7396C10.884 14.7396 10.8839 14.7394 10.884 14.7396C10.8142 14.5102 10.6023 14.3532 10.3626 14.3535C10.1229 14.3539 9.91159 14.511 9.84238 14.7404L9.84216 14.7412L9.83998 14.7478C9.8373 14.7561 9.83244 14.7703 9.8254 14.7896C9.8114 14.8283 9.78876 14.8866 9.75662 14.958C9.69184 15.1022 9.59201 15.2918 9.45235 15.4782C9.1726 15.8515 8.77228 16.1673 8.18787 16.1673C7.60341 16.1673 7.20279 15.8514 6.92278 15.4781C6.78294 15.2916 6.68301 15.102 6.6181 14.9578C6.58597 14.8863 6.56329 14.828 6.5492 14.7893C6.54218 14.77 6.53735 14.7558 6.5346 14.7475L6.53194 14.7393C6.4614 14.5074 6.24586 14.35 6.00332 14.3536C5.76105 14.3572 5.55047 14.5205 5.48656 14.754L5.48463 14.7605C5.48237 14.768 5.47821 14.7813 5.47194 14.7996C5.45937 14.8364 5.43859 14.8927 5.40813 14.9619C5.34664 15.1017 5.24911 15.2864 5.10615 15.4688C4.82742 15.8243 4.38367 16.1673 3.6535 16.1673C3.35299 16.1673 3.10938 16.4109 3.10938 16.7114C3.10938 17.0119 3.35299 17.2555 3.6535 17.2555C4.79512 17.2555 5.53031 16.6916 5.96257 16.1402C5.9794 16.1188 5.99578 16.0973 6.01172 16.0759C6.02491 16.0943 6.0384 16.1126 6.05218 16.131C6.45233 16.6645 7.13996 17.2555 8.18787 17.2555C9.23586 17.2555 9.92327 16.6645 10.3232 16.1309C10.3372 16.1121 10.351 16.0933 10.3644 16.0746C10.378 16.0935 10.3919 16.1125 10.4062 16.1314C10.8067 16.6643 11.4944 17.2555 12.5409 17.2555C13.5873 17.2555 14.2749 16.6642 14.6752 16.1313C14.6887 16.1131 14.7021 16.095 14.7151 16.0769C14.7307 16.0978 14.7466 16.1187 14.763 16.1397C15.195 16.6921 15.9306 17.2555 17.0752 17.2555C17.3758 17.2555 17.6194 17.0119 17.6194 16.7114C17.6194 16.4109 17.3758 16.1673 17.0752 16.1673C16.3409 16.1673 15.8975 15.8238 15.6203 15.4693C15.4779 15.2873 15.3811 15.1028 15.3202 14.9633C15.29 14.8942 15.2695 14.838 15.2571 14.8014C15.2509 14.7831 15.2468 14.7698 15.2446 14.7623Z"/>
</mask>
<path d="M15.2446 14.7623L15.2428 14.756C15.1797 14.5221 14.9693 14.3579 14.7269 14.3536C14.4839 14.3493 14.2676 14.5068 14.1969 14.7391L14.1966 14.74L14.1944 14.7467C14.1916 14.755 14.1867 14.7692 14.1797 14.7886C14.1656 14.8273 14.1427 14.8857 14.1105 14.9571C14.0453 15.1014 13.945 15.2912 13.8049 15.4778C13.5241 15.8517 13.1235 16.1673 12.5409 16.1673C11.9582 16.1673 11.5572 15.8516 11.2762 15.4776C11.1359 15.291 11.0355 15.1012 10.9703 14.9569C10.938 14.8855 10.9152 14.8271 10.901 14.7883C10.8938 14.769 10.889 14.7547 10.8862 14.7464L10.884 14.7396C10.884 14.7396 10.8839 14.7394 10.884 14.7396C10.8142 14.5102 10.6023 14.3532 10.3626 14.3535C10.1229 14.3539 9.91159 14.511 9.84238 14.7404L9.84216 14.7412L9.83998 14.7478C9.8373 14.7561 9.83244 14.7703 9.8254 14.7896C9.8114 14.8283 9.78876 14.8866 9.75662 14.958C9.69184 15.1022 9.59201 15.2918 9.45235 15.4782C9.1726 15.8515 8.77228 16.1673 8.18787 16.1673C7.60341 16.1673 7.20279 15.8514 6.92278 15.4781C6.78294 15.2916 6.68301 15.102 6.6181 14.9578C6.58597 14.8863 6.56329 14.828 6.5492 14.7893C6.54218 14.77 6.53735 14.7558 6.5346 14.7475L6.53194 14.7393C6.4614 14.5074 6.24586 14.35 6.00332 14.3536C5.76105 14.3572 5.55047 14.5205 5.48656 14.754L5.48463 14.7605C5.48237 14.768 5.47821 14.7813 5.47194 14.7996C5.45937 14.8364 5.43859 14.8927 5.40813 14.9619C5.34664 15.1017 5.24911 15.2864 5.10615 15.4688C4.82742 15.8243 4.38367 16.1673 3.6535 16.1673C3.35299 16.1673 3.10938 16.4109 3.10938 16.7114C3.10938 17.0119 3.35299 17.2555 3.6535 17.2555C4.79512 17.2555 5.53031 16.6916 5.96257 16.1402C5.9794 16.1188 5.99578 16.0973 6.01172 16.0759C6.02491 16.0943 6.0384 16.1126 6.05218 16.131C6.45233 16.6645 7.13996 17.2555 8.18787 17.2555C9.23586 17.2555 9.92327 16.6645 10.3232 16.1309C10.3372 16.1121 10.351 16.0933 10.3644 16.0746C10.378 16.0935 10.3919 16.1125 10.4062 16.1314C10.8067 16.6643 11.4944 17.2555 12.5409 17.2555C13.5873 17.2555 14.2749 16.6642 14.6752 16.1313C14.6887 16.1131 14.7021 16.095 14.7151 16.0769C14.7307 16.0978 14.7466 16.1187 14.763 16.1397C15.195 16.6921 15.9306 17.2555 17.0752 17.2555C17.3758 17.2555 17.6194 17.0119 17.6194 16.7114C17.6194 16.4109 17.3758 16.1673 17.0752 16.1673C16.3409 16.1673 15.8975 15.8238 15.6203 15.4693C15.4779 15.2873 15.3811 15.1028 15.3202 14.9633C15.29 14.8942 15.2695 14.838 15.2571 14.8014C15.2509 14.7831 15.2468 14.7698 15.2446 14.7623Z" fill="#E7EAF0"/>
<path d="M15.2446 14.7623L14.2834 15.0386L14.287 15.0505L15.2446 14.7623ZM15.2428 14.756L14.2773 15.0166L14.2794 15.0244L14.2817 15.0323L15.2428 14.756ZM14.7269 14.3536L14.7445 13.3538L14.7445 13.3538L14.7269 14.3536ZM14.1969 14.7391L15.1525 15.0337L15.1535 15.0304L14.1969 14.7391ZM14.1966 14.74L15.1443 15.0592L15.1484 15.047L15.1522 15.0347L14.1966 14.74ZM14.1944 14.7467L13.2467 14.4274L13.2449 14.4329L14.1944 14.7467ZM14.1797 14.7886L15.1188 15.1322L15.1196 15.1301L14.1797 14.7886ZM14.1105 14.9571L15.0217 15.369L15.0222 15.3681L14.1105 14.9571ZM13.8049 15.4778L13.0053 14.8772L13.0052 14.8773L13.8049 15.4778ZM11.2762 15.4776L12.0756 14.8768L12.0756 14.8768L11.2762 15.4776ZM10.9703 14.9569L11.8816 14.5451L11.8813 14.5444L10.9703 14.9569ZM10.901 14.7883L11.8397 14.4438L11.8393 14.4426L10.901 14.7883ZM10.8862 14.7464L9.93656 15.0596L9.93672 15.0601L10.8862 14.7464ZM10.3626 14.3535L10.361 13.3535H10.361L10.3626 14.3535ZM9.84238 14.7404L8.885 14.4516L8.8847 14.4526L9.84238 14.7404ZM9.84216 14.7412L10.7919 15.0543L10.796 15.0417L10.7998 15.029L9.84216 14.7412ZM9.83998 14.7478L8.89025 14.4346L8.88804 14.4415L9.83998 14.7478ZM9.8254 14.7896L8.88591 14.447L8.88514 14.4492L9.8254 14.7896ZM9.75662 14.958L8.84477 14.5475L8.84443 14.5483L9.75662 14.958ZM9.45235 15.4782L10.2526 16.0779L10.2526 16.0778L9.45235 15.4782ZM6.92278 15.4781L7.72278 14.8781L6.92278 15.4781ZM6.6181 14.9578L5.70606 15.3679L5.7062 15.3682L6.6181 14.9578ZM6.5492 14.7893L5.60949 15.1313L5.60963 15.1317L6.5492 14.7893ZM6.5346 14.7475L5.58326 15.0556L5.58485 15.0605L6.5346 14.7475ZM6.53194 14.7393L5.57524 15.0303L5.57785 15.0389L5.58061 15.0474L6.53194 14.7393ZM6.00332 14.3536L6.01799 15.3535L6.01828 15.3535L6.00332 14.3536ZM5.48656 14.754L6.44528 15.0384L6.4483 15.0282L6.4511 15.018L5.48656 14.754ZM5.48463 14.7605L6.44195 15.0496L6.44334 15.0449L5.48463 14.7605ZM5.47194 14.7996L6.41824 15.1229L6.41828 15.1228L5.47194 14.7996ZM5.40813 14.9619L4.49283 14.5592L4.49282 14.5592L5.40813 14.9619ZM5.10615 15.4688L5.8931 16.0859L5.89319 16.0857L5.10615 15.4688ZM5.96257 16.1402L5.1764 15.5222L5.17558 15.5232L5.96257 16.1402ZM6.01172 16.0759L6.82365 15.4922L6.02593 14.3827L5.2097 15.4786L6.01172 16.0759ZM6.05218 16.131L6.85218 15.531L6.8518 15.5305L6.05218 16.131ZM10.3232 16.1309L11.1234 16.7306L11.1235 16.7304L10.3232 16.1309ZM10.3644 16.0746L11.1763 15.4907L10.3654 14.3633L9.55327 15.4898L10.3644 16.0746ZM10.4062 16.1314L11.2057 15.5307L11.2044 15.529L10.4062 16.1314ZM14.6751 16.1313L15.4748 16.7318L15.4771 16.7287L14.6751 16.1313ZM14.7151 16.0769L15.5178 15.4805L14.7024 14.3831L13.9036 15.4926L14.7151 16.0769ZM14.763 16.1397L15.5508 15.5237L15.5507 15.5237L14.763 16.1397ZM15.6203 15.4693L16.4081 14.8533L16.4079 14.8531L15.6203 15.4693ZM15.3202 14.9633L16.2366 14.563L16.2365 14.5629L15.3202 14.9633ZM15.2571 14.8014L14.3095 15.121L14.3099 15.1221L15.2571 14.8014ZM16.2057 14.4861L16.2039 14.4798L14.2817 15.0323L14.2835 15.0386L16.2057 14.4861ZM16.2082 14.4955C16.0292 13.8319 15.4326 13.3659 14.7445 13.3538L14.7092 15.3534C14.506 15.3499 14.3302 15.2124 14.2773 15.0166L16.2082 14.4955ZM14.7445 13.3538C14.0548 13.3416 13.441 13.7885 13.2403 14.4478L15.1535 15.0304C15.0942 15.2251 14.9131 15.357 14.7093 15.3534L14.7445 13.3538ZM13.2413 14.4444L13.241 14.4453L15.1522 15.0347L15.1525 15.0337L13.2413 14.4444ZM13.2489 14.4208L13.2467 14.4274L15.142 15.0659L15.1443 15.0592L13.2489 14.4208ZM13.2449 14.4329C13.2455 14.4311 13.2438 14.4361 13.2398 14.4472L15.1196 15.1301C15.1297 15.1024 15.1378 15.0789 15.1439 15.0604L13.2449 14.4329ZM13.2406 14.445C13.234 14.4631 13.2202 14.4989 13.1988 14.5462L15.0222 15.3681C15.0652 15.2725 15.0971 15.1915 15.1188 15.1322L13.2406 14.445ZM13.1993 14.5453C13.1552 14.6428 13.0899 14.7646 13.0053 14.8772L14.6045 16.0783C14.8001 15.8179 14.9354 15.5601 15.0217 15.369L13.1993 14.5453ZM13.0052 14.8773C12.9185 14.9928 12.8385 15.0648 12.7692 15.1067C12.7087 15.1432 12.6404 15.1673 12.5409 15.1673V17.1673C13.5474 17.1673 14.212 16.6011 14.6046 16.0782L13.0052 14.8773ZM12.5409 15.1673C12.4413 15.1673 12.3729 15.1432 12.3122 15.1065C12.2427 15.0646 12.1625 14.9925 12.0756 14.8768L10.4768 16.0784C10.8696 16.6011 11.5344 17.1673 12.5409 17.1673V15.1673ZM12.0756 14.8768C11.9907 14.7639 11.9254 14.6421 11.8816 14.5451L10.0591 15.3688C10.1456 15.5603 10.2811 15.8181 10.4768 16.0784L12.0756 14.8768ZM11.8813 14.5444C11.8606 14.4987 11.8469 14.4633 11.8397 14.4438L9.96219 15.1329C9.98345 15.1908 10.0154 15.2723 10.0593 15.3694L11.8813 14.5444ZM11.8393 14.4426C11.8365 14.4349 11.8353 14.4313 11.8357 14.4326L9.93672 15.0601C9.94266 15.0781 9.95123 15.1031 9.96261 15.134L11.8393 14.4426ZM11.8359 14.4331L11.8336 14.4263L9.93431 15.0528L9.93656 15.0596L11.8359 14.4331ZM11.7784 14.2924C11.7735 14.2825 11.7585 14.2527 11.7361 14.2163C11.7263 14.2003 11.701 14.1597 11.6628 14.1123C11.644 14.089 11.6076 14.0458 11.5551 13.9982C11.5281 13.9737 11.4883 13.9404 11.4364 13.906C11.3864 13.8728 11.3066 13.8263 11.2002 13.7908C11.0926 13.755 10.9331 13.7224 10.743 13.7495C10.5416 13.7782 10.3598 13.8665 10.2168 13.9946C10.083 14.1144 10.0087 14.2454 9.96799 14.3382C9.92715 14.4314 9.90833 14.5132 9.89885 14.5675C9.88057 14.6722 9.88336 14.7563 9.88545 14.7943C9.88791 14.8393 9.89299 14.8757 9.8967 14.8988C9.90941 14.9775 9.92897 15.0369 9.93527 15.0558C9.94488 15.0846 9.95661 15.1154 9.97095 15.1475C9.97831 15.164 9.98861 15.1858 10.0021 15.211C10.0142 15.2336 10.0367 15.2739 10.0702 15.3208C10.0874 15.3448 10.1133 15.3789 10.1482 15.4168C10.1809 15.4523 10.2383 15.5097 10.321 15.5661C10.3996 15.6196 10.5491 15.7052 10.7584 15.7317C10.8676 15.7455 10.9894 15.7425 11.1162 15.7123C11.2434 15.6819 11.3568 15.6285 11.4532 15.5618C11.6395 15.4328 11.736 15.2735 11.7821 15.1793C11.8299 15.0817 11.8517 14.9965 11.8623 14.9467C11.883 14.8488 11.884 14.7701 11.884 14.7396H9.88398C9.88398 14.7091 9.88493 14.6304 9.90566 14.5325C9.91621 14.4826 9.93805 14.3975 9.98585 14.2998C10.032 14.2056 10.1285 14.0464 10.3148 13.9174C10.4111 13.8507 10.5246 13.7973 10.6518 13.7669C10.7785 13.7367 10.9003 13.7337 11.0095 13.7475C11.2188 13.774 11.3684 13.8596 11.4469 13.9131C11.5297 13.9695 11.5871 14.0269 11.6197 14.0623C11.6546 14.1003 11.6806 14.1343 11.6977 14.1583C11.7312 14.2052 11.7538 14.2455 11.7659 14.2681C11.7793 14.2933 11.7896 14.3152 11.797 14.3316C11.8113 14.3637 11.823 14.3945 11.8326 14.4233C11.8389 14.4422 11.8585 14.5015 11.8712 14.5803C11.8749 14.6033 11.88 14.6397 11.8824 14.6848C11.8845 14.7227 11.8873 14.8068 11.869 14.9115C11.8596 14.9658 11.8407 15.0476 11.7999 15.1408C11.7592 15.2336 11.6849 15.3646 11.5511 15.4844C11.4081 15.6125 11.2263 15.7009 11.0249 15.7295C10.8348 15.7566 10.6753 15.7241 10.5677 15.6882C10.4613 15.6527 10.3815 15.6062 10.3315 15.5731C10.2796 15.5387 10.2398 15.5053 10.2128 15.4808C10.1603 15.4333 10.1239 15.3901 10.1051 15.3667C10.0669 15.3193 10.0416 15.2788 10.0318 15.2628C10.0094 15.2264 9.99444 15.1966 9.98955 15.1868L11.7784 14.2924ZM11.8407 14.4484C11.6428 13.7984 11.0425 13.3525 10.361 13.3535L10.3641 15.3535C10.1622 15.3538 9.98554 15.2221 9.9273 15.0307L11.8407 14.4484ZM10.361 13.3535C9.68108 13.3546 9.0815 13.8003 8.885 14.4516L10.7998 15.0293C10.7417 15.2218 10.5646 15.3532 10.3641 15.3535L10.361 13.3535ZM8.8847 14.4526L8.88448 14.4533L10.7998 15.029L10.8001 15.0283L8.8847 14.4526ZM8.89245 14.428L8.89027 14.4346L10.7897 15.0609L10.7919 15.0543L8.89245 14.428ZM8.88804 14.4415C8.88957 14.4367 8.89019 14.435 8.88949 14.437C8.88895 14.4386 8.88777 14.442 8.88592 14.447L10.7649 15.1322C10.7747 15.1053 10.7841 15.0783 10.7919 15.054L8.88804 14.4415ZM8.88514 14.4492C8.87881 14.4666 8.86552 14.5014 8.84477 14.5475L10.6685 15.3685C10.712 15.2718 10.744 15.1899 10.7657 15.1301L8.88514 14.4492ZM8.84443 14.5483C8.80101 14.6449 8.73627 14.7662 8.65209 14.8785L10.2526 16.0778C10.4477 15.8174 10.5827 15.5596 10.6688 15.3678L8.84443 14.5483ZM8.65214 14.8785C8.56602 14.9934 8.48655 15.065 8.41759 15.1066C8.35743 15.1429 8.28881 15.1673 8.18787 15.1673V17.1673C9.19583 17.1673 9.86036 16.6012 10.2526 16.0779L8.65214 14.8785ZM8.18787 15.1673C8.08692 15.1673 8.01816 15.1429 7.9578 15.1065C7.88864 15.0647 7.80902 14.993 7.72278 14.8781L6.12278 16.0781C6.51519 16.6013 7.17996 17.1673 8.18787 17.1673V15.1673ZM7.72278 14.8781C7.63845 14.7656 7.5736 14.6443 7.53001 14.5474L5.7062 15.3682C5.79243 15.5598 5.92744 15.8176 6.12278 16.0781L7.72278 14.8781ZM7.53015 14.5477C7.50918 14.5011 7.49555 14.4656 7.48878 14.447L5.60963 15.1317C5.63103 15.1904 5.66276 15.2716 5.70606 15.3679L7.53015 14.5477ZM7.48891 14.4474C7.48542 14.4378 7.48393 14.4332 7.48435 14.4345L5.58485 15.0605C5.59076 15.0784 5.59894 15.1023 5.60949 15.1313L7.48891 14.4474ZM7.48593 14.4393L7.48327 14.4311L5.58061 15.0474L5.58327 15.0556L7.48593 14.4393ZM7.48865 14.4482C7.28849 13.7903 6.67692 13.3434 5.98837 13.3537L6.01828 15.3535C5.8148 15.3565 5.63432 15.2245 5.57524 15.0303L7.48865 14.4482ZM5.98865 13.3537C5.30097 13.3638 4.70337 13.8274 4.52203 14.4901L6.4511 15.018C6.39757 15.2136 6.22113 15.3505 6.01799 15.3535L5.98865 13.3537ZM4.52785 14.4696L4.52591 14.4762L6.44334 15.0449L6.44528 15.0384L4.52785 14.4696ZM4.52731 14.4715C4.52856 14.4674 4.52806 14.4693 4.5256 14.4765L6.41828 15.1228C6.42835 15.0933 6.43618 15.0687 6.44194 15.0496L4.52731 14.4715ZM4.52563 14.4764C4.5211 14.4896 4.51046 14.5191 4.49283 14.5592L6.32343 15.3647C6.36671 15.2663 6.39764 15.1832 6.41824 15.1229L4.52563 14.4764ZM4.49282 14.5592C4.45584 14.6432 4.3982 14.751 4.3191 14.8519L5.89319 16.0857C6.10001 15.8219 6.23744 15.5601 6.32343 15.3647L4.49282 14.5592ZM4.3192 14.8518C4.24206 14.9502 4.15982 15.0243 4.06778 15.0748C3.98142 15.1223 3.85398 15.1673 3.6535 15.1673V17.1673C4.76021 17.1673 5.47214 16.6228 5.8931 16.0859L4.3192 14.8518ZM3.6535 15.1673C2.8007 15.1673 2.10938 15.8586 2.10938 16.7114H4.10938C4.10938 16.9632 3.90528 17.1673 3.6535 17.1673V15.1673ZM2.10938 16.7114C2.10938 17.5642 2.8007 18.2555 3.6535 18.2555V16.2555C3.90528 16.2555 4.10938 16.4596 4.10938 16.7114H2.10938ZM3.6535 18.2555C5.17415 18.2555 6.17695 17.4876 6.74956 16.7572L5.17558 15.5232C4.88368 15.8956 4.41608 16.2555 3.6535 16.2555V18.2555ZM6.74874 16.7582C6.77149 16.7293 6.79317 16.7009 6.81373 16.6732L5.2097 15.4786C5.19839 15.4938 5.1873 15.5083 5.1764 15.5222L6.74874 16.7582ZM5.19979 16.6597C5.21703 16.6837 5.23462 16.7076 5.25256 16.7315L6.8518 15.5305C6.84218 15.5177 6.83279 15.5049 6.82365 15.4922L5.19979 16.6597ZM5.25218 16.731C5.76154 17.4102 6.71268 18.2555 8.18787 18.2555V16.2555C7.56725 16.2555 7.14312 15.9189 6.85218 15.531L5.25218 16.731ZM8.18787 18.2555C9.66325 18.2555 10.6142 17.41 11.1234 16.7306L9.52294 15.5312C9.23231 15.919 8.80847 16.2555 8.18787 16.2555V18.2555ZM11.1235 16.7304C11.1418 16.706 11.1592 16.6823 11.1756 16.6594L9.55327 15.4898C9.54274 15.5044 9.53267 15.5182 9.5228 15.5314L11.1235 16.7304ZM9.55262 16.6585C9.56964 16.6822 9.5882 16.7076 9.60808 16.7339L11.2044 15.529C11.1957 15.5175 11.1864 15.5048 11.1763 15.4907L9.55262 16.6585ZM9.60682 16.7322C10.1158 17.4095 11.0668 18.2555 12.5409 18.2555V16.2555C11.922 16.2555 11.4976 15.9191 11.2056 15.5307L9.60682 16.7322ZM12.5409 18.2555C14.0151 18.2555 14.9659 17.4094 15.4748 16.7318L13.8755 15.5308C13.5839 15.9191 13.1596 16.2555 12.5409 16.2555V18.2555ZM15.4771 16.7287C15.4919 16.7088 15.509 16.6858 15.5267 16.6612L13.9036 15.4926C13.8952 15.5043 13.8855 15.5174 13.8732 15.5339L15.4771 16.7287ZM13.9125 16.6733C13.9327 16.7005 13.9536 16.728 13.9753 16.7557L15.5507 15.5237C15.5396 15.5095 15.5286 15.4951 15.5178 15.4805L13.9125 16.6733ZM13.9753 16.7557C14.5487 17.4891 15.5525 18.2555 17.0752 18.2555V16.2555C16.3086 16.2555 15.8412 15.8951 15.5508 15.5237L13.9753 16.7557ZM17.0752 18.2555C17.928 18.2555 18.6194 17.5642 18.6194 16.7114H16.6194C16.6194 16.4596 16.8235 16.2555 17.0752 16.2555V18.2555ZM18.6194 16.7114C18.6194 15.8586 17.928 15.1673 17.0752 15.1673V17.1673C16.8235 17.1673 16.6194 16.9632 16.6194 16.7114H18.6194ZM17.0752 15.1673C16.8719 15.1673 16.7435 15.1218 16.6573 15.0745C16.5656 15.0242 16.4842 14.9507 16.4081 14.8533L14.8326 16.0854C15.2531 16.6231 15.9653 17.1673 17.0752 17.1673V15.1673ZM16.4079 14.8531C16.3299 14.7534 16.2731 14.6466 16.2366 14.563L14.4038 15.3636C14.4892 15.559 14.6259 15.8212 14.8327 16.0855L16.4079 14.8531ZM16.2365 14.5629C16.2193 14.5236 16.2089 14.4943 16.2042 14.4807L14.3099 15.1221C14.3301 15.1817 14.3607 15.2649 14.4039 15.3637L16.2365 14.5629ZM16.2046 14.4818C16.2037 14.4791 16.2031 14.4773 16.2028 14.4763C16.2026 14.4754 16.2024 14.4749 16.2022 14.4741L14.287 15.0505C14.2914 15.065 14.2988 15.0893 14.3095 15.121L16.2046 14.4818Z" fill="#94A2B2" mask="url(#path-2-inside-2_3850_102937)"/>
</svg>
