<svg width="36" height="32" viewBox="0 0 36 32" fill="none" xmlns="http://www.w3.org/2000/svg">
<rect x="0.5" y="0.5" width="34.23" height="31" rx="3.5" fill="white"/>
<rect x="0.5" y="0.5" width="34.23" height="31" rx="3.5" stroke="#E7EAF0"/>
<path d="M14.9228 10.1154C14.9228 9.96305 14.9439 9.81564 14.9833 9.67592C15.1747 8.99734 15.7983 8.5 16.5382 8.5H18.692C19.4318 8.5 20.0555 8.99734 20.2469 9.67592C20.2863 9.81564 20.3074 9.96305 20.3074 10.1154C20.3074 10.4128 20.0663 10.6538 19.7689 10.6538H15.4612C15.1639 10.6538 14.9228 10.4128 14.9228 10.1154Z" fill="#181E25"/>
<path d="M20.2469 9.67592C20.0555 8.99734 19.4318 8.5 18.692 8.5H16.5382C15.7983 8.5 15.1747 8.99734 14.9833 9.67592M20.2469 9.67592C20.2863 9.81564 20.3074 9.96305 20.3074 10.1154V10.1154C20.3074 10.4128 20.0663 10.6538 19.7689 10.6538H15.4612C15.1639 10.6538 14.9228 10.4128 14.9228 10.1154V10.1154C14.9228 9.96305 14.9439 9.81564 14.9833 9.67592M20.2469 9.67592C20.7108 9.71095 21.1722 9.75517 21.6308 9.8084C22.421 9.9001 22.9997 10.5813 22.9997 11.3768V20.8846C22.9997 21.7768 22.2765 22.5 21.3843 22.5H13.8459C12.9537 22.5 12.2305 21.7768 12.2305 20.8846V11.3768C12.2305 10.5813 12.8092 9.9001 13.5994 9.8084C14.058 9.75517 14.5193 9.71095 14.9833 9.67592" stroke="#181E25" stroke-width="0.769231" stroke-linecap="round" stroke-linejoin="round"/>
<path d="M14.2305 18.5371L21.2305 18.5371" stroke="#181E25" stroke-linecap="round"/>
<path d="M14.2305 16.5741L15.2305 16.5741" stroke="#181E25" stroke-linecap="round"/>
<path d="M14.2305 14.5L15.2305 14.5" stroke="#181E25" stroke-linecap="round"/>
<path d="M14.2305 12.4259L15.2305 12.4259" stroke="#181E25" stroke-linecap="round"/>
<path d="M14.2305 20.5L21.2305 20.5" stroke="#181E25" stroke-linecap="round"/>
<path d="M20.7963 13.9081C20.7963 13.908 20.7963 13.9079 20.7963 13.9078L20.6401 13.9081L20.7963 13.9081Z" fill="#181E25" stroke="#181E25" stroke-width="0.666667"/>
</svg>
