<svg width="36" height="32" viewBox="0 0 36 32" fill="none" xmlns="http://www.w3.org/2000/svg">
<rect width="35.23" height="32" rx="4" fill="#F3F5F7"/>
<path d="M20.2469 9.67592C20.0555 8.99734 19.4318 8.5 18.692 8.5H16.5382C15.7983 8.5 15.1747 8.99734 14.9833 9.67592M20.2469 9.67592C20.2863 9.81564 20.3074 9.96305 20.3074 10.1154V10.1154C20.3074 10.4128 20.0663 10.6538 19.7689 10.6538H15.4612C15.1639 10.6538 14.9228 10.4128 14.9228 10.1154V10.1154C14.9228 9.96305 14.9439 9.81564 14.9833 9.67592M20.2469 9.67592C20.7108 9.71095 21.1722 9.75517 21.6308 9.8084C22.421 9.9001 22.9997 10.5813 22.9997 11.3768V20.8846C22.9997 21.7768 22.2765 22.5 21.3843 22.5H13.8459C12.9537 22.5 12.2305 21.7768 12.2305 20.8846V11.3768C12.2305 10.5813 12.8092 9.9001 13.5994 9.8084C14.058 9.75517 14.5193 9.71095 14.9833 9.67592" stroke="#67788E" stroke-width="0.769231" stroke-linecap="round" stroke-linejoin="round"/>
<path d="M14.2305 18.5371L21.2305 18.5371" stroke="#67788E" stroke-linecap="round"/>
<path d="M14.2305 16.5741L15.2305 16.5741" stroke="#67788E" stroke-linecap="round"/>
<path d="M14.2305 14.5L15.2305 14.5" stroke="#67788E" stroke-linecap="round"/>
<path d="M14.2305 12.4259L15.2305 12.4259" stroke="#67788E" stroke-linecap="round"/>
<path d="M14.2305 20.5L21.2305 20.5" stroke="#67788E" stroke-linecap="round"/>
<path d="M20.4708 15.3421L21.5641 16.4351L21.2029 16.7963L20.1099 15.703C19.7032 16.029 19.1974 16.2064 18.6762 16.2056C17.4081 16.2056 16.3789 15.1764 16.3789 13.9084C16.3789 12.6403 17.4081 11.6111 18.6762 11.6111C19.9443 11.6111 20.9734 12.6403 20.9734 13.9084C20.9742 14.4296 20.7969 14.9354 20.4708 15.3421ZM19.9588 15.1527C20.2828 14.8196 20.4637 14.373 20.4629 13.9084C20.4629 12.9213 19.6632 12.1216 18.6762 12.1216C17.6891 12.1216 16.8894 12.9213 16.8894 13.9084C16.8894 14.8954 17.6891 15.6951 18.6762 15.6951C19.1408 15.6958 19.5874 15.5149 19.9205 15.191L19.9588 15.1527Z" fill="#67788E"/>
</svg>
