<svg width="24" height="24" viewBox="0 0 24 24" fill="none" xmlns="http://www.w3.org/2000/svg">
<path d="M12.5833 5.02396V5.46517C12.5833 5.72485 12.6987 5.97112 12.8982 6.13737L13.7293 6.82998C14.0728 7.11625 14.1452 7.61547 13.8972 7.98754L13.4997 8.58374C13.2839 8.90754 12.9662 9.15015 12.597 9.27321L12.4864 9.31008C11.9477 9.48967 11.7271 10.1324 12.0422 10.6049C12.3295 11.0359 12.1741 11.6213 11.7107 11.853L9.66667 12.875L9.99597 13.6983C10.1396 14.0572 9.98402 14.4663 9.63822 14.6392C9.3169 14.7999 8.92665 14.7078 8.7111 14.4204L8.1828 13.716C7.79253 13.1956 6.99107 13.2679 6.70018 13.8496L6.16667 14.9167L5.6907 15.0357M12.5833 5.02396C12.391 5.00809 12.1964 5 12 5C8.13401 5 5 8.13401 5 12C5 13.0877 5.24806 14.1174 5.6907 15.0357M12.5833 5.02396C16.1764 5.32038 19 8.33045 19 12C19 13.4616 18.552 14.8186 17.7859 15.9411M17.7859 15.9411L17.6489 15.5299C17.4107 14.8153 16.7419 14.3333 15.9887 14.3333H15.5L15.2477 14.081C15.0357 13.8691 14.7483 13.75 14.4485 13.75C14.0204 13.75 13.6291 13.9919 13.4376 14.3748L13.4092 14.4316C13.2547 14.7407 12.9775 14.9707 12.6452 15.0657L11.8761 15.2854C11.4482 15.4076 11.1803 15.8316 11.2534 16.2706L11.3102 16.6111C11.3716 16.9798 11.6906 17.25 12.0644 17.25C12.7227 17.25 13.3071 17.6712 13.5152 18.2957L13.6822 18.7966M17.7859 15.9411C16.8296 17.3424 15.3775 18.3784 13.6822 18.7966M13.6822 18.7966C13.1433 18.9295 12.5799 19 12 19C9.22166 19 6.82137 17.3814 5.6907 15.0357M14.9165 9.66667C14.9165 10.3636 14.611 10.9891 14.1265 11.4167" stroke="#181E25" stroke-linecap="round" stroke-linejoin="round"/>
</svg>
