<svg width="24" height="24" viewBox="0 0 24 24" fill="none" xmlns="http://www.w3.org/2000/svg">
<path d="M11.7256 3.94918L11.7261 3.95457L12.2206 3.94998L12.2186 3.95L12.13 3.95103C12.0867 3.95034 12.0434 3.95 12 3.95L11.9995 3.95L11.8699 3.95131L11.7816 3.95001L11.7256 3.94918ZM15.8291 16.2668L15.8387 16.2402C16.1837 16.3821 16.4693 16.5404 16.6836 16.7077C16.8964 16.8739 17.0354 17.0463 17.0952 17.2172C16.2887 18.005 15.3002 18.6073 14.1987 18.9555C14.8669 18.2951 15.4252 17.3687 15.829 16.267L15.8291 16.2668ZM4.70936 11.8404L4.70984 11.8149C4.70984 11.8148 4.70984 11.8148 4.70984 11.8147C4.75125 10.1539 5.34788 8.63104 6.32116 7.42458C6.32119 7.42454 6.32123 7.42449 6.32126 7.42445L6.33998 7.40158C6.6053 7.93768 7.1388 8.40189 7.85158 8.76511C7.60973 9.70741 7.47112 10.7428 7.45789 11.8285L7.45789 11.8287L7.45778 11.8404H4.70936ZM16.151 8.77573C16.8661 8.41471 17.4032 7.95301 17.674 7.41938L17.7323 7.49165C17.7324 7.49173 17.7324 7.4918 17.7325 7.49188C18.6789 8.69371 19.2555 10.2003 19.2908 11.8404L16.5417 11.8404L16.5402 11.7118L16.5402 11.7113C16.5188 10.6722 16.3826 9.68097 16.151 8.77573ZM15.4018 9.09436L15.4452 9.07832L15.4896 9.2651C15.4896 9.2652 15.4896 9.2653 15.4897 9.2654C15.6695 10.062 15.7737 10.9296 15.7847 11.8404H12.3788L12.379 9.6267C13.4974 9.59252 14.5356 9.40315 15.4013 9.09456L15.4018 9.09436ZM15.9342 8.03456C15.5247 6.80015 14.9272 5.76466 14.1991 5.04496C15.3014 5.39316 16.2906 5.99622 17.0977 6.78515C17.0173 7.23587 16.6027 7.6748 15.9342 8.03456ZM8.06932 8.02468C7.40276 7.66119 6.99335 7.21911 6.92219 6.76588C7.72547 5.98645 8.70753 5.39034 9.80088 5.04496C9.07486 5.76267 8.4786 6.79443 8.06932 8.02468ZM11.6213 19.2088C10.5026 18.8938 9.50652 17.7075 8.88358 16.0092C9.64903 15.7849 10.5905 15.6344 11.6214 15.6026L11.6213 19.2088ZM15.1218 15.9946C14.4994 17.7003 13.501 18.8925 12.3792 19.2087L12.379 15.6014L12.5563 15.6069C12.5563 15.6069 12.5564 15.6069 12.5565 15.6069C13.5171 15.6453 14.396 15.7868 15.1218 15.9946ZM9.80127 18.9552C8.71997 18.6137 7.7475 18.0269 6.9488 17.2597C6.99618 17.0871 7.125 16.9121 7.3307 16.7425C7.53908 16.5707 7.82267 16.4076 8.16886 16.2611C8.57285 17.3654 9.1319 18.2939 9.80127 18.9552ZM6.39722 16.6681C5.4619 15.5468 4.85694 14.1404 4.73173 12.5983H7.46962C7.51448 13.6453 7.67621 14.639 7.93382 15.5393C7.2235 15.8362 6.68292 16.2187 6.39722 16.6681ZM16.0719 15.5179C16.3263 14.6232 16.4859 13.637 16.5304 12.5983H19.2678L19.2562 12.7323C19.2561 12.7324 19.2561 12.7325 19.2561 12.7327C19.1093 14.2043 18.525 15.5472 17.6352 16.629C17.3363 16.1861 16.7874 15.8094 16.0719 15.5179ZM8.2279 12.5982L11.6212 12.5979L11.6215 14.8446C10.5217 14.8755 9.50204 15.0311 8.64995 15.2859C8.41956 14.4681 8.27157 13.5607 8.2279 12.5982ZM15.7604 12.8162C15.7059 13.6916 15.565 14.5184 15.355 15.2701C14.4987 15.0204 13.478 14.8696 12.3791 14.8431L12.3788 12.5979L15.7717 12.5982L15.7604 12.8159C15.7604 12.816 15.7604 12.8161 15.7604 12.8162ZM8.53855 9.14366C8.53857 9.14357 8.53859 9.14348 8.53861 9.14339L8.55662 9.07105C9.42941 9.39144 10.4836 9.58908 11.6215 9.62599L11.6212 11.8404H8.21534C8.22683 10.883 8.34141 9.97326 8.53855 9.14366ZM12.3792 8.86869L12.379 4.79189L12.4189 4.8029C12.4191 4.80295 12.4193 4.80301 12.4195 4.80306C13.5984 5.15823 14.6368 6.48178 15.2393 8.34629C14.4511 8.63925 13.4649 8.83274 12.3792 8.86869ZM11.6213 8.86793C10.5353 8.82975 9.54973 8.63393 8.76362 8.33883L8.77631 8.29944L8.77653 8.29876L8.83077 8.1384C8.83079 8.13834 8.83082 8.13827 8.83084 8.13821C9.4492 6.36165 10.4704 5.11524 11.6214 4.79115L11.6213 8.86793Z" fill="black" stroke="black" stroke-width="0.1"/>
</svg>
