<svg width="46" height="46" viewBox="0 0 46 46" fill="none" xmlns="http://www.w3.org/2000/svg">
<rect x="0.5" y="0.5" width="45" height="45" rx="5.5" fill="#F8FAFC"/>
<rect x="0.5" y="0.5" width="45" height="45" rx="5.5" stroke="#F3F5F7"/>
<path d="M22.0625 35.1875H33.3125V31.9062H22.0625V35.1875Z" fill="#FABFAB"/>
<path d="M22.0625 31.9062H33.3125V28.625H22.0625V31.9062Z" fill="#F1927F"/>
<path d="M22.0625 28.625H33.3125V25.3438H22.0625V28.625Z" fill="#FABFAB"/>
<path d="M22.0625 25.3438H33.3125V22.0625H22.0625V25.3438Z" fill="#F1927F"/>
<path d="M12.6875 35.1875H23.9375V31.9062H12.6875V35.1875Z" fill="#F1927F"/>
<path d="M12.6875 31.9062H23.9375V28.625H12.6875V31.9062Z" fill="#FABFAB"/>
<path d="M27.6875 22.0625C30.7941 22.0625 33.3125 19.5441 33.3125 16.4375C33.3125 13.3309 30.7941 10.8125 27.6875 10.8125C24.5809 10.8125 22.0625 13.3309 22.0625 16.4375C22.0625 19.5441 24.5809 22.0625 27.6875 22.0625Z" fill="#D32D2F"/>
<path d="M27.7741 12.6201L28.7263 15.5505H31.8075L29.3147 17.3616L30.2669 20.292L27.7741 18.4809L25.2814 20.292L26.2335 17.3616L23.7408 15.5505H26.822L27.7741 12.6201Z" fill="white"/>
</svg>
