<svg width="46" height="46" viewBox="0 0 46 46" fill="none" xmlns="http://www.w3.org/2000/svg">
<rect x="0.5" y="0.5" width="45" height="45" rx="5.5" fill="#F8FAFC"/>
<rect x="0.5" y="0.5" width="45" height="45" rx="5.5" stroke="#F3F5F7"/>
<path d="M28.625 25.8123H13.1562V19.0154C13.1562 18.5936 13.4375 18.2186 13.8125 18.1248L27.3594 13.5779C27.9688 13.3904 28.5781 13.8123 28.5781 14.4686V25.8123H28.625Z" fill="#F1927F"/>
<path d="M21.125 22.0625C23.7138 22.0625 25.8125 19.9638 25.8125 17.375C25.8125 14.7862 23.7138 12.6875 21.125 12.6875C18.5362 12.6875 16.4375 14.7862 16.4375 17.375C16.4375 19.9638 18.5362 22.0625 21.125 22.0625Z" fill="#D32D2F"/>
<path d="M21.5918 19.4365V20.2803H21.0293V19.4365C20.373 19.3428 19.9512 19.1553 19.5762 18.7803L20.0918 18.124C20.4668 18.4521 20.8887 18.6396 21.2637 18.6396C21.5918 18.6396 21.7793 18.499 21.7793 18.2178C21.7793 17.9365 21.5918 17.7959 21.0293 17.6553C20.2793 17.4209 19.6699 17.1865 19.6699 16.3428C19.6699 15.6865 20.0918 15.1709 21.0293 15.0771V14.374H21.5918V15.0771C21.9199 15.1709 22.3418 15.3584 22.623 15.5928L22.1074 16.249C21.7324 16.0615 21.4043 15.9678 21.123 15.9678C20.7949 15.9678 20.6074 16.1084 20.6074 16.3428C20.6074 16.5771 20.8418 16.7178 21.3105 16.8584C22.1543 17.1396 22.7637 17.3271 22.7637 18.2178C22.7168 18.874 22.248 19.3428 21.5918 19.4365Z" fill="white"/>
<path d="M14.3281 34.25H31.9062C32.4219 34.25 32.8438 33.8281 32.8438 33.3125V21.125C32.8438 20.6094 32.4219 20.1875 31.9062 20.1875H14.3281C13.6719 20.1875 13.1562 19.6719 13.1562 19.0156V33.0781C13.1562 33.7344 13.6719 34.25 14.3281 34.25Z" fill="#FABFAB"/>
<path d="M30.5 28.8594H32.8438V26.0469H30.5C29.7031 26.0469 29.0938 26.6562 29.0938 27.4531C29.0938 28.25 29.7031 28.8594 30.5 28.8594Z" fill="#F1927F"/>
</svg>
