<svg width="17" height="17" viewBox="0 0 17 17" fill="none" xmlns="http://www.w3.org/2000/svg">
<path d="M9.16101 2.77881V4.67676H8.18347V2.77881H9.16101ZM9.04041 13.1445V14.8457H8.06921V13.1445H9.04041ZM9.9989 11.0942C9.9989 10.8488 9.94812 10.6351 9.84656 10.4531C9.74923 10.2669 9.58842 10.0998 9.36414 9.95166C9.13985 9.79932 8.8394 9.65755 8.46277 9.52637C7.9211 9.33594 7.44714 9.12223 7.04089 8.88525C6.63888 8.64404 6.32572 8.34782 6.10144 7.99658C5.88139 7.64111 5.77136 7.19889 5.77136 6.66992C5.77136 6.14941 5.88985 5.69873 6.12683 5.31787C6.36804 4.93701 6.70235 4.6429 7.12976 4.43555C7.55717 4.22819 8.05652 4.12451 8.62781 4.12451C9.06791 4.12451 9.46358 4.1901 9.81482 4.32129C10.1703 4.45247 10.4729 4.64502 10.7225 4.89893C10.9722 5.15283 11.1626 5.46598 11.2938 5.83838C11.4292 6.20654 11.4969 6.62972 11.4969 7.10791H9.97351C9.97351 6.83708 9.94177 6.59587 9.8783 6.38428C9.81905 6.16846 9.73018 5.98649 9.61169 5.83838C9.4932 5.68604 9.34932 5.56966 9.18005 5.48926C9.01501 5.40885 8.8267 5.36865 8.61511 5.36865C8.31466 5.36865 8.0671 5.42578 7.87244 5.54004C7.67778 5.65007 7.53389 5.80241 7.4408 5.99707C7.35193 6.19173 7.3075 6.4139 7.3075 6.66357C7.3075 6.90479 7.35404 7.11637 7.44714 7.29834C7.54024 7.48031 7.69893 7.64535 7.92322 7.79346C8.15173 7.93734 8.46488 8.08333 8.86267 8.23145C9.40857 8.42611 9.88041 8.64404 10.2782 8.88525C10.6802 9.12223 10.9891 9.41634 11.205 9.76758C11.425 10.1146 11.535 10.5526 11.535 11.0815C11.535 11.6274 11.4081 12.0908 11.1542 12.4717C10.9045 12.8525 10.5533 13.1424 10.1005 13.3413C9.6519 13.536 9.12927 13.6333 8.53259 13.6333C8.15597 13.6333 7.78145 13.5846 7.40906 13.4873C7.04089 13.3857 6.70658 13.2207 6.40613 12.9922C6.10567 12.7637 5.86658 12.4611 5.68884 12.0845C5.51111 11.7036 5.42224 11.2381 5.42224 10.688H6.95837C6.95837 11.0181 7.00281 11.2931 7.09167 11.5132C7.18054 11.7332 7.30115 11.9067 7.45349 12.0337C7.60583 12.1606 7.77511 12.2516 7.9613 12.3066C8.15173 12.3617 8.34216 12.3892 8.53259 12.3892C8.84998 12.3892 9.11658 12.3363 9.3324 12.2305C9.55245 12.1204 9.71749 11.9681 9.82751 11.7734C9.94177 11.5745 9.9989 11.3481 9.9989 11.0942Z" fill="#27AA81"/>
</svg>
