<svg width="65" height="64" viewBox="0 0 65 64" fill="none" xmlns="http://www.w3.org/2000/svg">
<path fill-rule="evenodd" clip-rule="evenodd" d="M17.7054 8.71094C17.7054 8.44494 17.8104 8.19094 17.9984 8.00394C18.1854 7.81594 18.4404 7.71094 18.7054 7.71094C23.1934 7.71094 41.2594 7.71094 41.2594 7.71094L52.7054 20.4029V36.3559C52.7054 36.3559 52.7414 49.5329 48.9984 55.8239C48.8164 56.1129 48.4984 56.2879 48.1564 56.2879C44.3294 56.2909 21.6084 56.2909 15.2564 56.2909C14.9064 56.2909 14.5814 56.1069 14.4004 55.8059C14.2194 55.5049 14.2104 55.1309 14.3754 54.8219C17.4784 48.0839 17.7054 36.3559 17.7054 36.3559V8.71094Z" fill="url(#paint0_linear_134_42353)"/>
<path fill-rule="evenodd" clip-rule="evenodd" d="M52.7054 36.375C52.7054 36.375 52.7414 49.552 48.9984 55.843C48.8164 56.132 48.4984 56.307 48.1564 56.307C44.3294 56.31 21.6084 56.31 15.2564 56.31C14.9064 56.31 14.5814 56.125 14.4004 55.824C14.2194 55.524 14.2104 55.15 14.3754 54.84L14.4144 54.754C26.7284 55.333 44.6104 53.176 46.9654 52.254C49.4814 51.269 52.6554 41.817 52.7044 36.499L52.7054 36.375Z" fill="url(#paint1_linear_134_42353)"/>
<path fill-rule="evenodd" clip-rule="evenodd" d="M52.7038 20.4029C49.6678 19.2039 46.4538 19.1699 43.1548 19.6799C42.8488 19.7279 42.5378 19.6309 42.3128 19.4169C42.0878 19.2029 41.9758 18.8969 42.0088 18.5889C42.3708 14.8949 42.0058 11.2809 41.2578 7.71094C46.0958 11.3019 49.9158 15.5299 52.7038 20.4029Z" fill="url(#paint2_linear_134_42353)"/>
<path d="M53.1562 52C58.6791 52 63.1562 47.5228 63.1562 42C63.1562 36.4772 58.6791 32 53.1562 32C47.6334 32 43.1562 36.4772 43.1562 42C43.1562 47.5228 47.6334 52 53.1562 52Z" fill="url(#paint3_linear_134_42353)"/>
<path fill-rule="evenodd" clip-rule="evenodd" d="M52.1562 37V47C52.1562 47.552 52.6043 48 53.1562 48C53.7083 48 54.1562 47.552 54.1562 47V37C54.1562 36.448 53.7083 36 53.1562 36C52.6043 36 52.1562 36.448 52.1562 37Z" fill="#347BFA"/>
<path fill-rule="evenodd" clip-rule="evenodd" d="M58.1562 41H48.1562C47.6043 41 47.1562 41.448 47.1562 42C47.1562 42.552 47.6043 43 48.1562 43H58.1562C58.7083 43 59.1562 42.552 59.1562 42C59.1562 41.448 58.7083 41 58.1562 41Z" fill="#347BFA"/>
<path fill-rule="evenodd" clip-rule="evenodd" d="M17.7031 14.7188V28.8977C19.0271 26.4947 21.1451 24.6037 23.7151 23.5647C24.4281 23.2767 25.1351 22.9908 25.7651 22.7358C26.1431 22.5838 26.3901 22.2168 26.3901 21.8088C26.3901 21.4018 26.1431 21.0347 25.7651 20.8818C25.1361 20.6277 24.4301 20.3428 23.7181 20.0548C21.1461 19.0158 19.0281 17.1237 17.7031 14.7188Z" fill="url(#paint4_linear_134_42353)"/>
<path fill-rule="evenodd" clip-rule="evenodd" d="M24.995 21.5239C25.373 21.3709 25.621 21.0039 25.621 20.5959C25.621 20.1889 25.373 19.8219 24.995 19.6689C24.366 19.4149 23.66 19.1299 22.948 18.8419C19.931 17.6229 17.539 15.2309 16.319 12.2139C16.03 11.4999 15.744 10.7929 15.489 10.1619C15.336 9.78387 14.969 9.53687 14.562 9.53687C14.154 9.53687 13.787 9.78387 13.635 10.1619C13.38 10.7909 13.095 11.4969 12.808 12.2089C11.589 15.2249 9.197 17.6179 6.181 18.8379C5.466 19.1269 4.757 19.4139 4.125 19.6689C3.748 19.8219 3.5 20.1889 3.5 20.5959C3.5 21.0039 3.748 21.3709 4.125 21.5229C4.757 21.7789 5.466 22.0659 6.182 22.3549C9.198 23.5749 11.59 25.9679 12.808 28.9849C13.096 29.6959 13.381 30.4009 13.634 31.0299C13.787 31.4079 14.154 31.6549 14.562 31.6549C14.969 31.6549 15.336 31.4079 15.489 31.0299C15.743 30.3999 16.029 29.6929 16.317 28.9799C17.537 25.9639 19.929 23.5719 22.945 22.3519C23.659 22.0639 24.365 21.7779 24.995 21.5239Z" fill="url(#paint5_linear_134_42353)"/>
<path fill-rule="evenodd" clip-rule="evenodd" d="M35.7521 39.3444C36.0521 39.2234 36.2471 38.9334 36.2471 38.6104C36.2471 38.2874 36.0521 37.9974 35.7521 37.8764C35.7521 37.8764 35.7511 37.8764 35.7511 37.8754C32.9941 36.7614 30.8071 34.5754 29.6921 31.8184C29.6911 31.8164 29.6911 31.8154 29.6901 31.8134C29.5691 31.5144 29.2791 31.3184 28.9561 31.3184C28.6331 31.3184 28.3431 31.5144 28.2221 31.8134C27.1081 34.5704 24.9221 36.7584 22.1641 37.8734C22.1631 37.8744 22.1611 37.8744 22.1601 37.8754C21.8601 37.9964 21.6641 38.2874 21.6641 38.6104C21.6641 38.9334 21.8601 39.2244 22.1601 39.3454C22.1621 39.3464 22.1641 39.3474 22.1661 39.3474C24.9221 40.4624 27.1081 42.6494 28.2221 45.4064C28.2221 45.4074 28.2221 45.4084 28.2231 45.4094C28.3441 45.7074 28.6341 45.9034 28.9561 45.9034C29.2781 45.9034 29.5681 45.7084 29.6891 45.4094C29.6901 45.4074 29.6901 45.4064 29.6911 45.4054C30.8061 42.6474 32.9921 40.4604 35.7501 39.3454C35.7511 39.3454 35.7521 39.3444 35.7521 39.3444Z" fill="url(#paint6_linear_134_42353)"/>
<path fill-rule="evenodd" clip-rule="evenodd" d="M34.9113 38.3201C35.2053 38.2001 35.3983 37.9141 35.3983 37.5961C35.3983 37.2781 35.2052 36.9921 34.9102 36.8731C32.1942 35.7751 30.0382 33.6211 28.9403 30.9051C28.9393 30.9031 28.9392 30.9021 28.9382 30.9001C28.8192 30.6051 28.5332 30.4121 28.2153 30.4121C27.8973 30.4121 27.6113 30.6051 27.4923 30.9001L27.4912 30.9011C26.3942 33.6171 24.2403 35.7721 21.5243 36.8701C21.5223 36.8711 21.5212 36.8721 21.5192 36.8721C21.2242 36.9921 21.0312 37.2781 21.0312 37.5961C21.0312 37.9151 21.2242 38.2011 21.5192 38.3201C21.5212 38.3211 21.5232 38.3221 21.5252 38.3231C24.2412 39.4211 26.3942 41.5761 27.4912 44.2921C27.4922 44.2931 27.4923 44.2931 27.4923 44.2941C27.6113 44.5891 27.8973 44.7811 28.2153 44.7811C28.5322 44.7811 28.8183 44.5891 28.9373 44.2941C28.9383 44.2931 28.9382 44.2921 28.9392 44.2901C30.0372 41.5731 32.1912 39.4191 34.9082 38.3201C34.9092 38.3201 34.9103 38.3201 34.9113 38.3201Z" fill="url(#paint7_linear_134_42353)"/>
<defs>
<linearGradient id="paint0_linear_134_42353" x1="14.2579" y1="32.0009" x2="52.7054" y2="32.0009" gradientUnits="userSpaceOnUse">
<stop stop-color="#E9F3FC"/>
<stop offset="1" stop-color="#CADCF0"/>
</linearGradient>
<linearGradient id="paint1_linear_134_42353" x1="14.2579" y1="46.3422" x2="52.7054" y2="46.3422" gradientUnits="userSpaceOnUse">
<stop stop-color="#CADCF0"/>
<stop offset="1" stop-color="#A4BBDB"/>
</linearGradient>
<linearGradient id="paint2_linear_134_42353" x1="41.2578" y1="14.0566" x2="52.7038" y2="14.0566" gradientUnits="userSpaceOnUse">
<stop stop-color="#559AFF"/>
<stop offset="1" stop-color="#2E69EF"/>
</linearGradient>
<linearGradient id="paint3_linear_134_42353" x1="43.2601" y1="31.9196" x2="68.2291" y2="36.5555" gradientUnits="userSpaceOnUse">
<stop stop-color="#FAFCFE"/>
<stop offset="1" stop-color="#E9F3FC"/>
</linearGradient>
<linearGradient id="paint4_linear_134_42353" x1="17.7031" y1="21.8085" x2="26.3906" y2="21.8085" gradientUnits="userSpaceOnUse">
<stop stop-color="#CADCF0"/>
<stop offset="1" stop-color="#A4BBDB"/>
</linearGradient>
<linearGradient id="paint5_linear_134_42353" x1="14.6667" y1="9.13522" x2="26.3325" y2="26.1201" gradientUnits="userSpaceOnUse">
<stop stop-color="#FAFCFE"/>
<stop offset="1" stop-color="#E9F3FC"/>
</linearGradient>
<linearGradient id="paint6_linear_134_42353" x1="25.1458" y1="34.8005" x2="32.7661" y2="42.4208" gradientUnits="userSpaceOnUse">
<stop stop-color="#CADCF0"/>
<stop offset="1" stop-color="#A4BBDB"/>
</linearGradient>
<linearGradient id="paint7_linear_134_42353" x1="28.2842" y1="30.0983" x2="35.9166" y2="41.2112" gradientUnits="userSpaceOnUse">
<stop stop-color="#FAFCFE"/>
<stop offset="1" stop-color="#E9F3FC"/>
</linearGradient>
</defs>
</svg>
