<svg width="24" height="24" viewBox="0 0 24 24" fill="none" xmlns="http://www.w3.org/2000/svg">
<path d="M18.0214 6.64282H5.97857C5.58686 6.64423 5.2116 6.80046 4.93462 7.07745C4.65764 7.35443 4.50141 7.72969 4.5 8.12139V15.8785C4.50141 16.2702 4.65764 16.6455 4.93462 16.9225C5.2116 17.1995 5.58686 17.3557 5.97857 17.3571H18.0214C18.4131 17.3557 18.7884 17.1995 19.0654 16.9225C19.3424 16.6455 19.4986 16.2702 19.5 15.8785V8.12139C19.4986 7.72969 19.3424 7.35443 19.0654 7.07745C18.7884 6.80046 18.4131 6.64423 18.0214 6.64282ZM17.5661 7.71425L12.3375 11.8768C12.2421 11.9542 12.1229 11.9964 12 11.9964C11.8771 11.9964 11.7579 11.9542 11.6625 11.8768L6.43393 7.71425H17.5661ZM18.0214 16.2857H5.97857C5.9251 16.2857 5.87216 16.2751 5.82276 16.2547C5.77337 16.2342 5.72848 16.2042 5.69068 16.1664C5.65287 16.1286 5.62288 16.0837 5.60242 16.0343C5.58196 15.9849 5.57143 15.932 5.57143 15.8785V8.37854L10.9929 12.6964C11.2783 12.926 11.6337 13.0511 12 13.0511C12.3663 13.0511 12.7217 12.926 13.0071 12.6964L18.4286 8.39996V15.9C18.4231 16.0042 18.3778 16.1023 18.302 16.1741C18.2262 16.2459 18.1258 16.2858 18.0214 16.2857Z" fill="#181E25"/>
</svg>
