<svg width="17" height="16" viewBox="0 0 17 16" fill="none" xmlns="http://www.w3.org/2000/svg">
<path d="M10.8542 12H5.52083C5.16721 12 4.82807 11.8595 4.57802 11.6095C4.32798 11.3594 4.1875 11.0203 4.1875 10.6667V5.33333C4.1875 4.97971 4.32798 4.64057 4.57802 4.39052C4.82807 4.14048 5.16721 4 5.52083 4H7.74306C7.86093 4 7.97398 4.04683 8.05733 4.13017C8.14067 4.21352 8.1875 4.32657 8.1875 4.44444C8.1875 4.56232 8.14067 4.67536 8.05733 4.75871C7.97398 4.84206 7.86093 4.88889 7.74306 4.88889H5.52083C5.40296 4.88889 5.28991 4.93571 5.20656 5.01906C5.12321 5.10241 5.07639 5.21546 5.07639 5.33333V10.6667C5.07639 10.7845 5.12321 10.8976 5.20656 10.9809C5.28991 11.0643 5.40296 11.1111 5.52083 11.1111H10.8542C10.972 11.1111 11.0851 11.0643 11.1684 10.9809C11.2518 10.8976 11.2986 10.7845 11.2986 10.6667V8.44444C11.2986 8.32657 11.3454 8.21352 11.4288 8.13018C11.5121 8.04683 11.6252 8 11.7431 8C11.8609 8 11.974 8.04683 12.0573 8.13018C12.1407 8.21352 12.1875 8.32657 12.1875 8.44444V10.6667C12.1875 11.0203 12.047 11.3594 11.797 11.6095C11.5469 11.8595 11.2078 12 10.8542 12Z" fill="#67788E"/>
<path d="M7.4418 8.77964C7.48311 8.8213 7.53227 8.85436 7.58643 8.87693C7.64059 8.89949 7.69868 8.91111 7.75735 8.91111C7.81602 8.91111 7.87411 8.89949 7.92827 8.87693C7.98243 8.85436 8.03159 8.8213 8.07291 8.77964L10.8462 5.97964L11.4196 6.55742C11.4821 6.61909 11.5614 6.66087 11.6477 6.67748C11.7339 6.69409 11.8231 6.68479 11.904 6.65075C11.9852 6.61741 12.0547 6.56079 12.1037 6.48803C12.1527 6.41526 12.1791 6.32961 12.1796 6.24187L12.1796 4.46409C12.1789 4.40601 12.1668 4.34863 12.144 4.2952C12.0989 4.1866 12.0126 4.1003 11.904 4.0552C11.8506 4.03243 11.7932 4.02035 11.7351 4.01964L9.95735 4.01964C9.86961 4.02008 9.78396 4.04648 9.71119 4.09552C9.63843 4.14456 9.5818 4.21403 9.54846 4.2952C9.51443 4.37614 9.50513 4.46534 9.52174 4.55156C9.53835 4.63778 9.58013 4.71714 9.6418 4.77964L10.2196 5.35298L7.41957 8.14853C7.37934 8.1913 7.34797 8.24161 7.3273 8.29657C7.30662 8.35153 7.29704 8.41004 7.2991 8.46872C7.30117 8.5274 7.31484 8.58509 7.33934 8.63846C7.36383 8.69183 7.39865 8.73981 7.4418 8.77964Z" fill="#67788E"/>
</svg>
