<svg width="17" height="16" viewBox="0 0 17 16" fill="none" xmlns="http://www.w3.org/2000/svg">
<path d="M8.85417 5.33333C8.85417 5.70152 9.15264 6 9.52083 6C9.88902 6 10.1875 5.70152 10.1875 5.33333V4.66667H13.5208C13.889 4.66667 14.1875 4.36819 14.1875 4C14.1875 3.63181 13.889 3.33333 13.5208 3.33333H10.1875V2.66667C10.1875 2.29848 9.88902 2 9.52083 2C9.15264 2 8.85417 2.29848 8.85417 2.66667V5.33333Z" fill="#67788E"/>
<path d="M2.1875 8C2.1875 7.63181 2.48598 7.33333 2.85417 7.33333H3.85417C4.03826 7.33333 4.1875 7.48257 4.1875 7.66667V8.33333C4.1875 8.51743 4.03826 8.66667 3.85417 8.66667H2.85417C2.48598 8.66667 2.1875 8.36819 2.1875 8Z" fill="#67788E"/>
<path d="M6.1875 6C5.81931 6 5.52083 6.29848 5.52083 6.66667V9.33333C5.52083 9.70152 5.81931 10 6.1875 10C6.55569 10 6.85417 9.70152 6.85417 9.33333V8.66667H13.5208C13.889 8.66667 14.1875 8.36819 14.1875 8C14.1875 7.63181 13.889 7.33333 13.5208 7.33333H6.85417V6.66667C6.85417 6.29848 6.55569 6 6.1875 6Z" fill="#67788E"/>
<path d="M2.1875 4C2.1875 3.63181 2.48598 3.33333 2.85417 3.33333H7.1875C7.37159 3.33333 7.52083 3.48257 7.52083 3.66667V4.33333C7.52083 4.51743 7.37159 4.66667 7.1875 4.66667H2.85417C2.48598 4.66667 2.1875 4.36819 2.1875 4Z" fill="#67788E"/>
<path d="M10.1875 10.6667C10.1875 10.2985 10.486 10 10.8542 10C11.2224 10 11.5208 10.2985 11.5208 10.6667V11.3333H13.5208C13.889 11.3333 14.1875 11.6318 14.1875 12C14.1875 12.3682 13.889 12.6667 13.5208 12.6667H11.5208V13.3333C11.5208 13.7015 11.2224 14 10.8542 14C10.486 14 10.1875 13.7015 10.1875 13.3333V10.6667Z" fill="#67788E"/>
<path d="M2.1875 12C2.1875 11.6318 2.48598 11.3333 2.85417 11.3333H8.52083C8.70493 11.3333 8.85417 11.4826 8.85417 11.6667V12.3333C8.85417 12.5174 8.70493 12.6667 8.52083 12.6667H2.85417C2.48598 12.6667 2.1875 12.3682 2.1875 12Z" fill="#67788E"/>
</svg>
