<svg width="17" height="17" viewBox="0 0 17 17" fill="none" xmlns="http://www.w3.org/2000/svg">
<g clip-path="url(#clip0_1746_7930)">
<path d="M8.78682 12.9928C11.2674 12.9928 13.2784 10.9819 13.2784 8.5013C13.2784 6.02069 11.2674 4.00977 8.78682 4.00977C6.30622 4.00977 4.29529 6.02069 4.29529 8.5013C4.29529 10.9819 6.30622 12.9928 8.78682 12.9928Z" fill="#F4A53B"/>
<path d="M13.2714 8.60045C12.6672 8.42507 12.0267 8.41724 11.4185 8.57781C10.8102 8.73838 10.257 9.0613 9.81816 9.51203C9.37928 9.96276 9.0712 10.5243 8.92688 11.1367C8.78256 11.749 8.80744 12.389 8.99885 12.9883C10.134 12.9331 11.2061 12.4497 11.9989 11.6355C12.7918 10.8212 13.2465 9.73668 13.2714 8.60045Z" fill="#EA8634"/>
<path d="M4.33435 7.85432C4.91694 8.24626 5.60587 8.44978 6.30792 8.43733C7.00997 8.42489 7.69126 8.19709 8.25959 7.78475C8.82793 7.37242 9.25589 6.79545 9.48556 6.13191C9.71524 5.46838 9.73554 4.7503 9.54373 4.07485C8.95263 3.97315 8.34715 3.99078 7.76297 4.12672C7.17879 4.26266 6.62773 4.51414 6.14226 4.86636C5.65679 5.21858 5.24672 5.6644 4.93622 6.17756C4.62573 6.69072 4.42108 7.26084 4.33435 7.85432Z" fill="#FCB663"/>
<path d="M8.27413 7.52163C7.67749 8.00323 6.9339 8.26597 6.16713 8.26611H6.1671C6.11703 8.26611 6.06717 8.26494 6.01753 8.26269C6.04888 7.89771 6.15223 7.54193 6.32225 7.21611C6.52002 6.8371 6.80266 6.5089 7.14814 6.25708C7.49361 6.00527 7.89257 5.83665 8.31393 5.76438C8.67613 5.70225 9.04647 5.71277 9.40352 5.79463C9.21822 6.47314 8.82381 7.07794 8.27413 7.52163Z" fill="#FFE9CA" stroke="#FFE9CA" stroke-width="0.378541"/>
<path d="M8.78173 14.4434C8.73352 14.4434 8.68729 14.4625 8.65321 14.4966C8.61912 14.5307 8.59998 14.5769 8.59998 14.6251V15.7214C8.59998 15.7696 8.61912 15.8158 8.65321 15.8499C8.68729 15.884 8.73352 15.9031 8.78173 15.9031C8.82993 15.9031 8.87616 15.884 8.91024 15.8499C8.94433 15.8158 8.96348 15.7696 8.96348 15.7214V14.6251C8.96348 14.5769 8.94433 14.5307 8.91024 14.4966C8.87616 14.4625 8.82993 14.4434 8.78173 14.4434Z" fill="#F4A53B"/>
<path d="M8.78173 2.55939C8.80559 2.55939 8.82923 2.55469 8.85128 2.54556C8.87333 2.53642 8.89336 2.52303 8.91024 2.50616C8.92712 2.48928 8.94051 2.46924 8.94964 2.44719C8.95877 2.42514 8.96348 2.40151 8.96348 2.37764V1.28136C8.96348 1.23316 8.94433 1.18693 8.91024 1.15284C8.87616 1.11876 8.82993 1.09961 8.78173 1.09961C8.73352 1.09961 8.68729 1.11876 8.65321 1.15284C8.61912 1.18693 8.59998 1.23316 8.59998 1.28136V2.37764C8.59998 2.40151 8.60468 2.42514 8.61381 2.44719C8.62294 2.46924 8.63633 2.48928 8.65321 2.50616C8.67009 2.52303 8.69012 2.53642 8.71217 2.54556C8.73422 2.55469 8.75786 2.55939 8.78173 2.55939Z" fill="#F4A53B"/>
<path d="M2.66161 8.31838H1.56536C1.54129 8.31806 1.5174 8.32253 1.49508 8.33152C1.47275 8.34051 1.45243 8.35385 1.4353 8.37075C1.41817 8.38766 1.40457 8.4078 1.39529 8.43001C1.38601 8.45221 1.38123 8.47604 1.38123 8.50011C1.38123 8.52418 1.38601 8.54801 1.39529 8.57021C1.40457 8.59242 1.41817 8.61256 1.4353 8.62947C1.45243 8.64637 1.47275 8.65971 1.49508 8.6687C1.5174 8.67769 1.54129 8.68216 1.56536 8.68184H2.66161C2.70939 8.68122 2.75501 8.66179 2.78858 8.62778C2.82215 8.59377 2.84098 8.5479 2.84098 8.50011C2.84098 8.45232 2.82215 8.40645 2.78858 8.37244C2.75501 8.33842 2.70939 8.319 2.66161 8.31838Z" fill="#F4A53B"/>
<path d="M16.0084 8.31838H14.9122C14.8644 8.319 14.8188 8.33842 14.7852 8.37244C14.7516 8.40645 14.7328 8.45232 14.7328 8.50011C14.7328 8.5479 14.7516 8.59377 14.7852 8.62778C14.8188 8.66179 14.8644 8.68122 14.9122 8.68184H16.0084C16.0325 8.68216 16.0564 8.67769 16.0787 8.6687C16.101 8.65971 16.1213 8.64637 16.1385 8.62947C16.1556 8.61256 16.1692 8.59242 16.1785 8.57021C16.1878 8.54801 16.1925 8.52418 16.1925 8.50011C16.1925 8.47604 16.1878 8.45221 16.1785 8.43001C16.1692 8.4078 16.1556 8.38766 16.1385 8.37075C16.1213 8.35385 16.101 8.34051 16.0787 8.33152C16.0564 8.32253 16.0325 8.31806 16.0084 8.31838Z" fill="#F4A53B"/>
<path d="M4.3276 12.7025L3.55241 13.4776C3.53537 13.4945 3.52183 13.5145 3.51256 13.5366C3.50329 13.5587 3.49849 13.5824 3.49841 13.6064C3.49834 13.6303 3.50301 13.6541 3.51214 13.6762C3.52128 13.6983 3.5347 13.7185 3.55165 13.7354C3.56859 13.7523 3.58871 13.7658 3.61086 13.7749C3.633 13.784 3.65674 13.7887 3.6807 13.7886C3.70465 13.7885 3.72836 13.7837 3.75045 13.7745C3.77254 13.7652 3.79258 13.7517 3.80941 13.7346L4.5846 12.9594C4.60164 12.9426 4.61519 12.9225 4.62445 12.9005C4.63372 12.8784 4.63853 12.8547 4.6386 12.8307C4.63867 12.8067 4.634 12.783 4.62487 12.7609C4.61573 12.7387 4.60231 12.7186 4.58537 12.7017C4.56843 12.6847 4.5483 12.6713 4.52616 12.6622C4.50401 12.653 4.48027 12.6484 4.45632 12.6484C4.43236 12.6485 4.40866 12.6533 4.38657 12.6626C4.36448 12.6719 4.34444 12.6854 4.3276 12.7025Z" fill="#FFD176"/>
<path d="M13.7573 3.26691L12.9821 4.04209C12.9651 4.05893 12.9515 4.07897 12.9422 4.10106C12.933 4.12316 12.9282 4.14686 12.9281 4.17082C12.928 4.19477 12.9327 4.21851 12.9418 4.24065C12.951 4.2628 12.9644 4.28292 12.9813 4.29986C12.9983 4.3168 13.0184 4.33022 13.0405 4.33935C13.0627 4.34849 13.0864 4.35315 13.1104 4.35308C13.1343 4.353 13.158 4.34819 13.1801 4.33892C13.2022 4.32965 13.2223 4.31611 13.2391 4.29906L14.0143 3.52387C14.0313 3.50704 14.0449 3.487 14.0541 3.4649C14.0634 3.44281 14.0682 3.41911 14.0683 3.39515C14.0684 3.37119 14.0637 3.34746 14.0546 3.32531C14.0454 3.30317 14.032 3.28305 14.0151 3.26611C13.9981 3.24917 13.978 3.23575 13.9558 3.22661C13.9337 3.21748 13.91 3.21282 13.886 3.21289C13.862 3.21297 13.8383 3.21778 13.8163 3.22705C13.7942 3.23632 13.7741 3.24986 13.7573 3.26691Z" fill="#FFD176"/>
<path d="M3.80941 3.26691C3.79258 3.24986 3.77254 3.23632 3.75045 3.22705C3.72836 3.21778 3.70465 3.21297 3.6807 3.21289C3.65674 3.21282 3.633 3.21748 3.61086 3.22661C3.58871 3.23575 3.56859 3.24917 3.55165 3.26611C3.5347 3.28305 3.52128 3.30317 3.51214 3.32531C3.50301 3.34746 3.49834 3.37119 3.49841 3.39515C3.49849 3.41911 3.50329 3.44281 3.51256 3.4649C3.52183 3.487 3.53537 3.50704 3.55241 3.52387L4.3276 4.29906C4.34444 4.31611 4.36448 4.32965 4.38657 4.33892C4.40866 4.34819 4.43236 4.353 4.45632 4.35308C4.48027 4.35315 4.50401 4.34849 4.52616 4.33935C4.5483 4.33022 4.56843 4.3168 4.58537 4.29986C4.60231 4.28292 4.61573 4.2628 4.62487 4.24065C4.634 4.21851 4.63867 4.19477 4.6386 4.17082C4.63853 4.14686 4.63372 4.12316 4.62445 4.10106C4.61519 4.07897 4.60164 4.05893 4.5846 4.04209L3.80941 3.26691Z" fill="#FFD176"/>
<path d="M13.2391 12.7025C13.2223 12.6854 13.2022 12.6719 13.1801 12.6626C13.158 12.6533 13.1343 12.6485 13.1104 12.6484C13.0864 12.6484 13.0627 12.653 13.0405 12.6622C13.0184 12.6713 12.9983 12.6847 12.9813 12.7017C12.9644 12.7186 12.951 12.7387 12.9418 12.7609C12.9327 12.783 12.928 12.8067 12.9281 12.8307C12.9282 12.8547 12.933 12.8784 12.9422 12.9005C12.9515 12.9225 12.9651 12.9426 12.9821 12.9594L13.7573 13.7346C13.7741 13.7517 13.7942 13.7652 13.8163 13.7745C13.8383 13.7837 13.862 13.7885 13.886 13.7886C13.91 13.7887 13.9337 13.784 13.9558 13.7749C13.978 13.7658 13.9981 13.7523 14.0151 13.7354C14.032 13.7185 14.0454 13.6983 14.0546 13.6762C14.0637 13.6541 14.0684 13.6303 14.0683 13.6064C14.0682 13.5824 14.0634 13.5587 14.0541 13.5366C14.0449 13.5145 14.0313 13.4945 14.0143 13.4776L13.2391 12.7025Z" fill="#FFD176"/>
<path d="M8.78435 11.4664C10.4222 11.4664 11.75 10.1387 11.75 8.50078C11.75 6.86291 10.4222 5.53516 8.78435 5.53516C7.14648 5.53516 5.81873 6.86291 5.81873 8.50078C5.81873 10.1387 7.14648 11.4664 8.78435 11.4664Z" fill="#FFE9CA"/>
<path d="M8.03955 8.65683V8.18622H7.49397V7.44478C7.49397 7.25067 8.07108 7.01867 8.07108 7.01867V6.49219C7.7266 6.63597 7.42476 6.86436 7.19405 7.15581C6.96333 7.44727 6.81136 7.79218 6.75246 8.15799C6.69356 8.5238 6.72968 8.89845 6.85741 9.24658C6.98515 9.59472 7.20028 9.90487 7.48251 10.1477V8.65683H8.03955Z" fill="#F4A53B"/>
<path d="M8.11304 10.0408L8.10779 10.5223C8.36615 10.6245 8.64177 10.677 8.91994 10.6771C9.18574 10.6772 9.44942 10.6304 9.69866 10.5389V8.15265H8.8693V6.81277C9.15165 6.79144 9.43523 6.83318 9.69914 6.93492L9.70439 6.4643C9.45356 6.37152 9.18815 6.32344 8.92042 6.32227C8.71548 6.32213 8.51154 6.35066 8.31465 6.40701V8.64552H9.14926V10.1734C8.79824 10.2324 8.43742 10.1863 8.11304 10.0408Z" fill="#F4A53B"/>
<path d="M10.3982 6.89522C10.2558 6.76896 10.0979 6.6611 9.9281 6.57422V10.4272C10.3159 10.2283 10.6355 9.92008 10.8468 9.54137H10.3982V6.89522Z" fill="#F4A53B"/>
</g>
<defs>
<clipPath id="clip0_1746_7930">
<rect width="16" height="16" fill="white" transform="translate(0.787476 0.5)"/>
</clipPath>
</defs>
</svg>
