<svg width="20" height="18" viewBox="0 0 20 18" fill="none" xmlns="http://www.w3.org/2000/svg">
<path d="M1.66016 6.72485V8.99967V10.5162V15.8241C1.66016 16.6582 2.33911 17.3407 3.1767 17.3407H10.0012H16.8256C17.6635 17.3407 18.3422 16.6582 18.3422 15.8241V10.5162V8.99967V6.72485H1.66016Z" fill="#F39C12"/>
<path d="M1.66016 5.96655V8.24137V9.75792V15.0658C1.66016 15.8999 2.33911 16.5824 3.1767 16.5824H10.0012H16.8256C17.6635 16.5824 18.3422 15.8999 18.3422 15.0658V9.75792V8.24137V5.96655H1.66016Z" fill="#F1C40F"/>
<path d="M2.41889 4.44995C1.5813 4.44995 0.902344 5.1324 0.902344 5.9665V7.48304H19.1009V5.9665C19.1009 5.1324 18.4222 4.44995 17.5843 4.44995H16.0678H10.7599H9.24334H3.93544H2.41889Z" fill="#F1C40F"/>
<path d="M12.2762 3.69165H7.72656V17.3406H12.2762V3.69165Z" fill="#E74C3C"/>
<path d="M6.88279 0.658752C6.12558 0.582924 5.38649 0.962024 4.98111 1.56864C4.39148 2.47857 4.74385 3.616 5.76517 4.14679C6.09358 4.37427 6.44534 4.45012 6.79938 4.45012H6.97454H9.47699H10.528H13.0295H13.2047C13.5588 4.45012 13.919 4.37427 14.2473 4.14679C15.2687 3.616 15.6129 2.47857 15.023 1.56864C14.4338 0.658715 13.1334 0.355387 12.112 0.886178C11.7837 1.03783 11.5258 1.26533 11.3454 1.56864H11.3287C11.3044 1.64447 11.2832 1.64452 11.262 1.72035L10.0025 3.61603L8.74298 1.72035C8.72175 1.64452 8.70052 1.64447 8.67625 1.56864H8.65957C8.47865 1.26533 8.2288 1.03783 7.90031 0.886178C7.58116 0.734523 7.22697 0.658752 6.88279 0.658752ZM6.75767 1.56864C6.96278 1.56864 7.17503 1.64452 7.36657 1.72035C7.43079 1.72035 7.48857 1.79616 7.54165 1.79616C7.57903 1.87199 7.61005 1.87195 7.64174 1.94778H7.66677C7.68383 1.94778 7.70165 2.02359 7.71681 2.02359H7.74183H7.75018C7.76231 2.09941 7.78126 2.09949 7.79188 2.09949L8.67625 3.46432H6.90781H6.80772H6.76601H6.6826H6.6409C6.59237 3.46432 6.5468 3.46434 6.4991 3.38852C6.43131 3.38852 6.36322 3.38853 6.29892 3.31271C6.1713 3.31271 6.05726 3.16102 5.97362 3.08519C5.72286 2.78188 5.68578 2.40272 5.90689 2.02359C6.09115 1.79611 6.41577 1.56864 6.75767 1.56864ZM13.2547 1.56864C13.5967 1.56864 13.9212 1.79611 14.1055 2.02359C14.3269 2.40272 14.2814 2.78188 14.0304 3.08519C13.947 3.16102 13.8416 3.31271 13.7135 3.31271C13.6498 3.38853 13.5815 3.38852 13.5133 3.38852C13.4663 3.46434 13.4117 3.46432 13.3631 3.46432H13.3214H13.238H13.1963H13.0962H11.3287L12.2121 2.09949C12.2227 2.09949 12.2417 2.09941 12.2538 2.02359H12.2621C12.2644 2.02359 12.2606 2.02359 12.2621 2.02359H12.2871C12.3023 2.02359 12.3205 1.94778 12.3372 1.94778H12.3622C12.3941 1.87195 12.4335 1.87199 12.4707 1.79616C12.5245 1.79616 12.5821 1.72035 12.6458 1.72035C12.8377 1.64452 13.05 1.56864 13.2547 1.56864Z" fill="#C0392B"/>
<path d="M18.3422 7.48315H1.66016V8.24143H18.3422V7.48315Z" fill="#F39C12"/>
<path d="M12.2762 7.48315H7.72656V8.24143H12.2762V7.48315Z" fill="#C0392B"/>
<path d="M12.2762 16.5823H7.72656V17.3405H12.2762V16.5823Z" fill="#C0392B"/>
</svg>
