<svg width="28" height="29" viewBox="0 0 28 29" fill="none" xmlns="http://www.w3.org/2000/svg">
<g clip-path="url(#clip0_366_21815)">
<path d="M13.9989 6.04167C16.0639 6.04167 17.913 6.75333 19.3714 8.14167L23.3672 4.14583C20.9405 1.88833 17.773 0.5 13.9989 0.5C8.52719 0.5 3.79635 3.63833 1.49219 8.21167L6.14719 11.8225C7.24969 8.50333 10.3472 6.04167 13.9989 6.04167Z" fill="#EA4335"/>
<path d="M27.405 14.8202C27.405 13.9043 27.3175 13.0177 27.1833 12.166H14V17.4277H21.5483C21.21 19.1543 20.23 20.6243 18.76 21.616L23.2692 25.116C25.9 22.6777 27.405 19.0727 27.405 14.8202Z" fill="#4285F4"/>
<path d="M6.1425 17.1768C5.8625 16.3309 5.69917 15.4326 5.69917 14.4993C5.69917 13.5659 5.85667 12.6676 6.1425 11.8218L1.4875 8.21094C0.536667 10.1009 0 12.2359 0 14.4993C0 16.7626 0.536667 18.8976 1.49333 20.7876L6.1425 17.1768Z" fill="#FBBC05"/>
<path d="M13.9969 28.5022C17.7769 28.5022 20.956 27.2597 23.266 25.113L18.7569 21.613C17.5027 22.4588 15.8869 22.9547 13.9969 22.9547C10.3452 22.9547 7.24771 20.493 6.13938 17.1738L1.48438 20.7847C3.79438 25.3638 8.52521 28.5022 13.9969 28.5022Z" fill="#34A853"/>
</g>
<defs>
<clipPath id="clip0_366_21815">
<rect width="28" height="28" fill="white" transform="translate(0 0.5)"/>
</clipPath>
</defs>
</svg>
