<svg width="16" height="15" viewBox="0 0 16 15" fill="none" xmlns="http://www.w3.org/2000/svg">
<path d="M8.00065 11.3327C8.13326 11.3327 8.26044 11.28 8.3542 11.1862C8.44797 11.0925 8.50065 10.9653 8.50065 10.8327V6.83268C8.50065 6.70007 8.44797 6.5729 8.3542 6.47913C8.26044 6.38536 8.13326 6.33268 8.00065 6.33268C7.86804 6.33268 7.74087 6.38536 7.6471 6.47913C7.55333 6.5729 7.50065 6.70007 7.50065 6.83268V10.8327C7.50065 11.1087 7.72465 11.3327 8.00065 11.3327ZM8.00065 4.16602C8.17746 4.16602 8.34703 4.23625 8.47206 4.36128C8.59708 4.4863 8.66732 4.65587 8.66732 4.83268C8.66732 5.00949 8.59708 5.17906 8.47206 5.30409C8.34703 5.42911 8.17746 5.49935 8.00065 5.49935C7.82384 5.49935 7.65427 5.42911 7.52925 5.30409C7.40422 5.17906 7.33398 5.00949 7.33398 4.83268C7.33398 4.65587 7.40422 4.4863 7.52925 4.36128C7.65427 4.23625 7.82384 4.16602 8.00065 4.16602Z" fill="#94A2B2"/>
<path fill-rule="evenodd" clip-rule="evenodd" d="M0.833984 7.4987C0.833984 3.5407 4.04265 0.332031 8.00065 0.332031C11.9587 0.332031 15.1673 3.5407 15.1673 7.4987C15.1673 11.4567 11.9587 14.6654 8.00065 14.6654C4.04265 14.6654 0.833984 11.4567 0.833984 7.4987ZM8.00065 1.33203C6.36515 1.33203 4.79663 1.98173 3.64016 3.13821C2.48368 4.29468 1.83398 5.8632 1.83398 7.4987C1.83398 9.1342 2.48368 10.7027 3.64016 11.8592C4.79663 13.0157 6.36515 13.6654 8.00065 13.6654C9.63615 13.6654 11.2047 13.0157 12.3611 11.8592C13.5176 10.7027 14.1673 9.1342 14.1673 7.4987C14.1673 5.8632 13.5176 4.29468 12.3611 3.13821C11.2047 1.98173 9.63615 1.33203 8.00065 1.33203Z" fill="#94A2B2"/>
</svg>
