<svg width="14" height="12" viewBox="0 0 14 12" fill="none" xmlns="http://www.w3.org/2000/svg">
<path d="M2.1875 8.8125C2.40625 8.8125 2.625 9.03125 2.625 9.25V11C2.625 11.2461 2.40625 11.4375 2.1875 11.4375H0.4375C0.191406 11.4375 0 11.2461 0 11V9.25C0 9.03125 0.191406 8.8125 0.4375 8.8125H2.1875ZM2.1875 0.0625C2.40625 0.0625 2.625 0.28125 2.625 0.5V2.25C2.625 2.49609 2.40625 2.6875 2.1875 2.6875H0.4375C0.191406 2.6875 0 2.49609 0 2.25V0.5C0 0.28125 0.191406 0.0625 0.4375 0.0625H2.1875ZM2.1875 4.4375C2.40625 4.4375 2.625 4.65625 2.625 4.875V6.625C2.625 6.87109 2.40625 7.0625 2.1875 7.0625H0.4375C0.191406 7.0625 0 6.87109 0 6.625V4.875C0 4.65625 0.191406 4.4375 0.4375 4.4375H2.1875ZM13.5625 9.25C13.7812 9.25 14 9.46875 14 9.6875V10.5625C14 10.8086 13.7812 11 13.5625 11H4.8125C4.56641 11 4.375 10.8086 4.375 10.5625V9.6875C4.375 9.46875 4.56641 9.25 4.8125 9.25H13.5625ZM13.5625 0.5C13.7812 0.5 14 0.71875 14 0.9375V1.8125C14 2.05859 13.7812 2.25 13.5625 2.25H4.8125C4.56641 2.25 4.375 2.05859 4.375 1.8125V0.9375C4.375 0.71875 4.56641 0.5 4.8125 0.5H13.5625ZM13.5625 4.875C13.7812 4.875 14 5.09375 14 5.3125V6.1875C14 6.43359 13.7812 6.625 13.5625 6.625H4.8125C4.56641 6.625 4.375 6.43359 4.375 6.1875V5.3125C4.375 5.09375 4.56641 4.875 4.8125 4.875H13.5625Z" fill="#181E25"/>
</svg>
