<svg width="20" height="20" viewBox="0 0 20 20" fill="none" xmlns="http://www.w3.org/2000/svg">
<path d="M10.5392 17.4474L10.5392 17.4474C10.0062 17.9627 9.16097 17.9628 8.62801 17.4478C8.62784 17.4477 8.62766 17.4475 8.62749 17.4473L5.72093 14.62C5.72067 14.6198 5.72041 14.6195 5.72015 14.6193C5.3555 14.2612 5.05086 13.9599 4.80593 13.715C2.16755 11.0766 2.16755 6.79886 4.80596 4.16045C7.44437 1.52204 11.7221 1.52204 14.3605 4.16045C16.9986 6.79856 16.9989 11.0756 14.3614 13.7141C14.3611 13.7144 14.3608 13.7147 14.3605 13.715L13.3746 14.69C13.3744 14.6902 13.3742 14.6904 13.374 14.6906C12.6463 15.4048 11.7015 16.3236 10.5392 17.4474ZM12.1667 9.16666C12.1667 7.73981 11.01 6.58313 9.58321 6.58313C8.1564 6.58313 6.99973 7.73981 6.99973 9.16666C6.99973 10.5935 8.1564 11.7502 9.58321 11.7502C11.01 11.7502 12.1667 10.5935 12.1667 9.16666Z" fill="#E7EAF0" stroke="#94A2B2"/>
</svg>
