<svg width="19" height="18" viewBox="0 0 19 18" fill="none" xmlns="http://www.w3.org/2000/svg">
<path d="M9.1875 14.25C8.975 14.25 8.79675 14.178 8.65275 14.034C8.50875 13.89 8.437 13.712 8.4375 13.5V9.75H4.6875C4.475 9.75 4.29675 9.678 4.15275 9.534C4.00875 9.39 3.937 9.212 3.9375 9C3.9375 8.7875 4.0095 8.60925 4.1535 8.46525C4.2975 8.32125 4.4755 8.2495 4.6875 8.25H8.4375V4.5C8.4375 4.2875 8.5095 4.10925 8.6535 3.96525C8.7975 3.82125 8.9755 3.7495 9.1875 3.75C9.4 3.75 9.57825 3.822 9.72225 3.966C9.86625 4.11 9.938 4.288 9.9375 4.5V8.25H13.6875C13.9 8.25 14.0783 8.322 14.2223 8.466C14.3663 8.61 14.438 8.788 14.4375 9C14.4375 9.2125 14.3655 9.39075 14.2215 9.53475C14.0775 9.67875 13.8995 9.7505 13.6875 9.75H9.9375V13.5C9.9375 13.7125 9.8655 13.8908 9.7215 14.0348C9.5775 14.1788 9.3995 14.2505 9.1875 14.25Z" fill="#2D0709"/>
</svg>
