<svg width="24" height="24" viewBox="0 0 24 24" fill="none" xmlns="http://www.w3.org/2000/svg">
<path d="M16.1675 12.0969C16.1173 12.047 16.0577 12.0076 15.9923 11.9807C15.9268 11.9539 15.8567 11.9402 15.7859 11.9404C15.7152 11.9407 15.6452 11.9549 15.5799 11.9822C15.5146 12.0095 15.4554 12.0494 15.4055 12.0996C15.3557 12.1498 15.3162 12.2093 15.2894 12.2748C15.2625 12.3402 15.2488 12.4103 15.2491 12.4811C15.2493 12.5518 15.2635 12.6219 15.2908 12.6871C15.3181 12.7524 15.358 12.8116 15.4082 12.8615C15.8639 13.3123 16.2255 13.849 16.4723 14.4405C16.7191 15.0321 16.8461 15.6667 16.8459 16.3077C16.8459 16.9646 14.9559 17.923 11.9998 17.923C9.04362 17.923 7.15362 16.9646 7.15362 16.3077C7.15276 15.6709 7.27739 15.0403 7.52038 14.4517C7.76337 13.8632 8.11996 13.3283 8.56977 12.8777C8.67006 12.7768 8.72635 12.6403 8.72635 12.498C8.72635 12.3558 8.67006 12.2193 8.56977 12.1184C8.46888 12.0181 8.33241 11.9618 8.19015 11.9618C8.0479 11.9618 7.91143 12.0181 7.81054 12.1184C7.25867 12.6672 6.82124 13.3201 6.52361 14.0392C6.22598 14.7583 6.07407 15.5294 6.07669 16.3077C6.07669 18.0577 9.12977 19 11.9998 19C14.8698 19 17.9228 18.0577 17.9228 16.3077C17.9249 15.5243 17.7707 14.7485 17.4693 14.0254C17.1679 13.3024 16.7253 12.6468 16.1675 12.0969Z" fill="#181E25"/>
<path d="M11.9997 12.5385C12.7452 12.5385 13.4739 12.3174 14.0938 11.9032C14.7136 11.4891 15.1967 10.9004 15.482 10.2117C15.7673 9.52292 15.8419 8.76505 15.6965 8.03389C15.5511 7.30273 15.1921 6.63112 14.6649 6.10398C14.1378 5.57685 13.4662 5.21786 12.735 5.07243C12.0039 4.92699 11.246 5.00163 10.5573 5.28692C9.86854 5.5722 9.27987 6.05531 8.8657 6.67516C8.45153 7.29501 8.23047 8.02375 8.23047 8.76923C8.23047 9.76889 8.62758 10.7276 9.33445 11.4345C10.0413 12.1413 11 12.5385 11.9997 12.5385ZM11.9997 6.07692C12.5322 6.07692 13.0527 6.23483 13.4955 6.53066C13.9382 6.82649 14.2833 7.24698 14.4871 7.73893C14.6908 8.23089 14.7442 8.77222 14.6403 9.29447C14.5364 9.81673 14.28 10.2965 13.9034 10.673C13.5269 11.0495 13.0472 11.3059 12.5249 11.4098C12.0027 11.5137 11.4614 11.4604 10.9694 11.2566C10.4774 11.0528 10.057 10.7077 9.76113 10.265C9.46529 9.82225 9.30739 9.30172 9.30739 8.76923C9.30739 8.05519 9.59104 7.37039 10.096 6.86548C10.6009 6.36058 11.2857 6.07692 11.9997 6.07692Z" fill="#181E25"/>
</svg>
