<svg width="26" height="26" viewBox="0 0 26 26" fill="none" xmlns="http://www.w3.org/2000/svg">
<path d="M24.7615 8.79991V8.73741C23.8808 6.33269 22.2827 4.25652 20.1834 2.78974C18.0841 1.32297 15.585 0.536377 13.024 0.536377C10.4631 0.536377 7.96394 1.32297 5.86466 2.78974C3.76538 4.25652 2.16727 6.33269 1.28652 8.73741C1.28652 8.73741 1.28652 8.73741 1.28652 8.79991C0.30293 11.5135 0.30293 14.4863 1.28652 17.1999V17.2624C2.16727 19.6671 3.76538 21.7433 5.86466 23.2101C7.96394 24.6769 10.4631 25.4634 13.024 25.4634C15.585 25.4634 18.0841 24.6769 20.1834 23.2101C22.2827 21.7433 23.8808 19.6671 24.7615 17.2624C24.7615 17.2624 24.7615 17.2624 24.7615 17.1999C25.7451 14.4863 25.7451 11.5135 24.7615 8.79991ZM3.32402 15.4999C2.89056 13.8614 2.89056 12.1384 3.32402 10.4999H5.64902C5.44906 12.1606 5.44906 13.8392 5.64902 15.4999H3.32402ZM4.34902 17.9999H6.09902C6.39242 19.1147 6.81179 20.1925 7.34902 21.2124C6.12315 20.3773 5.09839 19.28 4.34902 17.9999ZM6.09902 7.99991H4.34902C5.08761 6.72377 6.09926 5.62675 7.31152 4.78741C6.78722 5.80897 6.38045 6.88669 6.09902 7.99991ZM11.749 22.6249C10.2137 21.4983 9.13546 19.8565 8.71152 17.9999H11.749V22.6249ZM11.749 15.4999H8.17402C7.94076 13.8414 7.94076 12.1584 8.17402 10.4999H11.749V15.4999ZM11.749 7.99991H8.71152C9.13546 6.14337 10.2137 4.50156 11.749 3.37491V7.99991ZM21.649 7.99991H19.899C19.6056 6.88511 19.1863 5.80734 18.649 4.78741C19.8749 5.6225 20.8997 6.71984 21.649 7.99991ZM14.249 3.37491C15.7843 4.50156 16.8626 6.14337 17.2865 7.99991H14.249V3.37491ZM14.249 22.6249V17.9999H17.2865C16.8626 19.8565 15.7843 21.4983 14.249 22.6249ZM17.824 15.4999H14.249V10.4999H17.824C18.0573 12.1584 18.0573 13.8414 17.824 15.4999ZM18.6865 21.2124C19.2238 20.1925 19.6431 19.1147 19.9365 17.9999H21.6865C20.9372 19.28 19.9124 20.3773 18.6865 21.2124ZM22.674 15.4999H20.349C20.4507 14.6705 20.5008 13.8355 20.499 12.9999C20.5004 12.1643 20.4503 11.3294 20.349 10.4999H22.674C23.1075 12.1384 23.1075 13.8614 22.674 15.4999Z" fill="black"/>
</svg>
