<svg width="17" height="18" viewBox="0 0 17 18" fill="none" xmlns="http://www.w3.org/2000/svg">
<path d="M16.1535 6.19994V6.15828C15.5663 4.55513 14.5009 3.17101 13.1014 2.19316C11.7019 1.21531 10.0358 0.690918 8.32852 0.690918C6.62122 0.690918 4.95513 1.21531 3.55561 2.19316C2.15609 3.17101 1.09068 4.55513 0.503516 6.15828C0.503516 6.15828 0.503516 6.15828 0.503516 6.19994C-0.152214 8.00902 -0.152214 9.99086 0.503516 11.7999V11.8416C1.09068 13.4448 2.15609 14.8289 3.55561 15.8067C4.95513 16.7846 6.62122 17.309 8.32852 17.309C10.0358 17.309 11.7019 16.7846 13.1014 15.8067C14.5009 14.8289 15.5663 13.4448 16.1535 11.8416C16.1535 11.8416 16.1535 11.8416 16.1535 11.7999C16.8092 9.99086 16.8092 8.00902 16.1535 6.19994ZM1.86185 10.6666C1.57287 9.57429 1.57287 8.4256 1.86185 7.33327H3.41185C3.27854 8.44039 3.27854 9.5595 3.41185 10.6666H1.86185ZM2.54518 12.3333H3.71185C3.90745 13.0765 4.18703 13.795 4.54518 14.4749C3.72793 13.9182 3.04476 13.1867 2.54518 12.3333ZM3.71185 5.66661H2.54518C3.03757 4.81585 3.71201 4.0845 4.52018 3.52494C4.17064 4.20598 3.89947 4.92446 3.71185 5.66661ZM7.47852 15.4166C6.45499 14.6655 5.73614 13.571 5.45352 12.3333H7.47852V15.4166ZM7.47852 10.6666H5.09518C4.93967 9.56094 4.93967 8.43894 5.09518 7.33327H7.47852V10.6666ZM7.47852 5.66661H5.45352C5.73614 4.42891 6.45499 3.33437 7.47852 2.58328V5.66661ZM14.0785 5.66661H12.9118C12.7163 4.92341 12.4367 4.20489 12.0785 3.52494C12.8958 4.08167 13.5789 4.81323 14.0785 5.66661ZM9.14518 2.58328C10.1687 3.33437 10.8876 4.42891 11.1702 5.66661H9.14518V2.58328ZM9.14518 15.4166V12.3333H11.1702C10.8876 13.571 10.1687 14.6655 9.14518 15.4166ZM11.5285 10.6666H9.14518V7.33327H11.5285C11.684 8.43894 11.684 9.56094 11.5285 10.6666ZM12.1035 14.4749C12.4617 13.795 12.7412 13.0765 12.9368 12.3333H14.1035C13.6039 13.1867 12.9208 13.9182 12.1035 14.4749ZM14.7618 10.6666H13.2118C13.2796 10.1137 13.313 9.55703 13.3118 8.99994C13.3128 8.44286 13.2794 7.88625 13.2118 7.33327H14.7618C15.0508 8.4256 15.0508 9.57429 14.7618 10.6666Z" fill="#D1D9D3"/>
</svg>
