<svg width="12" height="16" viewBox="0 0 12 16" fill="none" xmlns="http://www.w3.org/2000/svg">
<path d="M8.63166 2.17592C8.44025 1.49734 7.81659 1 7.07677 1H4.92293C4.18311 1 3.55945 1.49734 3.36804 2.17592M8.63166 2.17592C8.67107 2.31564 8.69216 2.46305 8.69216 2.61538V2.61538C8.69216 2.91277 8.45108 3.15385 8.1537 3.15385H3.846C3.54862 3.15385 3.30754 2.91277 3.30754 2.61538V2.61538C3.30754 2.46305 3.32863 2.31564 3.36804 2.17592M8.63166 2.17592C9.09559 2.21095 9.55695 2.25517 10.0156 2.3084C10.8057 2.4001 11.3845 3.08133 11.3845 3.87681V13.3846C11.3845 14.2768 10.6612 15 9.76908 15H2.23062C1.33847 15 0.615234 14.2768 0.615234 13.3846V3.87681C0.615234 3.08133 1.19396 2.4001 1.98413 2.3084C2.44275 2.25517 2.90411 2.21095 3.36804 2.17592" stroke="#67788E" stroke-width="0.769231" stroke-linecap="round" stroke-linejoin="round"/>
<path d="M2.61719 11.0371L9.61719 11.0371" stroke="#67788E" stroke-linecap="round"/>
<path d="M2.61719 9.07397L3.61719 9.07397" stroke="#67788E" stroke-linecap="round"/>
<path d="M2.61719 7L3.61719 7" stroke="#67788E" stroke-linecap="round"/>
<path d="M2.61719 4.92603L3.61719 4.92603" stroke="#67788E" stroke-linecap="round"/>
<path d="M2.61719 13L9.61719 13" stroke="#67788E" stroke-linecap="round"/>
<path d="M8.85561 7.8421L9.94886 8.93509L9.58768 9.29627L8.49469 8.20303C8.088 8.52904 7.58216 8.70636 7.06094 8.70562C5.79285 8.70562 4.76367 7.67644 4.76367 6.40835C4.76367 5.14026 5.79285 4.11108 7.06094 4.11108C8.32903 4.11108 9.3582 5.14026 9.3582 6.40835C9.35895 6.92957 9.18163 7.43542 8.85561 7.8421ZM8.34358 7.6527C8.66752 7.31957 8.84843 6.87302 8.8477 6.40835C8.8477 5.42129 8.048 4.62159 7.06094 4.62159C6.07388 4.62159 5.27418 5.42129 5.27418 6.40835C5.27418 7.39541 6.07388 8.19511 7.06094 8.19511C7.52561 8.19584 7.97216 8.01493 8.30529 7.69099L8.34358 7.6527Z" fill="#67788E"/>
</svg>
