<svg width="18" height="14" viewBox="0 0 18 14" fill="none" xmlns="http://www.w3.org/2000/svg">
<path d="M16.5 0.4375H1.5C1.25136 0.4375 1.0129 0.536272 0.837087 0.712087C0.661272 0.887903 0.5625 1.12636 0.5625 1.375V12C0.5625 12.4144 0.72712 12.8118 1.02015 13.1049C1.31317 13.3979 1.7106 13.5625 2.125 13.5625H15.875C16.2894 13.5625 16.6868 13.3979 16.9799 13.1049C17.2729 12.8118 17.4375 12.4144 17.4375 12V1.375C17.4375 1.12636 17.3387 0.887903 17.1629 0.712087C16.9871 0.536272 16.7486 0.4375 16.5 0.4375ZM2.4375 6.0625H4.9375V7.9375H2.4375V6.0625ZM6.8125 6.0625H15.5625V7.9375H6.8125V6.0625ZM15.5625 2.3125V4.1875H2.4375V2.3125H15.5625ZM2.4375 9.8125H4.9375V11.6875H2.4375V9.8125ZM6.8125 11.6875V9.8125H15.5625V11.6875H6.8125Z" fill="black"/>
</svg>
