<svg width="26" height="20" viewBox="0 0 26 20" fill="none" xmlns="http://www.w3.org/2000/svg">
<path d="M23.9062 0H1.40625C1.03329 0 0.675604 0.148158 0.411881 0.411881C0.148158 0.675604 0 1.03329 0 1.40625V17.3438C0 17.9654 0.24693 18.5615 0.686468 19.001C1.12601 19.4406 1.72215 19.6875 2.34375 19.6875H22.9688C23.5904 19.6875 24.1865 19.4406 24.626 19.001C25.0656 18.5615 25.3125 17.9654 25.3125 17.3438V1.40625C25.3125 1.03329 25.1643 0.675604 24.9006 0.411881C24.6369 0.148158 24.2792 0 23.9062 0ZM2.8125 8.4375H6.5625V11.25H2.8125V8.4375ZM9.375 8.4375H22.5V11.25H9.375V8.4375ZM22.5 2.8125V5.625H2.8125V2.8125H22.5ZM2.8125 14.0625H6.5625V16.875H2.8125V14.0625ZM9.375 16.875V14.0625H22.5V16.875H9.375Z" fill="#CFD6DF"/>
</svg>
