<svg width="20" height="20" viewBox="0 0 20 20" fill="none" xmlns="http://www.w3.org/2000/svg">
<path d="M19.7429 15.0275C19.7376 15.1018 19.7297 15.176 19.7217 15.2502C19.7217 15.2529 19.7217 15.2555 19.7217 15.2582V15.2608C19.7217 15.2635 19.7217 15.2661 19.7191 15.2688C19.7138 15.298 19.7111 15.3271 19.7058 15.3563C19.6555 15.6559 19.5814 15.9528 19.4807 16.2418C19.4516 16.324 19.4225 16.4036 19.3907 16.4831C19.3854 16.4937 19.3774 16.5123 19.3695 16.5308C19.3774 16.491 19.3616 16.4831 19.3589 16.56C19.3589 16.56 19.3589 16.56 19.3589 16.5573C19.3589 16.5494 19.3642 16.5414 19.3695 16.5308C19.3669 16.5388 19.3669 16.5494 19.3616 16.5573L19.3589 16.56H19.3563V16.5626C19.3563 16.5626 19.3589 16.5626 19.3589 16.56C19.3033 16.6899 19.2371 16.8172 19.1709 16.9418C19.0464 17.1724 18.906 17.427 18.7339 17.6311C18.7339 17.6338 18.7313 17.6338 18.7313 17.6364C18.7286 17.6391 18.726 17.6444 18.7233 17.647C18.7101 17.6603 18.6968 17.6762 18.6889 17.6868C18.6624 17.7186 18.6359 17.7531 18.6068 17.7849C18.5618 17.8379 18.5141 17.8909 18.4664 17.944C18.3711 18.0474 18.2731 18.1481 18.1698 18.2436C18.0639 18.3417 17.9553 18.4345 17.8441 18.5273C17.8335 18.5352 17.8255 18.5405 17.8202 18.5485C17.8149 18.5538 17.807 18.5591 17.7964 18.567C17.7673 18.5882 17.7408 18.6094 17.7117 18.6307C17.6428 18.681 17.5713 18.7288 17.4971 18.7765C17.3541 18.8693 17.2085 18.9541 17.0602 19.0337C16.9913 19.0708 16.9225 19.1052 16.8536 19.1371C16.8245 19.1503 16.798 19.1636 16.7689 19.1768C16.7609 19.1795 16.745 19.1874 16.7265 19.198C16.7212 19.2007 16.7159 19.2033 16.7106 19.206C16.4405 19.3359 16.1306 19.4128 15.842 19.4791C15.7493 19.5003 15.6566 19.5188 15.5612 19.5348C15.5136 19.5427 15.4659 19.5507 15.4182 19.5586C15.4076 19.5613 15.3865 19.5639 15.3732 19.5692H15.3706C15.2328 19.5904 15.0819 19.5904 14.9442 19.5957C14.6635 19.6063 14.3827 19.5931 14.1047 19.5639C14.0941 19.5639 14.0861 19.5613 14.0808 19.5613C14.0597 19.5586 14.0358 19.5533 14.0146 19.5507C13.9511 19.5401 13.8902 19.5295 13.8266 19.5162C13.7021 19.4923 13.5803 19.4632 13.4585 19.4314C13.3261 19.3969 13.1937 19.3545 13.0639 19.3094C13.0056 19.2882 12.9474 19.267 12.8891 19.2458C12.8653 19.2378 12.8441 19.2272 12.8229 19.2193C12.7885 19.1821 12.6852 19.1583 12.6375 19.1371C12.5872 19.1132 12.5369 19.0893 12.4892 19.0628C12.3806 19.0071 12.272 18.9462 12.1661 18.8825C12.0496 18.8136 11.9384 18.7394 11.8271 18.6625C11.7874 18.6333 11.7477 18.6068 11.708 18.5776C11.6947 18.5564 11.6444 18.5273 11.6232 18.5113C11.4299 18.3523 11.2472 18.1826 11.075 17.9996C10.9876 17.9069 10.9029 17.8088 10.8208 17.7107C10.8049 17.6921 10.7784 17.6417 10.7546 17.6258C10.7254 17.586 10.6963 17.5489 10.6698 17.5092C10.5215 17.297 10.3891 17.077 10.2699 16.849C10.2408 16.7933 10.2143 16.7376 10.1878 16.6819C10.1666 16.6395 10.1481 16.5441 10.1137 16.5149C10.1057 16.4937 10.0951 16.4698 10.0872 16.4486C10.066 16.3903 10.0422 16.332 10.0236 16.2736C9.93624 16.0244 9.86739 15.7699 9.81707 15.5101C9.80383 15.4411 9.79059 15.3722 9.77999 15.3033C9.77734 15.29 9.77734 15.2741 9.7747 15.2582C9.78529 15.298 9.80118 15.3139 9.76675 15.2158C9.75351 15.0991 9.74292 14.9825 9.73762 14.8631C9.72173 14.5476 9.73232 14.2321 9.7694 13.9193V13.9166C9.77205 13.9007 9.78264 13.8371 9.78529 13.8185C9.79323 13.7681 9.80383 13.7178 9.81177 13.6674C9.82766 13.5852 9.8462 13.503 9.86474 13.4208C9.90181 13.2671 9.94683 13.1133 9.99715 12.9648C10.0263 12.8773 10.0581 12.7925 10.0898 12.7076C10.0925 12.6997 10.1243 12.6228 10.1269 12.6148C10.1349 12.5963 10.1428 12.5777 10.1534 12.5565C10.2196 12.4107 10.2938 12.2675 10.3732 12.127C10.4447 11.9997 10.5215 11.8751 10.6036 11.7531C10.6407 11.6975 10.6778 11.6444 10.7175 11.5888C10.7334 11.5676 10.7493 11.5463 10.7652 11.5251C10.7652 11.5225 10.7678 11.5225 10.7678 11.5225L10.7705 11.5198C10.9399 11.313 11.1147 11.1168 11.3081 10.9312C11.414 10.8305 11.5252 10.735 11.6391 10.6423C11.6417 10.6396 11.647 10.6343 11.655 10.629L11.6576 10.6263C11.6576 10.6263 11.6603 10.6263 11.6603 10.6237L11.6629 10.621L11.6656 10.6184C11.6815 10.6051 11.7053 10.5892 11.708 10.5866C11.7609 10.5468 11.8165 10.507 11.8695 10.4699C12.0946 10.3161 12.333 10.1756 12.5792 10.0563C12.6455 10.0245 12.7143 9.99268 12.7805 9.96351C12.7832 9.96086 12.7858 9.96086 12.7885 9.96086C12.8123 9.95026 12.8388 9.93965 12.8626 9.9317C12.9897 9.88132 13.1169 9.8389 13.2466 9.79913C13.3896 9.75406 13.5353 9.71694 13.6836 9.68512C13.8054 9.65861 13.9696 9.60028 14.0914 9.61089C14.0676 9.61354 14.0438 9.61884 14.0173 9.62149C14.0438 9.61884 14.0729 9.61354 14.0994 9.61089C14.1338 9.60824 14.1682 9.60294 14.2027 9.60028C14.2662 9.59498 14.3298 9.58968 14.3933 9.58703C14.5337 9.57907 14.6741 9.57642 14.8144 9.57642C14.9574 9.57907 15.1004 9.58438 15.2434 9.59763C15.2699 9.60028 15.3229 9.61354 15.3679 9.61884C15.3547 9.61354 15.3547 9.60559 15.3944 9.61354C15.4076 9.61619 15.4209 9.61619 15.4341 9.61884C15.458 9.62149 15.4844 9.6268 15.5083 9.62945C15.7572 9.67187 16.0035 9.7302 16.2445 9.80443C16.3743 9.8442 16.504 9.88928 16.6312 9.93965C16.655 9.94761 16.6762 9.95821 16.7 9.96882C16.7556 9.99533 16.8112 10.0192 16.8642 10.0457C17.092 10.1544 17.3118 10.279 17.521 10.4195C17.5766 10.4567 17.6322 10.4938 17.6878 10.5335C17.7302 10.5627 17.7832 10.621 17.8308 10.6396C17.8494 10.6555 17.8679 10.6714 17.8864 10.6873C17.9341 10.7271 17.9791 10.7669 18.0268 10.8066C18.2175 10.9763 18.4002 11.1593 18.5671 11.3528C18.6068 11.4005 18.6465 11.4482 18.6836 11.4933C18.6836 11.4907 18.6836 11.4907 18.6809 11.488C18.6809 11.4907 18.6836 11.4907 18.6836 11.4933C18.6862 11.4986 18.6915 11.5013 18.6942 11.5066C18.7021 11.5172 18.7074 11.5251 18.7127 11.5331C18.7207 11.5437 18.7313 11.5517 18.7366 11.5623C18.8054 11.6551 18.8716 11.7505 18.9352 11.8486C19.0755 12.066 19.2 12.2914 19.3086 12.5273C19.3245 12.5618 19.3404 12.5963 19.3536 12.6281C19.3536 12.6307 19.3563 12.6307 19.3563 12.6334C19.3563 12.6334 19.3563 12.636 19.3589 12.636C19.3801 12.6891 19.4013 12.7421 19.4225 12.7978C19.4648 12.9091 19.5019 13.0205 19.5337 13.1345C19.6078 13.3811 19.6635 13.6356 19.7032 13.8901C19.6952 13.9113 19.7138 13.9803 19.7164 14.0041C19.7244 14.0677 19.7297 14.134 19.7323 14.1977C19.7403 14.3276 19.7456 14.4575 19.7456 14.5901C19.7588 14.7279 19.7535 14.8764 19.7429 15.0275ZM11.6841 18.5458C11.6656 18.5326 11.6576 18.5246 11.655 18.5246C11.6603 18.5273 11.6947 18.5538 11.708 18.5644C11.7 18.5591 11.6921 18.5538 11.6841 18.5458ZM10.7863 17.647C10.7811 17.6391 10.7731 17.6311 10.7678 17.6232C10.7811 17.6391 10.8049 17.6735 10.8075 17.6788C10.8075 17.6735 10.7996 17.6656 10.7863 17.647ZM9.77999 15.2184C9.77999 15.2131 9.77999 15.2105 9.77734 15.2052C9.77999 15.2184 9.78264 15.2317 9.78264 15.2449C9.78264 15.237 9.77999 15.229 9.77999 15.2184ZM9.7747 15.1972C9.7747 15.1999 9.77734 15.2025 9.77734 15.2052C9.77734 15.2052 9.77734 15.2052 9.77734 15.2078C9.77734 15.2025 9.77734 15.1999 9.7747 15.1972Z" fill="#D32D2F"/>
<path d="M14.3848 15.2802L13.3372 14.2326L12.9805 14.5868L14.3848 15.9911L17.3994 12.9765L17.0451 12.6223L14.3848 15.2802Z" fill="white" stroke="white" stroke-width="0.411426"/>
<path fill-rule="evenodd" clip-rule="evenodd" d="M16.2939 8.29379C16.2844 8.29199 16.2749 8.29103 16.2654 8.29008C16.2553 8.28907 16.2452 8.28807 16.2351 8.28605C16.1747 8.27395 16.1747 8.28605 16.1948 8.29412C16.1578 8.28976 16.1173 8.28186 16.0815 8.27489C16.051 8.26896 16.024 8.2637 16.0054 8.26184C15.7878 8.24167 15.5702 8.2336 15.3526 8.22957C15.1391 8.22957 14.9255 8.2336 14.7119 8.24571C14.6152 8.24974 14.5185 8.25781 14.4218 8.26588C14.3956 8.26789 14.3694 8.27092 14.3432 8.27394C14.317 8.27697 14.2908 8.28 14.2646 8.28201C14.2445 8.28403 14.2233 8.28706 14.2022 8.29008C14.181 8.29311 14.1599 8.29613 14.1397 8.29815C14.1614 8.29598 14.1819 8.29265 14.2018 8.2894C14.219 8.28661 14.2358 8.28388 14.2525 8.28201C14.116 8.27013 13.9446 8.31512 13.7896 8.35578C13.7342 8.37034 13.6808 8.38434 13.632 8.39497C13.4063 8.44338 13.1847 8.49986 12.9671 8.56845C12.7696 8.62896 12.5762 8.69351 12.3828 8.77016C12.3465 8.78226 12.3062 8.79839 12.27 8.81453C12.2659 8.81453 12.2619 8.81453 12.2579 8.81857C12.1571 8.86294 12.0524 8.91135 11.9516 8.95976C11.5769 9.1413 11.2142 9.35512 10.8717 9.5891C10.7911 9.64558 10.7065 9.7061 10.6259 9.76661C10.6243 9.76818 10.6179 9.77279 10.6091 9.77904C10.5955 9.78885 10.5762 9.80269 10.5614 9.81502L10.5574 9.81906L10.5533 9.82309C10.5533 9.82712 10.5493 9.82712 10.5493 9.82712L10.5453 9.83116C10.5332 9.83923 10.5251 9.84729 10.5211 9.85133C10.3478 9.99253 10.1786 10.1378 10.0174 10.2911C9.72321 10.5735 9.45726 10.872 9.19936 11.1867L9.19533 11.1907C9.19533 11.1907 9.1913 11.1907 9.1913 11.1947L9.11877 11.2916C9.05832 11.3763 9.00191 11.457 8.94549 11.5417C8.82057 11.7272 8.70371 11.9169 8.59491 12.1105C8.47402 12.3243 8.36119 12.5422 8.26045 12.764C8.24433 12.7963 8.23225 12.8246 8.22016 12.8528C8.21814 12.8588 8.20505 12.8911 8.19195 12.9234C8.17886 12.9557 8.16576 12.9879 8.16374 12.994C8.11538 13.1231 8.06703 13.2522 8.0227 13.3853C7.94614 13.6112 7.87764 13.8452 7.82122 14.0792C7.79301 14.2043 7.76481 14.3293 7.74063 14.4544C7.73458 14.4927 7.72753 14.531 7.72048 14.5694C7.71343 14.6077 7.70638 14.646 7.70033 14.6843C7.6963 14.7126 7.68018 14.8094 7.67615 14.8336V14.8376C7.61974 15.3137 7.60362 15.7938 7.6278 16.2738C7.62938 16.3094 7.63126 16.3448 7.63343 16.3801H1.90293C1.33522 16.3801 0.875 15.9198 0.875 15.3521V1.98911C0.875 1.4214 1.33522 0.961182 1.90293 0.961182H5.92601V5.21467C5.92601 5.60991 6.34196 5.86698 6.69548 5.69022L8.58444 4.74574L10.4734 5.69022C10.8269 5.86698 11.2429 5.60991 11.2429 5.21467V0.961182H15.266C15.8337 0.961182 16.2939 1.4214 16.2939 1.98911V8.29379Z" fill="#FABFAB"/>
<path fill-rule="evenodd" clip-rule="evenodd" d="M6.99219 0.961182H10.1823V4.35438L8.82502 3.67574C8.67534 3.6009 8.49915 3.6009 8.34946 3.67574L6.99219 4.35438V0.961182Z" fill="#FABFAB"/>
</svg>
