<svg width="17" height="17" viewBox="0 0 17 17" fill="none" xmlns="http://www.w3.org/2000/svg">
<path d="M9.36102 2.77881V4.67676H8.38348V2.77881H9.36102ZM9.24042 13.1445V14.8457H8.26923V13.1445H9.24042ZM10.1989 11.0942C10.1989 10.8488 10.1481 10.6351 10.0466 10.4531C9.94924 10.2669 9.78843 10.0998 9.56415 9.95166C9.33986 9.79932 9.03941 9.65755 8.66278 9.52637C8.12111 9.33594 7.64716 9.12223 7.24091 8.88525C6.83889 8.64404 6.52574 8.34782 6.30145 7.99658C6.0814 7.64111 5.97137 7.19889 5.97137 6.66992C5.97137 6.14941 6.08986 5.69873 6.32684 5.31787C6.56805 4.93701 6.90236 4.6429 7.32977 4.43555C7.75718 4.22819 8.25653 4.12451 8.82782 4.12451C9.26792 4.12451 9.66359 4.1901 10.0148 4.32129C10.3703 4.45247 10.6729 4.64502 10.9225 4.89893C11.1722 5.15283 11.3627 5.46598 11.4938 5.83838C11.6293 6.20654 11.697 6.62972 11.697 7.10791H10.1735C10.1735 6.83708 10.1418 6.59587 10.0783 6.38428C10.0191 6.16846 9.9302 5.98649 9.81171 5.83838C9.69322 5.68604 9.54934 5.56966 9.38007 5.48926C9.21503 5.40885 9.02671 5.36865 8.81512 5.36865C8.51467 5.36865 8.26711 5.42578 8.07245 5.54004C7.87779 5.65007 7.73391 5.80241 7.64081 5.99707C7.55194 6.19173 7.50751 6.4139 7.50751 6.66357C7.50751 6.90479 7.55406 7.11637 7.64716 7.29834C7.74025 7.48031 7.89895 7.64535 8.12323 7.79346C8.35175 7.93734 8.6649 8.08333 9.06268 8.23145C9.60858 8.42611 10.0804 8.64404 10.4782 8.88525C10.8802 9.12223 11.1891 9.41634 11.405 9.76758C11.625 10.1146 11.735 10.5526 11.735 11.0815C11.735 11.6274 11.6081 12.0908 11.3542 12.4717C11.1045 12.8525 10.7533 13.1424 10.3005 13.3413C9.85191 13.536 9.32928 13.6333 8.7326 13.6333C8.35598 13.6333 7.98147 13.5846 7.60907 13.4873C7.24091 13.3857 6.9066 13.2207 6.60614 12.9922C6.30568 12.7637 6.06659 12.4611 5.88885 12.0845C5.71112 11.7036 5.62225 11.2381 5.62225 10.688H7.15839C7.15839 11.0181 7.20282 11.2931 7.29169 11.5132C7.38055 11.7332 7.50116 11.9067 7.6535 12.0337C7.80585 12.1606 7.97512 12.2516 8.16132 12.3066C8.35175 12.3617 8.54218 12.3892 8.7326 12.3892C9.04999 12.3892 9.31659 12.3363 9.53241 12.2305C9.75246 12.1204 9.9175 11.9681 10.0275 11.7734C10.1418 11.5745 10.1989 11.3481 10.1989 11.0942Z" fill="#DA1E28"/>
</svg>
