<svg width="12" height="12" viewBox="0 0 12 12" fill="none" xmlns="http://www.w3.org/2000/svg">
<path d="M9.18076 8.41508L11.5 10.7338L10.7338 11.5L8.41508 9.18076C7.55233 9.87238 6.47923 10.2485 5.37349 10.247C2.68332 10.247 0.5 8.06365 0.5 5.37349C0.5 2.68332 2.68332 0.5 5.37349 0.5C8.06365 0.5 10.247 2.68332 10.247 5.37349C10.2485 6.47923 9.87238 7.55233 9.18076 8.41508ZM8.09452 8.01329C8.78174 7.30657 9.16553 6.35925 9.16398 5.37349C9.16398 3.27951 7.46746 1.583 5.37349 1.583C3.27951 1.583 1.583 3.27951 1.583 5.37349C1.583 7.46746 3.27951 9.16398 5.37349 9.16398C6.35925 9.16553 7.30657 8.78174 8.01329 8.09452L8.09452 8.01329Z" fill="#94A2B2"/>
</svg>
