<svg width="14" height="14" viewBox="0 0 14 14" fill="none" xmlns="http://www.w3.org/2000/svg">
<path d="M2.25 1.125C1.62868 1.125 1.125 1.62868 1.125 2.25V11.25C1.125 11.8713 1.62868 12.375 2.25 12.375V8.4375C2.25 7.50552 3.00552 6.75 3.9375 6.75H9.5625C10.4945 6.75 11.25 7.50552 11.25 8.4375V12.375C11.8713 12.375 12.375 11.8713 12.375 11.25V4.07399C12.375 3.77562 12.2565 3.48947 12.0455 3.27849L10.2215 1.4545C10.0105 1.24353 9.72438 1.125 9.42601 1.125H9V2.8125C9 3.74448 8.24448 4.5 7.3125 4.5H5.0625C4.13052 4.5 3.375 3.74448 3.375 2.8125V1.125H2.25ZM4.5 1.125V2.8125C4.5 3.12316 4.75184 3.375 5.0625 3.375H7.3125C7.62316 3.375 7.875 3.12316 7.875 2.8125V1.125H4.5ZM10.125 12.375V8.4375C10.125 8.12684 9.87316 7.875 9.5625 7.875H3.9375C3.62684 7.875 3.375 8.12684 3.375 8.4375V12.375H10.125ZM0 2.25C0 1.00736 1.00736 0 2.25 0H9.42601C10.0228 0 10.595 0.237053 11.017 0.65901L12.841 2.483C13.2629 2.90495 13.5 3.47725 13.5 4.07399V11.25C13.5 12.4926 12.4926 13.5 11.25 13.5H2.25C1.00736 13.5 0 12.4926 0 11.25V2.25Z" fill="#212121"/>
</svg>
