<svg width="12" height="14" viewBox="0 0 12 14" fill="none" xmlns="http://www.w3.org/2000/svg">
<path d="M2 0C2.27614 0 2.5 0.215823 2.5 0.482055V0.96411H4.5V0.482055C4.5 0.215823 4.72386 0 5 0C5.27614 0 5.5 0.215823 5.5 0.482055V0.96411H7.5V0.482055C7.5 0.215823 7.72386 0 8 0C8.27614 0 8.5 0.215823 8.5 0.482055V0.96411C9.32843 0.96411 10 1.61158 10 2.41028V4.8553C9.64799 4.91439 9.30634 5.04473 9 5.24632V2.41028C9 2.14404 8.77614 1.92822 8.5 1.92822H1.5C1.22386 1.92822 1 2.14404 1 2.41028V12.0514C1 12.3176 1.22386 12.5334 1.5 12.5334H3.04666L3.0461 12.5356C2.95763 12.8768 2.99196 13.2083 3.11523 13.4975H1.5C0.671573 13.4975 0 12.8501 0 12.0514V2.41028C0 1.61158 0.671573 0.96411 1.5 0.96411V0.482055C1.5 0.215823 1.72386 0 2 0ZM7 6.74877C7.1071 6.74877 7.20634 6.78124 7.2877 6.83652L6.37872 7.71288H3C2.72386 7.71288 2.5 7.49706 2.5 7.23083C2.5 6.96459 2.72386 6.74877 3 6.74877H7ZM3.99583 10.0606C3.96404 9.82394 3.75417 9.6411 3.5 9.6411H3C2.72386 9.6411 2.5 9.85693 2.5 10.1232C2.5 10.3894 2.72386 10.6052 3 10.6052H3.5C3.55475 10.6052 3.60744 10.5967 3.65673 10.5811C3.75426 10.3989 3.86767 10.2247 3.99583 10.0606ZM3 3.85644C2.72386 3.85644 2.5 4.07226 2.5 4.3385C2.5 4.60473 2.72386 4.82055 3 4.82055H7C7.27614 4.82055 7.5 4.60473 7.5 4.3385C7.5 4.07226 7.27614 3.85644 7 3.85644H3ZM9.33748 6.22336C9.94696 5.63576 10.9351 5.63576 11.5446 6.22336C12.1541 6.81096 12.1541 7.76365 11.5446 8.35126L7.25621 12.4857C6.90029 12.8289 6.45434 13.0723 5.96602 13.19L4.75486 13.4819C4.30853 13.5895 3.90424 13.1997 4.01582 12.7694L4.31861 11.6017C4.44069 11.1309 4.69319 10.701 5.04911 10.3578L9.33748 6.22336Z" fill="#212121"/>
</svg>
