<svg width="18" height="19" viewBox="0 0 18 19" fill="none" xmlns="http://www.w3.org/2000/svg">
<path d="M13.4999 17C12.8749 17 12.3436 16.7812 11.9061 16.3437C11.4686 15.9062 11.2499 15.375 11.2499 14.75C11.2499 14.6625 11.2561 14.5717 11.2686 14.4777C11.2811 14.3837 11.2999 14.2995 11.3249 14.225L6.03738 11.15C5.82488 11.3375 5.58738 11.4845 5.32488 11.591C5.06238 11.6975 4.78738 11.7505 4.49988 11.75C3.87488 11.75 3.34363 11.5312 2.90613 11.0937C2.46863 10.6562 2.24988 10.125 2.24988 9.5C2.24988 8.875 2.46863 8.34375 2.90613 7.90625C3.34363 7.46875 3.87488 7.25 4.49988 7.25C4.78738 7.25 5.06238 7.30325 5.32488 7.40975C5.58738 7.51625 5.82488 7.663 6.03738 7.85L11.3249 4.775C11.2999 4.7 11.2811 4.61575 11.2686 4.52225C11.2561 4.42875 11.2499 4.338 11.2499 4.25C11.2499 3.625 11.4686 3.09375 11.9061 2.65625C12.3436 2.21875 12.8749 2 13.4999 2C14.1249 2 14.6561 2.21875 15.0936 2.65625C15.5311 3.09375 15.7499 3.625 15.7499 4.25C15.7499 4.875 15.5311 5.40625 15.0936 5.84375C14.6561 6.28125 14.1249 6.5 13.4999 6.5C13.2124 6.5 12.9374 6.447 12.6749 6.341C12.4124 6.235 12.1749 6.088 11.9624 5.9L6.67488 8.975C6.69988 9.05 6.71863 9.1345 6.73113 9.2285C6.74363 9.3225 6.74988 9.413 6.74988 9.5C6.74988 9.5875 6.74363 9.67825 6.73113 9.77225C6.71863 9.86625 6.69988 9.9505 6.67488 10.025L11.9624 13.1C12.1749 12.9125 12.4124 12.7657 12.6749 12.6597C12.9374 12.5537 13.2124 12.5005 13.4999 12.5C14.1249 12.5 14.6561 12.7187 15.0936 13.1562C15.5311 13.5937 15.7499 14.125 15.7499 14.75C15.7499 15.375 15.5311 15.9062 15.0936 16.3437C14.6561 16.7812 14.1249 17 13.4999 17Z" fill="#979797"/>
</svg>
