<svg width="16" height="10" viewBox="0 0 16 10" fill="none" xmlns="http://www.w3.org/2000/svg">
<path fill-rule="evenodd" clip-rule="evenodd" d="M13.3499 4.84848V3.36727C13.3499 3.18545 13.2287 3.06424 13.0469 3.06424H11.4305V1.14396C11.4305 0.962141 11.3092 0.840929 11.1274 0.840929H8.09712C7.91531 0.840929 7.79409 0.962141 7.79409 1.14396V3.06424H5.77426C5.59244 3.06424 5.47123 3.18545 5.47123 3.36727V5.75758H4.39405V2.42424H3.78799V0H2.57587V2.42424H1.36375C1.36375 2.42424 0.75769 3.33333 0.75769 5.75758C0.75769 7.2611 1.3405 8.18182 1.78319 8.88119C2.05429 9.30946 2.27284 9.65473 2.27284 10H13.485C13.485 9.42003 13.8402 9.10646 14.2786 8.71938C14.9857 8.09523 15.9092 7.27995 15.9092 4.84848H13.3499ZM9.71358 5.75758V4.17426H9.10759V5.75758H9.71358Z" fill="#495A6E"/>
</svg>
