<svg width="24" height="25" viewBox="0 0 24 25" fill="none" xmlns="http://www.w3.org/2000/svg">
<path d="M3.92067 17.6937L4.49644 17.3359C5.42522 19.207 7.21631 19.9286 9.15169 20.0943C10.6443 20.2222 11.4451 21.0079 11.7891 21.4634C11.8944 21.6029 12.1022 21.6029 12.2075 21.4634C12.5515 21.0079 13.3523 20.2222 14.845 20.0943C16.7803 19.9286 18.5714 19.207 19.5002 17.3359L20.076 17.6937C20.1949 17.7676 20.3479 17.6771 20.3402 17.5372L20.2266 15.4605C20.22 15.3405 20.0962 15.2636 19.9857 15.3109L18.0733 16.1284C17.9445 16.1835 17.931 16.3607 18.05 16.4346L18.6893 16.8319C18.319 17.3899 17.1542 18.6169 15.2527 18.496C15.2527 18.496 15.2525 18.496 15.2522 18.4959C13.6901 18.3603 12.9997 17.6059 12.9163 15.9649L12.6668 10.8278L13.7307 10.8309C13.8312 10.8309 13.9126 10.7495 13.9126 10.649L13.9198 10.021C13.9198 9.92051 13.8383 9.83909 13.7378 9.83909H12.6338L12.4621 7.81653C13.4637 7.60324 14.2151 6.71388 14.2151 5.64865C14.2151 4.42437 13.2226 3.43188 11.9983 3.43188C10.774 3.43188 9.7815 4.42437 9.7815 5.64865C9.7815 6.71388 10.5329 7.60324 11.5345 7.81653L11.3629 9.83909H10.2588C10.1583 9.83909 10.0769 9.92051 10.0769 10.021L10.0841 10.649C10.0841 10.7495 10.1655 10.8309 10.266 10.8309L11.3299 10.8278L11.0805 15.9649C10.997 17.6059 10.3066 18.3604 8.74449 18.4959C8.7442 18.496 8.74402 18.496 8.74402 18.496C6.84244 18.6169 5.67769 17.3899 5.30742 16.8319L5.9467 16.4346C6.06567 16.3607 6.05217 16.1835 5.92336 16.1284L4.01105 15.3109C3.90056 15.2636 3.77672 15.3406 3.77016 15.4605L3.65653 17.5372C3.6488 17.677 3.80175 17.7676 3.92067 17.6937ZM10.935 5.64865C10.935 5.06145 11.4111 4.58538 11.9983 4.58538C12.5856 4.58538 13.0616 5.0614 13.0616 5.64865C13.0616 6.2359 12.5856 6.71196 11.9983 6.71196C11.4111 6.71196 10.935 6.2359 10.935 5.64865Z" fill="#495A6E"/>
</svg>
