<svg width="24" height="24" viewBox="0 0 24 24" fill="none" xmlns="http://www.w3.org/2000/svg">
<path d="M14.4615 9.7025H17.5385M14.4615 11.9999H17.5385M14.4615 14.2974H17.5385M5.84615 17.7435H18.1538C19.1734 17.7435 20 16.9721 20 16.0205V7.97942C20 7.0278 19.1734 6.25635 18.1538 6.25635H5.84615C4.82655 6.25635 4 7.0278 4 7.97942V16.0205C4 16.9721 4.82655 17.7435 5.84615 17.7435ZM10.7692 9.98968C10.7692 10.7827 10.0804 11.4256 9.23077 11.4256C8.3811 11.4256 7.69231 10.7827 7.69231 9.98968C7.69231 9.19666 8.3811 8.55378 9.23077 8.55378C10.0804 8.55378 10.7692 9.19666 10.7692 9.98968ZM11.8309 14.8421C11.0555 15.2276 10.1704 15.4461 9.23064 15.4461C8.29085 15.4461 7.40574 15.2276 6.63041 14.8421C7.01937 13.8538 8.03678 13.1487 9.23064 13.1487C10.4245 13.1487 11.4419 13.8538 11.8309 14.8421Z" stroke="#181E25" stroke-linecap="round" stroke-linejoin="round"/>
</svg>
