<svg width="13" height="14" viewBox="0 0 13 14" fill="none" xmlns="http://www.w3.org/2000/svg">
<path d="M3.25 11.8502V6.1627C3.25 5.71404 2.88615 5.37305 2.4375 5.37305H0.8125C0.363848 5.37305 0 5.73689 0 6.1627V11.8273C0 12.276 0.363848 12.617 0.8125 12.617H2.4375C2.88691 12.6627 3.25 12.3199 3.25 11.8502ZM13 6.18809C13 5.51523 12.4546 4.96984 11.7812 4.96984H8.06152C8.63967 4.00729 8.93801 2.91625 8.93801 2.53184C8.9375 1.93312 8.46777 1.31055 7.68066 1.31055C6.07775 1.31055 7.01137 3.24404 4.9334 4.90586L4.51953 5.23594C4.21992 5.47715 4.06758 5.83008 4.06504 6.18555L4.0625 10.248C4.0625 10.6314 4.2431 10.9928 4.55 11.2228L5.41684 11.8725C6.11914 12.4012 6.9748 12.6855 7.85332 12.6855H9.34375C10.0171 12.6855 10.5625 12.1404 10.5625 11.4673C10.5625 11.375 10.5503 11.2859 10.5309 11.1994C11.0195 11.0402 11.375 10.5883 11.375 10.0449C11.375 9.81265 11.3065 9.59779 11.1937 9.4132C11.7584 9.30859 12.1875 8.81348 12.1875 8.21934C12.1875 7.90195 12.0633 7.61555 11.8645 7.39871C12.4973 7.35605 13 6.83301 13 6.18809Z" fill="#42BE65"/>
</svg>
