<svg width="46" height="46" viewBox="0 0 46 46" fill="none" xmlns="http://www.w3.org/2000/svg">
<rect x="0.5" y="0.5" width="45" height="45" rx="5.5" fill="#F8FAFC"/>
<rect x="0.5" y="0.5" width="45" height="45" rx="5.5" stroke="#F3F5F7"/>
<path opacity="0.6" d="M14.5625 16.4375H31.4375C31.9531 16.4375 32.375 16.8594 32.375 17.375V24.875C32.375 25.3906 31.9531 25.8125 31.4375 25.8125H14.5625C14.0469 25.8125 13.625 25.3906 13.625 24.875V17.375C13.625 16.8594 14.0469 16.4375 14.5625 16.4375Z" fill="#F1927F"/>
<path d="M14.5625 14.5625H31.4375C31.9531 14.5625 32.375 14.9844 32.375 15.5V23C32.375 23.5156 31.9531 23.9375 31.4375 23.9375H14.5625C14.0469 23.9375 13.625 23.5156 13.625 23V15.5C13.625 14.9844 14.0469 14.5625 14.5625 14.5625Z" fill="#F1927F"/>
<path d="M14.5625 12.6875H31.4375C31.9531 12.6875 32.375 13.1094 32.375 13.625V21.125C32.375 21.6406 31.9531 22.0625 31.4375 22.0625H14.5625C14.0469 22.0625 13.625 21.6406 13.625 21.125V13.625C13.625 13.1094 14.0469 12.6875 14.5625 12.6875Z" fill="#FABFAB"/>
<path d="M23 21.125C25.0711 21.125 26.75 19.4461 26.75 17.375C26.75 15.3039 25.0711 13.625 23 13.625C20.9289 13.625 19.25 15.3039 19.25 17.375C19.25 19.4461 20.9289 21.125 23 21.125Z" fill="#D32D2F"/>
<path d="M16.9062 18.3125C17.424 18.3125 17.8438 17.8928 17.8438 17.375C17.8438 16.8572 17.424 16.4375 16.9062 16.4375C16.3885 16.4375 15.9688 16.8572 15.9688 17.375C15.9688 17.8928 16.3885 18.3125 16.9062 18.3125Z" fill="#D32D2F"/>
<path d="M29.0938 18.3125C29.6115 18.3125 30.0312 17.8928 30.0312 17.375C30.0312 16.8572 29.6115 16.4375 29.0938 16.4375C28.576 16.4375 28.1562 16.8572 28.1562 17.375C28.1562 17.8928 28.576 18.3125 29.0938 18.3125Z" fill="#D32D2F"/>
<path d="M12.2188 32.375H33.7812" stroke="#F1927F" stroke-width="1.875" stroke-miterlimit="10" stroke-linejoin="round"/>
<path d="M22.0625 30.5L20.6562 29.0938L19.25 30.5V34.25H22.0625V30.5Z" fill="#D32D2F"/>
<path d="M22.0625 33.3125H19.25V34.25H22.0625V33.3125Z" fill="#F1927F"/>
</svg>
