<svg width="46" height="46" viewBox="0 0 46 46" fill="none" xmlns="http://www.w3.org/2000/svg">
<rect x="0.5" y="0.5" width="45" height="45" rx="5.5" fill="#F8FAFC"/>
<rect x="0.5" y="0.5" width="45" height="45" rx="5.5" stroke="#F3F5F7"/>
<path d="M23 20.1875H18.3125C18.0312 20.1875 17.8438 20.375 17.8438 20.6562V24.875C17.8438 25.1562 18.0312 25.3438 18.3125 25.3438H23C23.2812 25.3438 23.4688 25.1562 23.4688 24.875V20.6562C23.4688 20.375 23.2812 20.1875 23 20.1875Z" fill="#D32D2F"/>
<path d="M24.875 14.0938H20.1875C19.9062 14.0938 19.7188 14.2812 19.7188 14.5625V18.7812C19.7188 19.0625 19.9062 19.25 20.1875 19.25H24.875C25.1562 19.25 25.3438 19.0625 25.3438 18.7812V14.5625C25.3438 14.2812 25.1562 14.0938 24.875 14.0938Z" fill="#D32D2F"/>
<path d="M29.5625 20.1875H24.875C24.5937 20.1875 24.4062 20.375 24.4062 20.6562V24.875C24.4062 25.1562 24.5937 25.3438 24.875 25.3438H29.5625C29.8438 25.3438 30.0312 25.1562 30.0312 24.875V20.6562C30.0312 20.375 29.8438 20.1875 29.5625 20.1875Z" fill="#D32D2F"/>
<path d="M21.5938 20.1875H19.7188V22.0625H21.5938V20.1875Z" fill="#FABFAB"/>
<path d="M28.1562 20.1875H26.2812V22.0625H28.1562V20.1875Z" fill="#FABFAB"/>
<path d="M23.4688 14.0938H21.5938V15.9688H23.4688V14.0938Z" fill="#FABFAB"/>
<path d="M27.9219 23.9375L27.3594 25.3438H16.9062V20.1875H15.9688V16.4375H14.0938V20.1875H12.2188C12.2188 20.1875 11.2812 21.5938 11.2812 25.3438C11.2812 29.0938 13.625 30.5 13.625 31.9062H30.9688C30.9688 29.5625 34.7188 30.0312 34.7188 23.9375H27.9219Z" fill="#FABFAB"/>
<path d="M22.0625 29.0938C22.5803 29.0938 23 28.674 23 28.1562C23 27.6385 22.5803 27.2188 22.0625 27.2188C21.5447 27.2188 21.125 27.6385 21.125 28.1562C21.125 28.674 21.5447 29.0938 22.0625 29.0938Z" fill="white"/>
<path d="M26.75 29.0938C27.2678 29.0938 27.6875 28.674 27.6875 28.1562C27.6875 27.6385 27.2678 27.2188 26.75 27.2188C26.2322 27.2188 25.8125 27.6385 25.8125 28.1562C25.8125 28.674 26.2322 29.0938 26.75 29.0938Z" fill="white"/>
<path d="M17.375 29.0938C17.8928 29.0938 18.3125 28.674 18.3125 28.1562C18.3125 27.6385 17.8928 27.2188 17.375 27.2188C16.8572 27.2188 16.4375 27.6385 16.4375 28.1562C16.4375 28.674 16.8572 29.0938 17.375 29.0938Z" fill="white"/>
<path d="M15.9688 21.5938H13.625V23H15.9688V21.5938Z" fill="white"/>
<path d="M15.9688 23.9375H13.625V25.3438H15.9688V23.9375Z" fill="white"/>
</svg>
