<svg width="19" height="12" viewBox="0 0 19 12" fill="none" xmlns="http://www.w3.org/2000/svg">
<path fill-rule="evenodd" clip-rule="evenodd" d="M15.7106 5.69523V3.95549C15.7106 3.74191 15.5682 3.59953 15.3547 3.59953H13.4561V1.34436C13.4561 1.13079 13.3138 0.988407 13.1002 0.988407H9.54067C9.3271 0.988407 9.18472 1.13079 9.18472 1.34436V3.59953H6.81182C6.59825 3.59953 6.45587 3.74191 6.45587 3.95549V6.76308H5.19012V2.84761H4.47822V0H3.05441V2.84761H1.6306C1.6306 2.84761 0.918701 3.91547 0.918701 6.76308C0.918701 8.52918 1.60329 9.6107 2.1233 10.4322C2.44174 10.9353 2.69846 11.3408 2.69846 11.7464H15.8687C15.8687 11.0651 16.2859 10.6968 16.801 10.2421C17.6315 9.50898 18.7163 8.55132 18.7163 5.69523H15.7106ZM11.4392 6.76308V4.90388H10.7273V6.76308H11.4392Z" fill="#94A2B2"/>
</svg>
