<svg width="20" height="21" viewBox="0 0 20 21" fill="none" xmlns="http://www.w3.org/2000/svg">
<path fill-rule="evenodd" clip-rule="evenodd" d="M10 0.5C8.89543 0.5 8 1.39543 8 2.5V3.74922C4.41773 4.6499 1.75 7.88757 1.75 11.7482C1.75 12.1625 2.08579 12.4982 2.5 12.4982H17.5C17.9142 12.4982 18.25 12.1625 18.25 11.7482C18.25 7.87719 15.5964 4.62596 12 3.73906V2.5C12 1.39543 11.1046 0.5 10 0.5ZM10.5 6.75C10.5 6.33579 10.8358 6 11.25 6C13.136 6 14.4346 6.99093 15.3645 8.32004C15.602 8.65943 15.5193 9.12706 15.18 9.36452C14.8406 9.60198 14.3729 9.51935 14.1355 9.17996C13.3927 8.11836 12.5032 7.5 11.25 7.5C10.8358 7.5 10.5 7.16421 10.5 6.75ZM2 13.5C0.895431 13.5 0 14.3954 0 15.5C0 16.6046 0.89543 17.5 2 17.5H7C7 19.1569 8.34315 20.5 10 20.5C11.6569 20.5 13 19.1569 13 17.5H18C19.1046 17.5 20 16.6046 20 15.5C20 14.3954 19.1046 13.5 18 13.5H2Z" fill="#3A3A3A"/>
</svg>
