<svg width="22" height="22" viewBox="0 0 22 22" fill="none" xmlns="http://www.w3.org/2000/svg">
<path d="M16.0184 10.3283C16.0184 10.2854 16.0255 10.2426 16.0255 10.1997C16.0255 7.87844 14.1755 6 11.8934 6C10.2469 6 8.83265 6.9785 8.16836 8.39269C7.87907 8.24627 7.55407 8.16056 7.21122 8.16056C6.15765 8.16056 5.27907 8.94265 5.11122 9.96401C3.84693 10.3997 2.94336 11.6103 2.94336 13.0352C2.94336 14.828 4.3755 16.285 6.13979 16.285H9.8005V13.4281H8.07907L10.9434 10.439L13.8076 13.4245H12.0862V16.2814H16.0255C17.6398 16.2814 18.9434 14.9422 18.9434 13.3031C18.9434 11.6639 17.6326 10.3318 16.0184 10.3283Z" fill="#384656"/>
</svg>
