<svg width="16" height="12" viewBox="0 0 16 12" fill="none" xmlns="http://www.w3.org/2000/svg">
<path d="M1.87923 7.00033L1.37923 6.00033H4.87923L4.47923 5.00033H1.21257L0.712565 4.00033H5.91256L5.51256 3.00033H0.619232L0.0458984 2.00033H2.5459C2.5459 1.6467 2.68637 1.30756 2.93642 1.05752C3.18647 0.807468 3.52561 0.666992 3.87923 0.666992H11.8792V3.33366H13.8792L15.8792 6.00033V9.33366H14.5459C14.5459 9.86409 14.3352 10.3728 13.9601 10.7479C13.585 11.1229 13.0763 11.3337 12.5459 11.3337C12.0155 11.3337 11.5068 11.1229 11.1317 10.7479C10.7566 10.3728 10.5459 9.86409 10.5459 9.33366H7.87923C7.87923 9.86409 7.66852 10.3728 7.29345 10.7479C6.91837 11.1229 6.40966 11.3337 5.87923 11.3337C5.3488 11.3337 4.84009 11.1229 4.46502 10.7479C4.08995 10.3728 3.87923 9.86409 3.87923 9.33366H2.5459V7.00033H1.87923ZM12.5459 10.3337C12.8111 10.3337 13.0655 10.2283 13.253 10.0408C13.4405 9.85323 13.5459 9.59888 13.5459 9.33366C13.5459 9.06844 13.4405 8.81409 13.253 8.62655C13.0655 8.43901 12.8111 8.33366 12.5459 8.33366C12.2807 8.33366 12.0263 8.43901 11.8388 8.62655C11.6513 8.81409 11.5459 9.06844 11.5459 9.33366C11.5459 9.59888 11.6513 9.85323 11.8388 10.0408C12.0263 10.2283 12.2807 10.3337 12.5459 10.3337ZM13.5459 4.33366H11.8792V6.00033H14.8526L13.5459 4.33366ZM5.87923 10.3337C6.14445 10.3337 6.3988 10.2283 6.58634 10.0408C6.77387 9.85323 6.87923 9.59888 6.87923 9.33366C6.87923 9.06844 6.77387 8.81409 6.58634 8.62655C6.3988 8.43901 6.14445 8.33366 5.87923 8.33366C5.61402 8.33366 5.35966 8.43901 5.17212 8.62655C4.98459 8.81409 4.87923 9.06844 4.87923 9.33366C4.87923 9.59888 4.98459 9.85323 5.17212 10.0408C5.35966 10.2283 5.61402 10.3337 5.87923 10.3337Z" fill="#94A2B2"/>
</svg>
