<svg width="16" height="14" viewBox="0 0 16 14" fill="none" xmlns="http://www.w3.org/2000/svg">
<path d="M1.00024 8.07694H3.77111C4.38298 8.07694 4.94232 8.42263 5.21596 8.9699L5.39992 9.33782C5.67355 9.88509 6.2329 10.2308 6.84476 10.2308H9.15573C9.76759 10.2308 10.3269 9.88509 10.6006 9.33782L10.7845 8.9699C11.0582 8.42263 11.6175 8.07694 12.2294 8.07694H15.0002M1.00024 8.31984V11.3077C1.00024 12.1999 1.72348 12.9231 2.61563 12.9231H13.3849C14.277 12.9231 15.0002 12.1999 15.0002 11.3077V8.31984C15.0002 8.15881 14.9762 7.99868 14.9288 7.84477L13.1973 2.21726C12.9887 1.53946 12.3625 1.07693 11.6533 1.07693H4.34717C3.63801 1.07693 3.01178 1.53946 2.80322 2.21726L1.07168 7.84478C1.02432 7.99868 1.00024 8.15881 1.00024 8.31984Z" stroke="#181E25" stroke-linecap="round" stroke-linejoin="round"/>
</svg>
