<svg width="16" height="17" viewBox="0 0 16 17" fill="none" xmlns="http://www.w3.org/2000/svg">
<path d="M8 0.0947266C6.41775 0.0947266 4.87103 0.563918 3.55544 1.44297C2.23985 2.32202 1.21447 3.57145 0.608967 5.03326C0.00346635 6.49507 -0.15496 8.1036 0.153721 9.65545C0.462403 11.2073 1.22433 12.6328 2.34315 13.7516C3.46197 14.8704 4.88743 15.6323 6.43928 15.941C7.99113 16.2497 9.59966 16.0913 11.0615 15.4858C12.5233 14.8803 13.7727 13.8549 14.6518 12.5393C15.5308 11.2237 16 9.67698 16 8.09473C16 5.97299 15.1571 3.93816 13.6569 2.43787C12.1566 0.937581 10.1217 0.0947266 8 0.0947266ZM8 3.33206C8.2829 3.33206 8.55421 3.44444 8.75425 3.64448C8.95429 3.84452 9.06667 4.11583 9.06667 4.39873C9.06667 5.75339 9.09867 4.83606 8.87467 9.00672C8.87467 9.24294 8.78083 9.46949 8.6138 9.63652C8.44676 9.80355 8.22022 9.89739 7.984 9.89739C7.74778 9.89739 7.52124 9.80355 7.35421 9.63652C7.18717 9.46949 7.09334 9.24294 7.09334 9.00672C6.86934 4.86806 6.90133 5.80673 6.90133 4.39873C6.90127 4.25592 6.92988 4.11455 6.98548 3.983C7.04107 3.85146 7.12252 3.73241 7.22498 3.63294C7.32745 3.53346 7.44884 3.45557 7.58197 3.40388C7.7151 3.3522 7.85725 3.32778 8 3.33206ZM8 12.8574C7.76945 12.8563 7.54437 12.7871 7.35311 12.6583C7.16185 12.5296 7.01298 12.3471 6.92524 12.1339C6.83749 11.9207 6.81481 11.6863 6.86005 11.4602C6.90529 11.2342 7.01642 11.0265 7.17945 10.8635C7.34247 10.7005 7.5501 10.5893 7.77617 10.5441C8.00224 10.4989 8.23665 10.5216 8.44985 10.6093C8.66306 10.697 8.84552 10.8459 8.97427 11.0372C9.10302 11.2284 9.17228 11.4535 9.17334 11.6841C9.17404 11.8383 9.14417 11.9912 9.08546 12.1339C9.02674 12.2766 8.94034 12.4062 8.83125 12.5153C8.72215 12.6244 8.59252 12.7108 8.44985 12.7695C8.30718 12.8282 8.15428 12.8581 8 12.8574Z" fill="#F1C21B"/>
</svg>
