<svg width="24" height="24" viewBox="0 0 24 24" fill="none" xmlns="http://www.w3.org/2000/svg">
<path d="M5.00024 13.0769H7.77111C8.38298 13.0769 8.94232 13.4226 9.21596 13.9699L9.39992 14.3378C9.67355 14.8851 10.2329 15.2308 10.8448 15.2308H13.1557C13.7676 15.2308 14.3269 14.8851 14.6006 14.3378L14.7845 13.9699C15.0582 13.4226 15.6175 13.0769 16.2294 13.0769H19.0002M5.00024 13.3198V16.3077C5.00024 17.1998 5.72348 17.9231 6.61563 17.9231H17.3849C18.277 17.9231 19.0002 17.1998 19.0002 16.3077V13.3198C19.0002 13.1588 18.9762 12.9987 18.9288 12.8447L17.1973 7.21723C16.9887 6.53943 16.3625 6.0769 15.6533 6.0769H8.34717C7.63801 6.0769 7.01178 6.53943 6.80322 7.21723L5.07168 12.8447C5.02432 12.9987 5.00024 13.1588 5.00024 13.3198Z" stroke="#181E25" stroke-linecap="round" stroke-linejoin="round"/>
</svg>
